<?xml version="1.0" encoding="utf-8"?>
<!-- Generator: Adobe Illustrator 26.3.1, SVG Export Plug-In . SVG Version: 6.00 Build 0)  -->
<svg version="1.1" id="레이어_1" xmlns="http://www.w3.org/2000/svg" xmlns:xlink="http://www.w3.org/1999/xlink" x="0px"
	 y="0px" viewBox="0 0 400 400" style="enable-background:new 0 0 400 400;" xml:space="preserve">
<style type="text/css">
	.st0{fill:#FFFFFF;}
	g{padding:10px}
	#action{
		animation: action .5s infinite ease-out alternate;
	}
	@keyframes action{
		0%{transform: translateX(10px);}
		100%{transform: translateX(-15px);}
	  }
</style>
<g>
	<path class="st0" d="M293.14,264.65c-2.65,2.19-6.54,2.11-9.03-0.26c-9.66-9.14-20.02-16.15-31.95-21.82
		c0.46,9.89-1.07,18.84-4.58,27.45c-4.01,9.87-10.15,18.35-17.06,26.29c-3.57,4.09-8.13,3.84-12.55-0.43
		c-13.14-12.73-26.23-25.49-39.34-38.24c-0.92-0.89-1.88-1.74-3.04-2.81c-1.13,1.06-2.16,1.99-3.16,2.97
		c-12.92,12.57-25.83,25.16-38.76,37.72c-5.37,5.22-9.55,4.95-14.38-0.85c-9.05-10.87-16.68-22.5-19.17-36.76
		c-0.84-4.82-1.1-9.75-1.67-15.11c-2.89,1.53-5.87,2.98-8.73,4.63c-28.35,16.41-46.56,41.17-57.59,71.4
		c-4.01,10.99-6.25,22.63-9.18,34.01c-0.47,1.84-0.45,3.87-0.35,5.79c0.28,4.97,1.89,7.11,6.84,8.01c4.31,0.78,8.74,1.14,13.13,1.18
		c15.04,0.14,30.09,0.06,45.15,0.06c1.03,0,2.07-0.04,3.11,0.02c5.37,0.26,8.79,3.41,8.69,7.94c-0.12,4.36-3.56,7.7-8.62,7.68
		c-19.71-0.09-39.44,0-59.13-0.7c-14.19-0.49-23.2-8.55-24.42-21.39c-0.54-5.7,0.15-11.68,1.3-17.34
		c5.97-29.37,17.39-56.31,36.83-79.47c16.83-20.06,37.86-33.99,62.53-42.57c1.06-0.36,2.13-0.75,3.25-1.14
		c-4.37-5.39-8.87-10.41-12.79-15.85c-12.56-17.39-19.91-36.54-18.6-58.37l15.23-0.13c0.45,6.84,0.24,13.53,2,19.67
		c9.25,32.27,30.27,54.16,61.3,66.51c9.08,3.61,18.62,4.65,28.17,1.79c33.67-10.09,55.44-32.59,67-65.3
		c2.72-7.7,2.85-15.88,2.14-24.12l15.78-0.14c1.7,29.46-10.74,53.19-30.2,74.04c-0.44,0.47-0.85,0.96-1.43,1.62
		c5.63,2.27,11.14,4.31,16.49,6.68c14.67,6.51,27.77,15.29,39.17,26.38c2.66,2.59,2.51,6.92-0.35,9.29L293.14,264.65z
		 M223.42,280.27c10.08-12.88,15.19-26.24,12.63-41.86c-0.16-0.9-0.56-2.33-1.15-2.5c-4.63-1.39-9.11-4.38-14.06,0
		c-3.04,2.68-6.91,4.56-10.63,6.33c-5.58,2.64-11.36,4.86-15.65,6.68C203.81,258.96,213.51,269.5,223.42,280.27z M158.58,249.57
		c-5.26-2.1-10.3-3.78-15.03-6.09c-4.86-2.37-9.77-4.9-14.02-8.19c-4.55-3.5-8.32-0.74-12.35,0.27c-3.45,0.87-2.15,4.13-2.36,6.23
		c-1.44,14.4,3.7,26.67,12.68,38C137.97,269.61,148.16,259.7,158.58,249.57z"/>
	<path class="st0" d="M287.37,383.61c-5.3-0.01-10.59-0.01-15.89-0.02c-35.54-0.03-71.09-0.01-106.62-0.04
		c-1.92-0.01-3.95-0.06-5.75-0.65c-3.62-1.19-5.31-3.94-5.11-7.78c0.19-3.55,2.62-6.37,6.18-6.94c1.78-0.28,3.62-0.29,5.43-0.29
		c39.7-0.01,79.4-0.01,119.09-0.01h1.54c2.48,0,4.77,1.33,5.99,3.49l1.13,2.03C295.94,377.97,292.63,383.62,287.37,383.61z"/>
	<path class="st0" d="M134.52,375.6c0.05,4.15-3.78,7.96-7.93,7.9c-4.14-0.06-7.54-3.53-7.57-7.73c-0.04-4.33,3.12-7.65,7.4-7.77
		C130.81,367.88,134.47,371.31,134.52,375.6z"/>
	<path class="st0" d="M80.1,118.46c-0.11,6.07,4.28,10.14,11.17,10.16c28.02,0.03,56.03,0.01,84.05,0.01c21.02,0,42.03,0.01,63.04,0
		c7.78,0,15.57,0.09,23.35-0.09c5.37-0.13,9.22-4.22,9.37-9.48c0.17-5.56-3.41-9.66-8.98-10.22c-1.41-0.14-2.85-0.15-4.27-0.15
		c-54.87,0-109.73,0-164.58,0.01c-1.56,0-3.13,0.02-4.67,0.22C83.73,109.52,80.17,113.57,80.1,118.46z M215.64,93.09
		c11.68-0.17,23.35-0.07,35.03-0.08c1.13,0,2.26-0.16,3.39-0.23c-2.12-26.35-26.14-55.63-51.75-62.86c0.03,20.47,1.5,40.4,8.44,59.6
		C211.69,92.12,212.78,93.14,215.64,93.09z M276.97,98.96c14.55,10.41,12.75,32.27-2.63,41.63c-1.77,1.08-2.99,1.98-2.85,4.38
		l-15.78,0.14c-0.01-0.26-0.04-0.52-0.07-0.78c-53.42,0-106.42,0-160.71,0c0.06,0.74,0.13,1.49,0.17,2.23l-15.23,0.13
		c0.18-2.98-0.65-4.74-3.38-6.47c-16.66-10.62-15.72-34.86,1.72-44.16c1.9-1.02,2.69-2.11,3.06-4.27
		c6.97-39.56,29.42-65.83,67.62-78.6c1.26-0.41,2.5-1.68,3.22-2.87c2.77-4.64,6.74-6.9,12.63-6.25c7.56,0.82,15.22,1.2,22.74,0.1
		c6.55-0.97,10.76,1.43,13.64,6.48c0.78,1.38,2.25,2.78,3.7,3.29c34.24,12.16,55.67,35.84,63.89,71.2
		C270.03,90.83,271.54,95.07,276.97,98.96z M195.37,92.76c-8.31-23.78-8.79-48.32-8.67-73.08c-6.87,0-13.28,0-20.16,0
		c-0.11,24.82-0.6,49.24-8.83,73.08C170.43,92.76,182.68,92.76,195.37,92.76z M150.82,29.56c-25.33,6.08-51.13,35.02-53.43,63.45
		c14.06,0,27.78,0.07,41.5-0.13c1.12-0.01,2.75-1.7,3.22-2.95C149.38,70.46,150.62,50.11,150.82,29.56z"/>
</g>
<g id="action">
	<path class="st0" d="M315.07,340.58c-4.53-3.25-8.96-6.62-13.27-10.15c-3.56-2.93-4.04-7.35-1.51-10.73
		c2.7-3.56,7.04-4.18,11.04-1.42c2.45,1.68,4.76,3.54,7.45,5.57c6.72-7.42,13.14-14.55,19.6-21.63c3.52-3.86,7.45-4.51,11.01-1.96
		c3.77,2.69,4.66,7.58,1.45,11.25c-8.37,9.55-16.94,18.93-25.59,28.24C322.33,342.9,318.6,343.11,315.07,340.58z"/>
	<path class="st0" d="M270.99,309.2c1.46,6.65,3.45,13.01,5.96,19.13c0.84,2.04,1.72,4.06,2.67,6.04c2.37,4.96,5.07,9.75,8.1,14.39
		c1.82,2.78,3.74,5.51,5.78,8.18c1.36,1.78,2.77,3.53,4.23,5.27c4.36,5.2,9.16,10.18,14.33,14.97c0.87,0.8,1.74,1.59,2.62,2.38
		c0.39,0.34,0.77,0.67,1.14,0.97c1.11,0.89,2.15,1.59,3.15,2.08c0.66,0.33,1.3,0.57,1.95,0.72c0.64,0.16,1.28,0.22,1.91,0.21
		c0.64-0.01,1.28-0.1,1.94-0.28c0.65-0.18,1.32-0.42,2-0.76c0.7-0.33,1.42-0.75,2.16-1.22c0.75-0.49,1.54-1.04,2.36-1.68
		c0.6-0.44,1.19-0.91,1.76-1.38c1.74-1.41,3.41-2.91,4.97-4.51c13.43-13.78,24.21-29.35,31.58-47.2c1.06-2.54,2-5.11,2.83-7.71
		c2.21-6.9,3.66-13.95,4.47-21.14c0.51-4.5,0.77-9.05,0.82-13.65c-9.28-2.02-17.9-5.21-25.98-9.36c-4.62-2.37-9.06-5.05-13.36-8.01
		c-5.37-3.7-10.51-7.8-15.46-12.26c-3.99,3.6-8.08,6.95-12.31,10.04c-3.17,2.32-6.42,4.48-9.75,6.47c-2.22,1.33-4.47,2.59-6.77,3.76
		c-2.29,1.19-4.63,2.28-7,3.3c-2.38,1.01-4.79,1.95-7.25,2.79c-3.69,1.28-7.49,2.36-11.39,3.23c-0.06,0.21-0.13,0.38-0.18,0.51
		c-0.06,0.15-0.1,0.27-0.1,0.39C268.33,293.36,269.29,301.47,270.99,309.2z M254.61,306.61c-1.41-9.58-1.62-19.35-1.97-29.05
		c-0.18-5.08,3.04-7.56,8.74-8.49c4.86-0.8,9.66-2.03,15.11-3.26c0.01,0,0.02,0,0.03-0.01c0.03,0,0.13-0.02,0.25-0.05
		c1.61-0.4,9.91-2.7,18.72-9.84c6.95-5.62,14.03-11.07,20.75-16.94c5.07-4.43,8.58-4.66,13.4,0.12
		c13.57,13.44,28.97,23.84,47.68,28.71c2.62,0.69,5.34,0.99,8.02,1.41c5.48,0.88,7.81,3.63,7.98,9.2
		c1.38,44.03-16.95,79.57-47.79,109.38c-5.03,4.86-12.17,7.53-18.33,11.21c-2.86,0-5.71,0-8.57,0c-4.98-1.68-9.41-4.16-13.49-7.12
		c-4.09-2.96-7.83-6.44-11.44-10.13c-8.47-9.16-14.08-17.33-14.08-17.33c-1.18-1.86-1.98-3.21-2.86-4.5
		C265.7,343.68,257.46,326.16,254.61,306.61z"/>
</g>
</svg>
