<?xml version="1.0" encoding="utf-8"?>
<!-- Generator: Adobe Illustrator 26.3.1, SVG Export Plug-In . SVG Version: 6.00 Build 0)  -->
<svg version="1.1" id="레이어_3" xmlns="http://www.w3.org/2000/svg" xmlns:xlink="http://www.w3.org/1999/xlink" x="0px"
	 y="0px" viewBox="0 0 383.33 405.99" style="enable-background:new 0 0 383.33 405.99;" xml:space="preserve">
<style type="text/css">
	.st0{fill:#FFFFFF;}
	g{padding:10px}
	#lot{
		animation: lot .5s infinite ease-out alternate;
		transform-origin: center center;
	}
	@keyframes lot {
		0%{transform: rotate(5deg);}
		100%{transform: rotate(-5deg);}
			
	}
</style>
<path class="st0" d="M-0.57,178.83c0.46-0.97,0.98-1.92,1.36-2.92c3.85-10.21,13.04-16,24.05-15.12
	c10.16,0.81,18.29,8.27,20.48,18.8c2.02,9.74-2.85,20.01-12.14,24.64c-2.61,1.3-3.2,2.75-3.13,5.42
	c0.73,28.87,8.19,55.78,23.11,80.57c0.99,1.65,1.75,2.39,4.04,1.98c18.16-3.23,32.22,13.58,25.99,30.98
	c-0.7,1.94-0.57,3.06,1.02,4.46c22,19.37,47.37,31.88,76.11,37.63c2.35,0.47,3.9-0.17,5.55-1.88c6.16-6.36,12.46-12.59,18.76-18.82
	c4.6-4.55,8.35-4.56,12.92-0.03c6.38,6.32,12.77,12.63,19.02,19.09c1.6,1.66,3.15,2.04,5.27,1.62c28.76-5.71,54.1-18.27,76.12-37.64
	c1.64-1.44,1.61-2.6,0.94-4.48c-6.23-17.36,7.88-34.14,26.07-30.92c2.04,0.36,2.89-0.1,3.84-1.7c11.6-19.38,19.09-40.19,21.75-62.65
	c0.73-6.18,0.91-12.42,1.49-18.62c0.23-2.43-0.55-3.7-2.83-4.84c-10.01-5.03-14.73-15.55-12.13-26.32
	c2.45-10.14,11.85-17.41,22.49-17.41c11.01,0.01,19.98,7.23,22.59,18.18c2.41,10.12-2.63,20.82-12.29,25.61
	c-2.01,1-2.93,1.95-2.94,4.37c-0.1,32.55-8.88,62.65-25.83,90.39c-1.12,1.84-1.1,3.16-0.13,5.08c4.55,9.04,3.63,17.81-2.83,25.46
	c-6.44,7.63-14.83,10.01-24.63,7.33c-1.33-0.36-3.46,0.03-4.47,0.93c-24.88,22.15-53.58,36.42-86.38,42.48
	c-2.13,0.39-4.37,1.73-5.96,3.25c-6.5,6.2-12.74,12.66-19.12,18.98c-4.58,4.54-8.35,4.55-12.88,0.07
	c-6.38-6.33-12.61-12.8-19.12-18.98c-1.68-1.6-4.04-2.99-6.29-3.4c-32.29-5.93-60.64-19.85-85.14-41.64
	c-2.01-1.79-3.6-2.39-6.49-1.58c-9.41,2.62-17.65-0.09-23.83-7.56c-6.29-7.6-7.17-16.23-2.82-25.17c0.89-1.82,1.3-3.15,0.11-5.08
	c-17.38-28.27-26.11-59-26.03-92.21c0-0.37-0.06-0.74-0.11-1.47c-8.16-2.82-12.78-9.14-15.55-17.12
	C-0.57,185.32-0.57,182.07-0.57,178.83z M178.15,373.38c4.37,4.43,8.95,9.08,13.15,13.34c4.29-4.26,8.84-8.79,12.82-12.75
	c-4.43-4.42-9.04-9.02-13.27-13.23C186.65,364.93,182.09,369.46,178.15,373.38z M22.51,175.78c-4.43,0.03-8.14,3.78-8.05,8.11
	c0.1,4.38,3.84,7.88,8.33,7.79c4.36-0.09,7.77-3.53,7.81-7.89C30.63,179.33,27.02,175.75,22.51,175.78z M359.71,191.69
	c4.43-0.07,8.11-3.87,7.93-8.19c-0.17-4.26-3.77-7.7-8.07-7.72c-4.5-0.02-8.11,3.58-8.07,8.04
	C351.55,188.3,355.16,191.76,359.71,191.69z M61.59,322.84c4.45,0.02,8.18-3.64,8.14-8c-0.04-4.3-3.93-8.09-8.23-8.01
	c-4.23,0.07-7.81,3.66-7.91,7.91C53.5,319.18,57.09,322.82,61.59,322.84z M320.64,322.84c4.5-0.09,8.02-3.79,7.85-8.23
	c-0.17-4.27-3.79-7.78-8.02-7.78c-4.33,0-8.14,3.84-8.09,8.14C312.42,319.35,316.18,322.93,320.64,322.84z"/>
<path class="st0" d="M183.59,220.99c-0.05-4.29,3.14-7.52,7.45-7.53c4.16-0.01,7.35,3.04,7.48,7.13c0.13,4.2-3.13,7.71-7.26,7.84
	C187.14,228.56,183.64,225.16,183.59,220.99z"/>
<g id="lot">
	<path class="st0" d="M195.65,1.82c6.95,1.27,14.02,2.07,20.82,3.88c35.64,9.48,62.93,41.89,66.84,78.54
		c2.04,19.17-1.5,37.13-10.22,54.22c-7.98,15.63-16.1,31.28-20,48.53c-1.82,8.07-2.8,16.45-3.1,24.73
		c-0.5,13.83-0.12,27.68-0.14,41.52c-0.02,14.45-7.47,21.99-21.8,22c-24.82,0.02-49.64,0.03-74.45-0.01
		c-10.46-0.02-17.72-4.9-20.24-13.77c-0.7-2.47-0.85-5.16-0.87-7.75c-0.09-12.1-0.39-24.21,0.04-36.29
		c0.7-19.64-3.95-38.02-12.05-55.67c-4.83-10.52-10.45-20.69-14.88-31.36C82.82,75.6,116.47,14.15,174.89,3.53
		c3.9-0.71,7.85-1.14,11.77-1.71C189.66,1.82,192.65,1.82,195.65,1.82z M147.66,220.33c0,12.16-0.03,23.75,0.02,35.33
		c0.01,3.34,2.05,4.47,5.15,4.47c25.56-0.03,51.13,0,76.69-0.03c3.78,0,5.11-1.39,5.13-5.22c0.05-6.73,0.01-13.47,0.01-20.2
		c0-4.69,0-9.38,0-14.36c-3.07,0-5.67,0.08-8.27-0.02c-4.56-0.17-7.61-3.22-7.64-7.49c-0.03-4.34,2.9-7.32,7.54-7.5
		c2.71-0.11,5.42-0.02,7.81-0.02c1.6-8.29,2.73-16.19,4.69-23.87c4.54-17.71,12.68-33.98,20.98-50.15
		c8.44-16.43,11.22-33.76,7.49-51.83c-9.04-43.8-51.89-70.55-95.31-59.76c-37.79,9.39-63.1,46.8-57.84,85.46
		c1.57,11.54,6.19,21.92,11.47,32.15c8.79,17.06,16.68,34.52,20.18,53.58c0.86,4.71,1.38,9.49,2.07,14.41c3,0,5.61-0.09,8.21,0.02
		c4.63,0.19,7.55,3.18,7.51,7.53c-0.04,4.28-3.08,7.3-7.66,7.46C153.3,220.41,150.7,220.33,147.66,220.33z"/>
	<path class="st0" d="M363.5,73.42c0.06,16.16-4.5,30.93-13.31,44.43c-1.98,3.03-4.66,4.44-8.25,3.78c-3.33-0.61-5.54-2.8-5.75-6.01
		c-0.14-2.16,0.63-4.69,1.79-6.57c7.08-11.43,10.88-23.75,10.39-37.21c-0.78-21.08-9.58-38.12-26.36-50.94
		c-5.4-4.12-6.85-8.18-4.05-12.14c2.96-4.19,7.41-4.2,13.04-0.03C351.52,23.91,363.44,47.62,363.5,73.42z"/>
	<path class="st0" d="M18.61,74.12c0.91-28.25,12.01-50.43,34.52-66.65c3.47-2.5,6.85-2.54,9.65-0.32c2.76,2.19,3.68,5.17,2.43,8.34
		c-0.68,1.72-2.19,3.34-3.72,4.48C42.23,34.32,33.06,53.53,34.01,77.44c0.45,11.28,4.13,21.67,10.14,31.27
		c1.19,1.9,2.12,4.37,2.06,6.54c-0.09,3.19-2.17,5.55-5.46,6.31c-3.52,0.81-6.37-0.36-8.4-3.4c-6.48-9.65-10.73-20.21-12.52-31.69
		C19.16,82.17,18.96,77.8,18.61,74.12z"/>
	<path class="st0" d="M52.54,72.74c0.5-17.93,7.78-32.37,22.35-42.99c3.35-2.44,6.93-2.42,9.65-0.21c2.73,2.22,3.6,5.18,2.38,8.36
		c-0.62,1.63-2.03,3.14-3.43,4.26C66.71,55.48,62.9,74.98,73.61,93.3c2.74,4.68,2.09,9.07-1.71,11.5
		c-3.88,2.48-8.32,1.05-11.29-3.73C55.22,92.42,52.41,83.01,52.54,72.74z"/>
	<path class="st0" d="M329.7,72.83c0.18,10.38-2.72,19.88-8.24,28.61c-2.79,4.41-6.98,5.73-10.78,3.52
		c-3.94-2.29-4.77-6.76-2.12-11.37c10.83-18.83,7.15-38.14-9.82-51.42c-4.05-3.17-5.03-7.5-2.5-11.05c2.64-3.71,7.2-4.16,11.53-1.13
		C321.39,39.52,329.65,55.67,329.7,72.83z"/>
	<path class="st0" d="M189.57,128.46c-12.99,0.09-23.3-10.12-23.31-23.09c-0.01-12.69,10.26-23.1,22.92-23.26
		c12.62-0.15,23.43,10.55,23.45,23.24C212.66,117.95,202.26,128.37,189.57,128.46z M181.38,105.25c-0.06,4.45,3.53,8.12,7.96,8.14
		c4.34,0.02,7.82-3.35,7.95-7.71c0.14-4.69-3.09-8.14-7.7-8.23C184.97,97.37,181.44,100.72,181.38,105.25z"/>
	<path class="st0" d="M237.56,76.25c5.3,1.34,7.47,3.56,7.61,7.43c0.15,4.19-1.86,6.46-7.59,8.26c0,8.05,0,16.24,0,24.43
		c0,2.12,0.04,4.24-0.02,6.36c-0.13,4.79-3.2,7.91-7.66,7.81c-4.26-0.09-7.25-3.19-7.27-7.81c-0.06-10.22-0.02-20.44-0.02-30.59
		c-5.94-2.33-7.69-4.34-7.53-8.52c0.15-3.84,2.24-5.98,7.53-7.41c0-1.99-0.08-4.09,0.02-6.19c0.19-4.11,3.56-7.36,7.49-7.33
		c3.95,0.03,7.22,3.26,7.41,7.41C237.63,72.08,237.56,74.07,237.56,76.25z"/>
	<path class="st0" d="M156.6,96.52c0,8.22,0.03,16.45-0.03,24.67c-0.01,1.47-0.14,3.03-0.63,4.39c-1.24,3.42-3.82,5.11-7.49,4.95
		c-3.36-0.15-6.06-2.47-6.76-5.9c-0.29-1.45-0.35-2.97-0.35-4.45c-0.02-15.7-0.01-31.4-0.01-47.1c0-0.75-0.03-1.5,0.02-2.24
		c0.33-4.87,3.35-8.12,7.56-8.15c4.32-0.03,7.61,3.44,7.67,8.42C156.67,79.58,156.6,88.05,156.6,96.52z"/>
</g>
</svg>
