<?xml version="1.0" encoding="utf-8"?>
<!-- Generator: Adobe Illustrator 26.3.1, SVG Export Plug-In . SVG Version: 6.00 Build 0)  -->
<svg version="1.1" id="레이어_1" xmlns="http://www.w3.org/2000/svg" xmlns:xlink="http://www.w3.org/1999/xlink" x="0px"
	 y="0px" viewBox="0 0 228.45 118.64" style="enable-background:new 0 0 228.45 118.64;" xml:space="preserve">
<style type="text/css">
	.st0{fill:#0271BE;}
	.st1{fill:#D6171B;}
	.st2{fill:#FFFFFF;}
	.st3{font-family:'Roboto-Bold';}
	.st4{font-size:19.452px;}
</style>
<path class="st0" d="M78.97,116.58c-0.8,0-1.59,0-2.39,0c-2.57,0-5.13,0.02-7.7,0.01c-2.04-0.01-4.08-0.05-6.12-0.05
	c-1.63,0-3.26,0.06-4.88,0.07c-0.64,0-1.28-0.04-1.92-0.13c-0.24-0.03-0.52-0.21-0.68-0.4c-1.98-2.31-3.94-4.63-5.9-6.95
	c-1.82-2.14-3.65-4.28-5.47-6.42c-2.13-2.51-4.27-5.02-6.39-7.54c-2.05-2.43-4.08-4.87-6.12-7.3c-1.08-1.29-2.19-2.57-3.27-3.86
	c-1.96-2.35-3.91-4.71-5.87-7.06c-0.15-0.18-0.3-0.35-0.46-0.51c-0.14-0.14-0.29-0.25-0.44-0.38c-0.14,0.2-0.37,0.39-0.39,0.6
	c-0.06,0.59-0.03,1.19-0.03,1.78c0,12.36,0.01,24.72,0.01,37.09c0,0.9-0.16,1.07-0.93,1.07c-2.7-0.01-5.4,0-8.1-0.01
	c-1.79-0.01-3.57-0.05-5.36-0.05c-1.56,0-3.12,0-4.67,0.06c-1.78,0.08-1.88,0.02-1.88-1.74c0-28.94,0.01-57.89,0.01-86.83
	c0-0.55,0.01-1.1-0.02-1.65c-0.02-0.56,0.27-0.81,0.79-0.79c0.55,0.01,1.1,0.08,1.65,0.08c5.57,0.01,11.15,0.02,16.72,0
	c1.82-0.01,1.79-0.05,1.78,1.95c-0.01,6.95,0,13.9,0,20.85c0,2.59-0.03,5.18-0.03,7.77c0,0.18,0.08,0.44,0.2,0.51
	c0.14,0.07,0.43,0.02,0.55-0.09c0.47-0.42,0.91-0.89,1.35-1.35c2.48-2.59,4.97-5.17,7.44-7.77c1.8-1.88,3.58-3.78,5.37-5.67
	c1.95-2.05,3.91-4.09,5.87-6.13c2.29-2.4,4.58-4.8,6.88-7.19c0.82-0.86,1.62-1.74,2.51-2.53c0.32-0.28,0.87-0.43,1.31-0.43
	C58.7,25.6,65,25.65,71.31,25.66c1.1,0,2.2-0.09,3.3-0.12c0.16,0,0.32,0.09,0.48,0.14c-0.04,0.12-0.06,0.27-0.14,0.35
	c-1.38,1.47-2.77,2.93-4.16,4.38c-2.07,2.17-4.15,4.32-6.22,6.49c-3.41,3.58-6.81,7.18-10.23,10.76c-2.5,2.62-5.04,5.22-7.53,7.85
	c-3.12,3.28-6.22,6.58-9.33,9.87c-0.62,0.65-0.59,0.88,0.01,1.57c1.75,2.01,3.52,4.01,5.24,6.05c1.76,2.08,3.49,4.2,5.23,6.31
	c1.94,2.34,3.87,4.69,5.82,7.02c1.25,1.48,2.56,2.92,3.81,4.4c1.53,1.82,3.02,3.67,4.55,5.49c2.48,2.96,4.97,5.92,7.45,8.87
	c2.92,3.47,5.84,6.93,8.75,10.4c0.26,0.31,0.52,0.62,0.79,0.93C79.08,116.46,79.02,116.52,78.97,116.58z"/>
<path class="st0" d="M148.95,60.43c0.95,0.08,1.78,0.21,2.62,0.2c1.78-0.03,3.57-0.04,5.33-0.26c1.57-0.2,3.14-0.58,4.66-1.04
	c1.08-0.33,2.09-0.89,3.09-1.42c0.49-0.26,0.87-0.17,1.27,0.1c0.66,0.45,1.3,0.93,1.96,1.37c0.48,0.31,0.72,0.7,0.78,1.29
	c0.19,1.86,0.36,3.73,0.68,5.57c0.51,2.99,0.38,5.98,0.2,8.98c-0.08,1.34-0.19,2.69-0.41,4.02c-0.2,1.21-0.55,2.39-0.84,3.58
	c-0.17,0.68-0.29,1.38-0.51,2.04c-0.67,2.01-1.23,4.08-2.12,5.99c-1.04,2.22-2.3,4.35-3.62,6.41c-1.16,1.79-2.47,3.51-3.86,5.13
	c-1.3,1.52-2.73,2.95-4.23,4.28c-1.53,1.36-3.16,2.64-4.86,3.78c-1.81,1.22-3.72,2.28-5.63,3.33c-1.23,0.68-2.52,1.23-3.8,1.81
	c-0.45,0.21-0.94,0.35-1.42,0.48c-1.48,0.4-2.97,0.78-4.46,1.15c-1.12,0.28-2.25,0.54-3.37,0.8c-0.13,0.03-0.26,0.09-0.4,0.1
	c-3.65,0.33-7.3,0.74-10.96,0.41c-2.46-0.22-4.92-0.5-7.34-0.97c-2.01-0.39-3.99-1-5.91-1.73c-2.27-0.86-4.52-1.82-6.66-2.94
	c-3.16-1.66-5.95-3.86-8.64-6.23c-2.22-1.97-4.16-4.17-5.97-6.48c-1.5-1.92-2.85-3.96-4.12-6.04c-0.82-1.34-1.39-2.83-2.03-4.26
	c-0.52-1.16-0.99-2.34-1.44-3.53c-0.23-0.59-0.43-1.21-0.54-1.83c-0.31-1.86-1.06-3.62-1.17-5.54c-0.12-2.23-0.58-4.45-0.66-6.68
	c-0.08-2.05,0.1-4.12,0.26-6.18c0.11-1.52,0.27-3.05,0.57-4.54c0.32-1.61,0.78-3.19,1.26-4.76c0.49-1.6,1.02-3.2,1.67-4.74
	c0.6-1.44,1.37-2.82,2.09-4.21c1.83-3.51,4.26-6.61,6.88-9.54c1.23-1.37,2.65-2.57,4.08-3.73c1.51-1.24,3.07-2.43,4.7-3.5
	c1.62-1.06,3.31-2.03,5.05-2.85c2.05-0.96,4.19-1.73,6.3-2.56c1.85-0.73,3.78-1.11,5.72-1.52c4.32-0.9,8.68-1.06,13.05-0.79
	c1.63,0.1,3.23,0.48,4.85,0.72c0.59,0.09,1.19,0.12,1.77,0.23c0.25,0.05,0.47,0.21,0.71,0.33c-0.1,0.21-0.18,0.42-0.3,0.61
	c-1.04,1.6-2.03,3.22-2.75,5.02c-1.36,3.4-1.66,6.9-1.48,10.5c0,0.07,0,0.14,0,0.21c0.06,1.41,0.02,1.6-1.37,1.28
	c-2.5-0.58-5-0.44-7.51-0.47c-1.89-0.03-3.72,0.37-5.52,0.91c-1.61,0.49-3.24,0.96-4.75,1.68c-1.61,0.77-3.13,1.77-4.63,2.75
	c-1.98,1.3-3.61,3-5.08,4.83c-1.4,1.74-2.73,3.55-3.61,5.61c-0.66,1.52-1.18,3.1-1.69,4.67c-0.35,1.07-0.59,2.18-0.88,3.27
	c-0.01,0.04-0.03,0.09-0.03,0.13c-0.08,2.19-0.18,4.39-0.22,6.58c-0.02,0.78,0.06,1.56,0.15,2.33c0.17,1.45,0.27,2.92,0.61,4.33
	c0.53,2.19,1.23,4.34,2.31,6.32c1.86,3.4,4.32,6.32,7.36,8.73c2.04,1.62,4.25,3.04,6.65,4.04c1.9,0.79,3.89,1.36,5.94,1.78
	c3.22,0.64,6.44,0.45,9.65,0.28c1.81-0.09,3.64-0.54,5.35-1.34c1.34-0.62,2.82-0.97,4.07-1.71c1.72-1.02,3.39-2.17,4.89-3.5
	c1.57-1.39,3-2.96,4.29-4.61c1.06-1.36,1.93-2.9,2.71-4.45c0.75-1.47,1.31-3.03,1.9-4.58c0.24-0.63,0.35-1.32,0.48-2
	c0.54-2.84,0.8-5.71,0.61-8.6c-0.1-1.57-0.26-3.15-0.56-4.69C149.86,63.21,149.38,61.92,148.95,60.43z"/>
<path class="st1" d="M165.18,33.43c0.26-0.39,0.55-0.66,0.66-1c0.39-1.15,0.72-2.31,1.06-3.47c0.12-0.42,0.37-0.56,0.77-0.47
	c1.18,0.27,2.37,0.53,3.55,0.81c1.07,0.26,2.12,0.56,3.19,0.83c0.7,0.17,0.83,0.37,0.63,1.07c-0.45,1.58-0.82,3.19-1.37,4.74
	c-0.46,1.31-1.08,2.57-1.71,3.8c-0.37,0.73-0.46,1.05,0.15,1.56c1.75,1.43,3.52,2.85,5.33,4.2c0.94,0.7,1,0.78,0.31,1.75
	c-1.36,1.9-2.7,3.81-4.06,5.71c-0.64,0.89-0.67,0.89-1.64,0.32c-2.09-1.22-3.96-2.72-5.72-4.37c-0.62-0.58-0.78-0.57-1.38-0.02
	c-1.95,1.8-4.19,3.14-6.73,3.81c-3.25,0.85-6.55,0.87-9.88,0.28c-2.55-0.45-4.78-1.48-6.78-3.07c-1.45-1.15-2.53-2.62-3.4-4.25
	c-1.41-2.65-1.8-5.48-1.57-8.44c0.38-4.76,2.78-8.33,6.42-11.19c0.89-0.7,1.86-1.31,2.81-1.94c0.48-0.32,0.57-0.78,0.26-1.3
	c-0.89-1.49-1.83-2.95-2.63-4.48c-1.22-2.34-1.65-4.89-1.18-7.45c0.78-4.31,4.1-7.61,8.56-8.54c1.8-0.37,3.59-0.49,5.4-0.38
	c3.15,0.17,5.96,1.25,8.17,3.55c1.74,1.81,2.75,3.99,2.98,6.54c0.38,4.14-1.12,7.48-4.21,10.16c-0.95,0.83-1.95,1.59-2.94,2.37
	c-0.67,0.53-0.7,0.85-0.21,1.55c1.43,2.04,2.84,4.09,4.26,6.14C164.52,32.59,164.81,32.94,165.18,33.43z M152.31,45.08
	c2.47,0.17,4.76-1.11,6.82-2.94c0.59-0.52,0.59-0.81,0.1-1.47c-0.72-0.97-1.46-1.93-2.18-2.91c-1.69-2.3-3.35-4.62-5.05-6.91
	c-0.55-0.75-0.83-0.74-1.61-0.25c-1.65,1.04-2.91,2.43-3.78,4.16c-1.03,2.06-1.23,4.25-0.43,6.39
	C147.15,43.71,149.12,45.04,152.31,45.08z M159.53,12.98c-0.1-0.49-0.13-1.01-0.32-1.46c-0.91-2.13-2.52-2.76-4.67-2.58
	c-2.99,0.26-4.24,2.43-3.44,4.94c0.61,1.89,2.07,3.26,3.28,4.78c0.27,0.33,0.64,0.38,0.97,0.09c0.96-0.85,1.96-1.66,2.82-2.6
	C158.98,15.28,159.59,14.27,159.53,12.98z"/>
<path class="st2" d="M152.31,45.08c-3.19-0.04-5.15-1.37-6.12-3.93c-0.81-2.14-0.6-4.33,0.43-6.39c0.86-1.73,2.13-3.12,3.78-4.16
	c0.78-0.49,1.06-0.49,1.61,0.25c1.7,2.29,3.36,4.61,5.05,6.91c0.72,0.98,1.46,1.94,2.18,2.91c0.49,0.66,0.49,0.95-0.1,1.47
	C157.07,43.97,154.78,45.25,152.31,45.08z"/>
<path class="st2" d="M159.53,12.98c0.06,1.29-0.55,2.3-1.34,3.16c-0.86,0.94-1.87,1.75-2.82,2.6c-0.33,0.29-0.71,0.25-0.97-0.09
	c-1.21-1.51-2.68-2.89-3.28-4.78c-0.81-2.51,0.45-4.68,3.44-4.94c2.15-0.19,3.76,0.45,4.67,2.58
	C159.41,11.97,159.43,12.49,159.53,12.98z"/>
<text transform="matrix(1 0 0 1 174.4209 16.6407)" class="st0 st3 st4">safety</text>
</svg>
