<?xml version="1.0" encoding="utf-8"?>
<!-- Generator: Adobe Illustrator 26.3.1, SVG Export Plug-In . SVG Version: 6.00 Build 0)  -->
<svg version="1.1" id="레이어_1" xmlns="http://www.w3.org/2000/svg" xmlns:xlink="http://www.w3.org/1999/xlink" x="0px"
	 y="0px" viewBox="0 0 1200 250.45" style="enable-background:new 0 0 1200 250.45;" xml:space="preserve">
<style type="text/css">
	.st0{fill:#989898;}
	.st1{fill:url(#SVGID_1_);}
	.st2{fill:none;stroke:#979797;stroke-linecap:round;stroke-miterlimit:10;}
	
		.st3{fill:none;stroke:url(#SVGID_00000165950964216612085270000011233698579776297382_);stroke-width:2;stroke-linecap:round;stroke-linejoin:round;stroke-miterlimit:10;}
	
		.st4{fill:none;stroke:url(#SVGID_00000174570703941337357630000011614186518110155697_);stroke-width:2;stroke-linecap:round;stroke-linejoin:round;stroke-miterlimit:10;}
	
		.st5{fill:none;stroke:url(#SVGID_00000071545164513982315980000009668764698475474604_);stroke-width:2;stroke-linecap:round;stroke-linejoin:round;stroke-miterlimit:10;}
	
		.st6{fill:none;stroke:url(#SVGID_00000084514902222384004200000004698619568930887062_);stroke-width:2;stroke-linecap:round;stroke-linejoin:round;stroke-miterlimit:10;}
</style>
<g>
	<g>
		<path class="st0" d="M125.22,243.32c-65.12,0-118.1-52.98-118.1-118.1H5.93c0,65.78,53.51,119.29,119.29,119.29
			S244.51,191,244.51,125.22h-1.19C243.32,190.34,190.34,243.32,125.22,243.32z"/>
		<path class="st0" d="M362.61,5.93c-65.77,0-119.29,53.51-119.29,119.29h1.19c0-65.12,52.98-118.1,118.1-118.1
			s118.1,52.98,118.1,118.1l1.19,0C481.9,59.45,428.39,5.93,362.61,5.93z"/>
		<path class="st0" d="M600,243.32c-65.12,0-118.1-52.98-118.1-118.1h-1.19c0,65.78,53.51,119.29,119.29,119.29
			c65.77,0,119.29-53.51,119.29-119.29h-1.19C718.1,190.34,665.12,243.32,600,243.32z"/>
		<path class="st0" d="M837.39,5.93c-65.78,0-119.29,53.51-119.29,119.29h1.19c0-65.12,52.98-118.1,118.1-118.1
			c65.12,0,118.1,52.98,118.1,118.1l1.19,0C956.68,59.45,903.16,5.93,837.39,5.93z"/>
		<path class="st0" d="M1192.88,125.22c0,65.12-52.98,118.1-118.1,118.1s-118.1-52.98-118.1-118.1h-1.19
			c0,65.78,53.51,119.29,119.29,119.29c65.77,0,119.29-53.51,119.29-119.29H1192.88z"/>
	</g>
	<linearGradient id="SVGID_1_" gradientUnits="userSpaceOnUse" x1="0" y1="125.2227" x2="1200" y2="125.2227">
		<stop  offset="0" style="stop-color:#2A8ECD"/>
		<stop  offset="1" style="stop-color:#26429A"/>
	</linearGradient>
	<path class="st1" d="M1074.78,0c-69.05,0-125.22,56.17-125.22,125.22c0,0,0,0,0,0c0,0,0,0,0,0c0,61.85-50.32,112.17-112.17,112.17
		s-112.17-50.32-112.17-112.17c0,0,0,0,0,0c0,0,0,0,0,0C725.22,56.17,669.05,0,600,0c-69.05,0-125.22,56.17-125.22,125.22
		c0,0,0,0,0,0c0,0,0,0,0,0c0,61.85-50.32,112.17-112.17,112.17c-61.85,0-112.17-50.32-112.17-112.17c0,0,0,0,0,0c0,0,0,0,0,0
		C250.45,56.17,194.27,0,125.22,0C56.17,0,0,56.17,0,125.22c0,3.28,2.66,5.93,5.93,5.93h1.19c3.28,0,5.93-2.66,5.93-5.93
		c0-61.85,50.32-112.17,112.17-112.17s112.17,50.32,112.17,112.17c0,69.05,56.17,125.22,125.22,125.22s125.22-56.17,125.22-125.22
		c0,0,0,0,0,0c0,0,0,0,0,0c0-61.85,50.32-112.17,112.17-112.17s112.17,50.32,112.17,112.17c0,69.05,56.17,125.22,125.22,125.22
		c69.05,0,125.22-56.17,125.22-125.22c0,0,0,0,0,0c0,0,0,0,0,0c0-61.85,50.32-112.17,112.17-112.17
		c61.85,0,112.17,50.32,112.17,112.17c0,1.57,0.63,3.08,1.74,4.2c1.11,1.11,2.62,1.74,4.19,1.74c0,0,0,0,0,0l1.19,0
		c3.28,0,5.93-2.66,5.93-5.93C1200,56.17,1143.83,0,1074.78,0z"/>
	<line class="st2" x1="239.52" y1="154.69" x2="225.98" y2="163.98"/>
	<line class="st2" x1="477.29" y1="95.38" x2="463.52" y2="86.42"/>
	<line class="st2" x1="952.24" y1="95.38" x2="938.48" y2="86.42"/>
	<line class="st2" x1="715.01" y1="154.69" x2="701.47" y2="163.98"/>
</g>
<linearGradient id="SVGID_00000066479573743083198100000000914066118136949640_" gradientUnits="userSpaceOnUse" x1="1796.6829" y1="621.9844" x2="1887.4116" y2="621.9844" gradientTransform="matrix(-1.138931e-08 1 -1 -1.138931e-08 747.2071 -1672.4603)">
	<stop  offset="0" style="stop-color:#2A8ECD"/>
	<stop  offset="1" style="stop-color:#26429A"/>
</linearGradient>
<path style="fill:none;stroke:url(#SVGID_00000066479573743083198100000000914066118136949640_);stroke-width:2;stroke-linecap:round;stroke-linejoin:round;stroke-miterlimit:10;" d="
	M36.49,125.22L36.49,125.22c0,49,39.73,88.73,88.73,88.73h0c49,0,88.73-39.73,88.73-88.73v0l-14.14,15.05"/>
<linearGradient id="SVGID_00000004516583229011353530000011717489441197690780_" gradientUnits="userSpaceOnUse" x1="1796.6829" y1="147.2071" x2="1887.4116" y2="147.2071" gradientTransform="matrix(-1.138931e-08 1 -1 -1.138931e-08 747.2071 -1672.4603)">
	<stop  offset="0" style="stop-color:#2A8ECD"/>
	<stop  offset="1" style="stop-color:#26429A"/>
</linearGradient>
<path style="fill:none;stroke:url(#SVGID_00000004516583229011353530000011717489441197690780_);stroke-width:2;stroke-linecap:round;stroke-linejoin:round;stroke-miterlimit:10;" d="
	M511.27,125.22L511.27,125.22c0,49,39.73,88.73,88.73,88.73h0c49,0,88.73-39.73,88.73-88.73v0l-14.14,15.05"/>
<linearGradient id="SVGID_00000163795017691929336900000016667307833637522850_" gradientUnits="userSpaceOnUse" x1="714.123" y1="-2259.4033" x2="804.8517" y2="-2259.4033" gradientTransform="matrix(1.138931e-08 -1 1 1.138931e-08 3096.7917 835.9357)">
	<stop  offset="0" style="stop-color:#2A8ECD"/>
	<stop  offset="1" style="stop-color:#26429A"/>
</linearGradient>
<path style="fill:none;stroke:url(#SVGID_00000163795017691929336900000016667307833637522850_);stroke-width:2;stroke-linecap:round;stroke-linejoin:round;stroke-miterlimit:10;" d="
	M748.66,120.81L748.66,120.81c0-49,39.73-88.73,88.73-88.73h0c49,0,88.73,39.73,88.73,88.73v0l-12.94-14.39"/>
<linearGradient id="SVGID_00000026164077935592890180000010651258529971632284_" gradientUnits="userSpaceOnUse" x1="714.123" y1="-2734.1802" x2="804.8517" y2="-2734.1802" gradientTransform="matrix(1.138931e-08 -1 1 1.138931e-08 3096.7917 835.9357)">
	<stop  offset="0" style="stop-color:#2A8ECD"/>
	<stop  offset="1" style="stop-color:#26429A"/>
</linearGradient>
<path style="fill:none;stroke:url(#SVGID_00000026164077935592890180000010651258529971632284_);stroke-width:2;stroke-linecap:round;stroke-linejoin:round;stroke-miterlimit:10;" d="
	M273.88,120.81L273.88,120.81c0-49,39.73-88.73,88.73-88.73h0c49,0,88.73,39.73,88.73,88.73v0l-12.94-14.39"/>
</svg>
