<?xml version="1.0" encoding="utf-8"?>
<!-- Generator: Adobe Illustrator 26.3.1, SVG Export Plug-In . SVG Version: 6.00 Build 0)  -->
<svg version="1.1" id="레이어_1" xmlns="http://www.w3.org/2000/svg" xmlns:xlink="http://www.w3.org/1999/xlink" x="0px"
	 y="0px" viewBox="0 0 400 400" style="enable-background:new 0 0 400 400;" xml:space="preserve">
<style type="text/css">
	.st0{fill:none;}
	.st1{fill:#1A4A9E;}
	.st2{fill:#666666;}
</style>
<path class="st0" d="M256.72,135.92l-1.94,2.03c0.02,0.03,0.04,0.05,0.06,0.08C255.28,137.54,256.07,136.79,256.72,135.92z"/>
<path class="st0" d="M214.17,113.6c-4.84-2.83-5.16-7.02-1.03-10.72c0.87-0.78,1.78-1.53,2.58-2.37c7.95-8.34,7.76-21.79-0.4-29.92
	c-8.23-8.19-21.51-8.3-29.89-0.24c-9.31,8.95-8.72,23.49,1.3,32.01c3.47,2.95,4.43,6.36,2.21,9.04c-1.12,1.35-2.78,2.3-4.32,3.23
	c-13.26,8.01-23.22,18.92-29.71,32.95c25.19,22.73,66.12,22.26,90.81-0.18c-2.1-3.55-4.09-7.32-6.47-10.84
	C232.75,126.91,224.2,119.45,214.17,113.6z"/>
<path class="st0" d="M333.11,320.74c-6.27-3.73-6.66-7.35-1.34-12.11c0.68-0.61,1.36-1.22,1.98-1.88c6.45-6.93,7.53-17.55,2.6-25.62
	c-5.06-8.3-15.03-12.19-24.32-9.36c-7.87,2.39-12.97,7.71-14.75,15.65c-1.8,8.05,0.48,15.13,6.61,20.88
	c1.47,1.38,3.22,2.94,3.76,4.74c1.14,3.77-1.4,5.89-4.44,7.67c-13.6,7.96-23.82,19.03-30.46,33.33
	c24.44,22.17,64.86,22.97,90.94-0.21c-2.66-4.28-5.04-8.6-7.89-12.6C349.77,332.76,342.05,326.06,333.11,320.74z"/>
<path class="st0" d="M56.48,313.56c-13.03-18.57-6.58-36.59,3.21-45.61c11.51-10.62,28.96-11.97,41.67-3
	c6.49,4.58,10.83,10.69,13.02,18.37c3.17,11.08,0.34,20.96-6.13,30.18c11.95,8.35,21.31,18.65,28.26,31.47
	c21.49-25.07,22.63-67.84-6.46-95.17c-28.41-26.69-73.25-24.89-99.67,4.1c-26.4,28.97-21.62,69.85-2.19,91.19
	C35.06,332.26,44.55,321.77,56.48,313.56z"/>
<path class="st1" d="M399,288.07c-3.38-22.03-14.49-39.8-32.39-53.24c-2.55-1.91-5.11-2.57-7.85-0.57
	c-3.61,2.63-3.12,6.96,1.17,10.37c21.25,16.88,30.7,38.79,27.58,65.79c-1.49,12.91-6.69,24.4-15.16,34.78l-8.64,8.64
	c-26.07,23.17-66.49,22.38-90.94,0.21l-9.33-9.44c-0.3-0.34-0.93-0.97-1.45-1.68c-10.64-14.54-15.31-30.72-13.63-48.74
	c3.91-41.88,43.97-70.93,85.07-61.61c2.4,0.54,4.76,1.34,7.18,1.73c3.47,0.56,5.93-1.05,6.79-4.39c0.84-3.23-0.77-5.52-3.71-6.88
	c-0.82-0.38-1.71-0.62-2.59-0.85c-28.12-7.48-53.5-2.11-76.04,16.32c-4.61,3.77-8.94,7.88-13.82,12.21
	c-13.72-8.85-28.57-18.4-43.33-28.08c-0.92-0.61-1.54-2.31-1.57-3.53c-0.16-5.85-0.07-11.71-0.07-17.56c0-8.31,0-16.61,0-25.11
	c3.11-0.49,5.91-0.91,8.7-1.38c43.56-7.37,74.11-51,66.15-94.44c-8.73-47.62-54.7-77.53-101.36-65.36
	c-8.63,2.25-16.69,6.93-24.78,10.96c-4.14,2.06-4.94,5.62-2.99,8.72c2.01,3.21,5.43,3.59,9.55,1.06c0.33-0.2,0.65-0.42,0.98-0.63
	c15.15-9.54,31.62-12.94,49.25-10.13c51.27,8.2,75.99,69.15,44.97,110.7c-0.65,0.87-1.44,1.62-1.88,2.11
	c-0.02-0.03-0.04-0.05-0.06-0.08l-9.05,9.44c-24.69,22.44-65.62,22.92-90.81,0.18l-9.05-8.8c-13.97-18.23-18.66-38-14.02-59.9
	c2.08-9.8,6.33-18.65,12.36-26.65c1.82-2.41,2.51-5.3,0.37-7.48c-1.4-1.42-4.06-2.32-6.07-2.18c-1.54,0.1-3.3,1.94-4.37,3.43
	c-13.93,19.35-18.59,40.79-14.37,64.26c6.1,33.97,36.59,62.26,70.95,65.47c2.97,0.28,3.61,1.44,3.57,4.14
	c-0.13,9.89-0.74,19.84,0.15,29.65c0.83,9.04-2.08,14.34-10.09,18.81c-12.56,7.01-24.34,15.4-36.58,23.3
	c-0.81-0.94-1.48-1.7-2.13-2.47c-14.91-17.57-33.67-27.74-56.76-29.72c-38.76-3.33-74.9,21.63-85.43,59.14
	c-1.25,4.46-2.11,9.03-3.15,13.55c0,5.99,0,11.97,0,17.96c0.26,0.71,0.65,1.41,0.75,2.14c4.39,32.48,28.18,59.59,59.71,68.01
	c6.1,1.63,9.43,0.65,10.55-3.11c1.24-4.15-1-6.7-7.31-8.39c-10.06-2.68-19.05-7.39-27.08-14.27l-8.73-9.38
	c-19.42-21.34-24.21-62.22,2.19-91.19c26.43-28.99,71.26-30.79,99.67-4.1c29.09,27.33,27.96,70.1,6.46,95.17l-8.76,9.24
	c-0.97,0.84-1.71,1.56-2.52,2.19c-10.61,8.29-22.72,12.85-36.02,14.55c-4,0.51-6.27,3.13-5.95,6.35c0.34,3.48,3.13,5.66,7.3,5.29
	c3.22-0.28,6.43-0.87,9.6-1.53c42.22-8.85,71.07-52.07,62.62-94.29c-1.71-8.55-4.97-16.79-7.66-25.64
	c-0.28,0.25,0.06-0.14,0.48-0.41c14.19-9.17,28.43-18.27,42.54-27.56c2.07-1.36,3.27-0.53,4.8,0.46
	c13.53,8.76,27.07,17.51,40.59,26.27c0.83,0.54,1.59,1.19,2.43,1.83c-0.45,0.94-0.77,1.63-1.11,2.32
	c-8.17,16.63-10.63,34.01-7.28,52.29c8.26,45.24,54.57,75.35,99.23,64.4C378.94,370.41,405.59,331.07,399,288.07z"/>
<path class="st2" d="M303.22,320.71c3.04-1.78,5.58-3.9,4.44-7.67c-0.54-1.8-2.29-3.36-3.76-4.74c-6.13-5.75-8.41-12.83-6.61-20.88
	c1.78-7.94,6.88-13.26,14.75-15.65c9.29-2.83,19.26,1.07,24.32,9.36c4.92,8.07,3.85,18.69-2.6,25.62c-0.62,0.66-1.3,1.27-1.98,1.88
	c-5.32,4.76-4.93,8.38,1.34,12.11c8.94,5.32,16.66,12.02,22.7,20.49c2.85,3.99,5.23,8.32,7.89,12.6l8.64-8.64
	c-7.02-13.06-16.58-23.44-28.35-31.73c12.97-18.25,6.85-36.59-3.69-45.92c-12.23-10.83-30.06-11.42-42.66-1.51
	c-14.43,11.36-16.35,27.43-5.86,47.07c-5.22,4.82-10.74,9.23-15.39,14.41c-4.75,5.28-8.65,11.32-12.96,17.08l9.33,9.44
	C279.4,339.74,289.62,328.67,303.22,320.71z"/>
<path class="st2" d="M184.62,114.63c1.54-0.93,3.2-1.88,4.32-3.23c2.22-2.68,1.26-6.09-2.21-9.04c-10.02-8.52-10.6-23.06-1.3-32.01
	c8.38-8.06,21.66-7.95,29.89,0.24c8.16,8.13,8.35,21.58,0.4,29.92c-0.81,0.84-1.71,1.59-2.58,2.37c-4.13,3.69-3.82,7.89,1.03,10.72
	c10.03,5.85,18.58,13.32,25.1,22.96c2.37,3.51,4.36,7.28,6.47,10.84l9.05-9.44c-4.35-5.8-8.17-11.7-12.82-16.85
	c-4.75-5.26-10.33-9.78-15.57-14.65c10.78-15.84,9.25-33.5-4.11-45.55c-12.2-11-30.99-11.21-43.57-0.49
	c-11.88,10.11-17,29.26-4.31,46.59c-11.89,8.2-21.32,18.72-28.52,31.78l9.05,8.8C161.4,133.55,171.37,122.64,184.62,114.63z"/>
<path class="st2" d="M108.25,313.5c6.47-9.22,9.3-19.1,6.13-30.18c-2.2-7.68-6.54-13.79-13.02-18.37c-12.71-8.97-30.16-7.63-41.67,3
	c-9.79,9.03-16.24,27.04-3.21,45.61c-11.93,8.21-21.42,18.7-28.3,31.53l8.73,9.38c3.74-8.46,8.68-15.93,15.38-21.99
	c4.79-4.33,10.05-8.21,15.42-11.84c5.56-3.76,6.15-7.35,1.24-11.75c-0.68-0.61-1.36-1.21-1.99-1.87
	c-8.04-8.35-7.91-21.71,0.28-29.91c8.19-8.2,21.55-8.35,29.91-0.33c9.29,8.91,8.71,23.25-1.28,32.02c-4.98,4.37-4.6,8.24,1.1,11.67
	c1.78,1.07,3.55,2.18,5.25,3.36c11.24,7.78,19.78,17.81,25.53,30.36l8.76-9.24C129.56,332.15,120.2,321.86,108.25,313.5z"/>
</svg>
