<?xml version="1.0" encoding="utf-8"?>
<!-- Generator: Adobe Illustrator 26.3.1, SVG Export Plug-In . SVG Version: 6.00 Build 0)  -->
<svg version="1.1" id="레이어_1" xmlns="http://www.w3.org/2000/svg" xmlns:xlink="http://www.w3.org/1999/xlink" x="0px"
	 y="0px" viewBox="0 0 400 400" style="enable-background:new 0 0 400 400;" xml:space="preserve">
<style type="text/css">
	.st0{fill:none;}
	.st1{fill:#666666;}
	.st2{fill:#1A4A9E;}
</style>
<path class="st0" d="M196.37,287.66c3.65-0.88,8.4,2.58,10.94-1.98c2.12-3.8,3.24-8.16,4.9-12.49c-8.51,0-16.57,0-24.87,0
	c1.69,4.41,3.35,8.37,4.71,12.42C192.85,288.01,194.65,288.08,196.37,287.66z"/>
<path class="st0" d="M124.95,203.17c-0.16,6.27,4.28,12.4,9.86,13.27c0-8.64,0-17.03,0-25.51
	C129,192.25,125.09,197.17,124.95,203.17z"/>
<path class="st0" d="M264.5,191.16c0,8.34,0,16.65,0.01,24.97c0,0.09,0.14,0.18,0.22,0.28c6.37-1.78,10.49-7.63,9.82-13.95
	C273.9,196.32,269.8,191.54,264.5,191.16z"/>
<path class="st0" d="M211.53,330.97c-1.91-10.42-3.83-20.83-5.76-31.32c-4.07,0-7.81,0-11.97,0c-2.74,14.93-5.44,29.58-8.07,44.24
	c-0.22,1.2-0.43,2.99,0.22,3.67c4.54,4.74,9.3,9.25,14.05,13.89c3.4-3.41,6.4-6.88,9.88-9.78c3.74-3.11,4.95-6.45,3.41-11.15
	C212.28,337.47,212.11,334.15,211.53,330.97z"/>
<path class="st0" d="M250.87,222c3.38-11.76,1.73-23.8,2.01-35.73c0.02-0.93-0.79-1.88-1.22-2.81c-3.2-6.96-6.61-13.83-9.53-20.91
	c-2.51-6.09-4.45-12.41-6.71-18.81c-23.82,8.66-47.51,8.64-71.24,0c-0.39,0.8-0.69,1.37-0.93,1.95
	c-5.33,12.95-10.65,25.9-15.97,38.86c-0.29,0.71-0.67,1.47-0.65,2.19c0.26,10.27-0.54,20.73,1.12,30.77
	c4.05,24.37,25.07,42.1,49.52,43.13C222.31,261.7,243.94,246.08,250.87,222z M222.62,188.79c0.23-3.23,2.46-5.12,5.82-5.08
	c3.32,0.04,5.42,1.82,5.71,5.16c0.23,2.58,0.05,5.19,0.05,7.79c0.01,0,0.02,0,0.03,0c0,2.08,0.1,4.17-0.02,6.24
	c-0.2,3.33-2.6,5.72-5.66,5.81c-3.03,0.09-5.85-2.28-5.98-5.5C222.38,198.4,222.28,193.57,222.62,188.79z M177.03,202.91
	c-0.22,3.45-2.94,5.94-6.11,5.79c-3.07-0.14-5.46-2.52-5.55-5.89c-0.13-4.55-0.15-9.1,0.02-13.65c0.12-3.4,2.56-5.52,5.83-5.49
	c3.2,0.03,5.6,2.24,5.81,5.59c0.15,2.33,0.03,4.68,0.03,7.02C177.06,198.49,177.18,200.71,177.03,202.91z M182.39,230.28
	c-2.35-3.65-1.81-7.36,1.19-9.27c3.02-1.93,5.9-1.08,8.57,2.51c3.7,4.98,11.66,4.88,15.39-0.19c2.56-3.47,5.64-4.26,8.63-2.19
	c2.69,1.86,3.33,5.4,1.32,8.68c-4.05,6.64-10.44,8.96-17.8,9.32C192.61,238.72,186.42,236.56,182.39,230.28z"/>
<path class="st1" d="M11.62,388.39c-0.04-0.79-0.11-1.31-0.09-1.82c0.78-18.02,3.09-35.76,9.58-52.75c1.62-4.23,0.31-7.38-3.22-8.72
	c-3.26-1.24-6.64,0.33-7.78,4.43c-2.92,10.49-5.7,21.04-8.05,31.67c-1.31,5.93-1.66,12.08-2.45,18.13c0,5.74,0,11.47,0,17.21
	c1.85,3.19,4.65,3.96,8.23,3.96c30.63-0.05,61.25-0.06,91.88-0.06l-0.17-12.03C69.9,388.39,40.79,388.39,11.62,388.39z"/>
<path class="st1" d="M103.27,286.23c18.16-20.34,11.99-44.49-0.28-56.58c-14.45-14.24-37.56-16.39-54.11-4.71
	c-8.19,5.78-13.85,13.45-16.18,23.19c-3.45,14.45,0.37,27.21,9.68,37.29c-6.52,6.74-12.81,12.92-18.71,19.45
	c-3.39,3.75-3.07,7.57,0.03,9.85c3.04,2.24,6.2,1.39,9.24-2.62c5.92-7.79,12.86-14.57,21.82-18.53c6.31-2.79,6.6-9.25,0.84-12.81
	c-7.74-4.79-11.84-12.4-12.2-21.57c-0.55-13.87,8.85-25.89,22.4-29.12c14.11-3.36,28.78,3.56,34.57,16.31
	c5.73,12.61,1.64,26.37-10.41,35.05c-5.42,3.9-4.91,8.37,0.87,11.79c4.9,2.89,9.44,6.4,14.13,9.65c2.01,1.39,2.21,2.89,1.14,5.26
	l6.45-14.56C109.95,291.52,106.61,288.87,103.27,286.23z"/>
<path class="st1" d="M399.86,392.08c-1.04-13.6-1.74-27.31-4.08-40.71c-3.34-19.08-10.59-36.78-23.8-51.4
	c-4.58-5.07-9.96-9.41-14.98-14.1c18.22-20.6,11.22-45.01-1.19-56.79c-14.69-13.95-37.69-15.66-54.19-3.68
	c-7.88,5.72-13.3,13.27-15.55,22.72c-3.43,14.43,0.33,27.2,10.38,38.02c-3.73,2.93-7.06,5.54-10.55,8.27l7.57,13.78
	c-1.04-2.33-0.96-3.86,1.08-5.28c4.57-3.2,8.96-6.72,13.76-9.52c6.33-3.69,6.87-7.94,1.01-12.15c-11.89-8.54-15.87-22.56-9.98-35.16
	c5.93-12.69,20.81-19.5,34.75-15.91c13.91,3.58,23.31,16.23,22.04,30.14c-0.85,9.26-5.64,16.26-13.29,21.5
	c-4.72,3.23-4.48,8.31,0.6,10.85c16.08,8.05,26.42,21.18,33.4,37.3c8.04,18.56,10.6,38.19,11.17,58.51c-29.5,0-58.51,0-87.99,0
	v11.95c30.57,0,61.13,0,91.7,0C398.32,400.42,400.36,398.72,399.86,392.08z"/>
<path class="st2" d="M300.02,366.88c0-1.69,0.06-3.39-0.07-5.08c-0.26-3.5-2.9-5.98-6.07-5.82c-3.19,0.16-5.61,2.69-5.66,6.31
	c-0.1,7.3-0.03,14.6-0.04,21.9c0,1.3,0,2.59,0,4.19c-8.32,0-16.45,0-25.07,0c-0.07-1.25-0.2-2.62-0.2-3.98
	c-0.02-10.82-0.01-21.64-0.01-32.45c0-0.91,0.04-1.83-0.02-2.74c-0.28-3.92-2.61-6.48-5.91-6.54c-3.44-0.07-6.05,2.59-6.1,6.72
	c-0.12,8.99-0.04,17.99-0.05,26.98c0,3.9,0,7.81,0,12.02c-34.02,0-67.8,0-102.09,0c0-2.35,0-4.65,0-6.96
	c0-10.69,0.07-21.38-0.05-32.06c-0.05-4.12-2.69-6.78-6.13-6.69c-3.3,0.08-5.62,2.65-5.89,6.57c-0.06,0.91-0.02,1.82-0.02,2.74
	c0,10.69,0,21.38,0,32.06c0,1.4,0,2.8,0,4.43c-8.54,0-16.67,0-25.07,0c-0.07-1.24-0.19-2.37-0.19-3.5c-0.01-15.25-0.05-30.5,0-45.75
	c0.12-33.91,26.13-62.66,59.79-66.21c2.21-0.23,3.85,0.05,4.31,2.56c0.02,0.13,0.07,0.25,0.11,0.37c7.5,18.85,7.43,18.83,2.78,42.01
	c-1.92,9.56-3.44,19.19-5.25,28.77c-0.57,3,0.24,5.26,2.38,7.38c6.38,6.33,12.62,12.81,18.97,19.18c3.91,3.92,6.7,3.9,10.67-0.07
	c5.99-5.99,11.77-12.2,17.92-18.02c3.11-2.95,3.98-6.04,3.2-10.13c-3.06-16.09-5.96-32.22-8.88-48.33c-0.2-1.12-0.49-2.43-0.12-3.42
	c2.35-6.34,4.77-12.65,7.44-18.86c0.35-0.82,2.26-1.46,3.38-1.38c27.67,2.17,52.81,24.47,58.46,51.92c0.91,4.44,1.26,9.01,1.6,13.54
	c0.33,4.33,2.65,7.17,6.2,7.02c3.45-0.14,5.61-2.86,5.63-7.06c0.04-10.57-2.2-20.68-6.5-30.28l-7.57-13.78
	c-12.57-17.18-29.08-27.93-49.79-32.3c0.41-0.6,0.51-0.87,0.71-1.01c10.71-7.75,18.67-17.64,23.62-29.96
	c0.38-0.95,1.97-1.85,3.11-1.99c15.76-2.05,25.81-16.56,22.21-32.06c-0.42-1.8-0.44-3.84-0.06-5.65
	c3.25-15.47,5.33-31.01,4.04-46.89c-1.75-21.63-9.25-40.73-24.4-56.49c-1.82-1.89-2.11-3.38-1.35-5.76
	c4.29-13.5,8.48-27.03,12.59-40.58c1.79-5.92,0.38-11.08-4.46-15.1c-4.52-3.75-10.09-4.13-15.67-0.97
	c-6.76,3.82-13.44,7.78-20.26,11.74c-7.44-9.38-14.47-18.59-21.91-27.47c-3.08-3.68-7.02-6.64-10.58-9.93c-2.61,0-5.21,0-7.82,0
	c-2.5,1.96-5.23,3.7-7.44,5.95c-2.45,2.5-4.41,5.47-6.6,8.22c-6.13,7.71-12.27,15.42-18.49,23.24c-6.73-3.94-12.97-7.99-19.59-11.28
	c-3.08-1.53-7.04-2.6-10.34-2.1c-8.41,1.26-12.94,9.34-10.43,17.71c4.07,13.56,8.29,27.08,12.59,40.58c0.76,2.38,0.5,3.9-1.35,5.77
	c-7.13,7.18-12.64,15.51-16.68,24.81c-9.61,22.11-9.53,44.99-5.75,68.24c0.92,5.66,3.47,11.06,1.97,17.16
	c-2.87,11.68,3.31,23.69,14.43,28.56c3.43,1.5,7.96,1.48,10.48,3.79c2.76,2.54,3.6,7.09,5.59,10.58
	c4.72,8.27,11.4,14.78,19.75,20.82c-10.69,2.21-20.39,5.44-28.5,11.6c-8,6.07-15.22,13.16-22.94,19.94l-6.45,14.56
	c-4.14,9.23-6.45,18.93-6.48,29.1c-0.05,15.64-0.06,31.28-0.08,46.92c0,1.39,0,2.77,0,4.21l0.17,12.03c25.54,0,51.07,0,76.61,0
	c41.23,0,82.46,0,123.7,0v-11.95C300.02,381.14,300.03,374.01,300.02,366.88z M209.87,351.67c-3.48,2.9-6.48,6.37-9.88,9.78
	c-4.75-4.64-9.52-9.16-14.05-13.89c-0.65-0.68-0.43-2.47-0.22-3.67c2.63-14.66,5.33-29.31,8.07-44.24c4.16,0,7.9,0,11.97,0
	c1.93,10.49,3.86,20.9,5.76,31.32c0.58,3.19,0.75,6.51,1.75,9.55C214.82,345.22,213.61,348.56,209.87,351.67z M187.34,273.18
	c8.3,0,16.35,0,24.87,0c-1.65,4.34-2.78,8.69-4.9,12.49c-2.55,4.57-7.29,1.1-10.94,1.98c-1.72,0.42-3.52,0.35-4.32-2.05
	C190.68,281.55,189.03,277.6,187.34,273.18z M264.73,216.41c-0.08-0.09-0.22-0.18-0.22-0.28c-0.01-8.31-0.01-16.63-0.01-24.97
	c5.3,0.38,9.4,5.16,10.05,11.29C275.22,208.78,271.11,214.63,264.73,216.41z M134.81,216.43c-5.58-0.87-10.02-7-9.86-13.27
	c0.15-6,4.06-10.91,9.86-12.24C134.81,199.4,134.81,207.79,134.81,216.43z M138.72,175.04c-0.57,1.42-2.61,2.55-4.22,3.2
	c-3.33,1.35-6.83,2.29-10.49,3.47c-4.18-23.83-4.89-47.5,7.3-69.7c3.1-5.64,7.61-10.5,11.45-15.73c1.8-2.45,4.21-2.96,7.15-2.94
	c16.94,0.12,33.88,0.06,50.82,0.05c1.43,0,2.88,0,4.28-0.22c3.11-0.5,4.82-2.38,4.94-5.57c0.12-3.23-1.66-5.13-4.6-5.93
	c-1.22-0.33-2.58-0.23-3.88-0.23c-16.81-0.01-33.62-0.06-50.43,0.05c-2.45,0.02-3.68-0.57-4.42-3.03
	c-3.84-12.82-7.87-25.59-11.75-38.4c-0.37-1.22-0.1-2.64-0.12-3.96c1.43,0.29,3.04,0.25,4.24,0.93c6.8,3.83,13.51,7.84,20.24,11.79
	c5.96,3.5,7.79,3.17,12.15-2.34c8.42-10.62,16.81-21.25,25.23-31.87c2.94-3.71,3.36-3.71,6.3-0.01
	c8.5,10.72,16.97,21.46,25.47,32.17c4.05,5.11,5.98,5.49,11.56,2.25c6.86-3.99,13.66-8.09,20.57-11.99
	c1.21-0.68,2.82-0.64,4.24-0.93c-0.02,1.32,0.26,2.74-0.11,3.96c-3.87,12.81-7.91,25.57-11.75,38.39c-0.73,2.45-1.93,3.12-4.41,3.05
	c-6.51-0.19-13.03-0.1-19.55-0.05c-4.48,0.04-7.2,2.33-7.23,5.95c-0.03,3.58,2.63,5.92,7.17,5.98c7.17,0.1,14.34-0.16,21.5,0.15
	c2.07,0.09,4.58,1.11,6.03,2.56c13.67,13.73,20.1,30.76,21.48,49.78c0.88,12.08,0.1,24.14-2.48,35.66
	c-4.05-1.16-8.06-2.14-11.93-3.51c-1.13-0.4-2.27-1.75-2.74-2.93c-5.01-12.81-10.07-25.6-14.72-38.54
	c-2.37-6.6-4.38-7.92-10.92-5.29c-23.58,9.47-47.14,9.4-70.71,0c-6.58-2.62-8.52-1.33-10.91,5.29
	C148.85,149.46,143.84,162.28,138.72,175.04z M147.76,217.51c-1.67-10.04-0.86-20.5-1.12-30.77c-0.02-0.73,0.36-1.49,0.65-2.19
	c5.31-12.96,10.64-25.91,15.97-38.86c0.24-0.59,0.55-1.15,0.93-1.95c23.73,8.64,47.41,8.66,71.24,0c2.26,6.4,4.2,12.73,6.71,18.81
	c2.92,7.08,6.33,13.95,9.53,20.91c0.43,0.94,1.24,1.89,1.22,2.81c-0.29,11.93,1.37,23.97-2.01,35.73
	c-6.93,24.08-28.57,39.7-53.59,38.64C172.83,259.61,151.81,241.89,147.76,217.51z"/>
<path class="st2" d="M217.49,229.82c2-3.28,1.36-6.83-1.32-8.68c-2.99-2.07-6.07-1.28-8.63,2.19c-3.74,5.07-11.7,5.17-15.39,0.19
	c-2.66-3.59-5.54-4.43-8.57-2.51c-3,1.91-3.54,5.62-1.19,9.27c4.03,6.28,10.22,8.44,17.3,8.86
	C207.05,238.78,213.44,236.46,217.49,229.82z"/>
<path class="st2" d="M177.03,189.26c-0.21-3.35-2.61-5.56-5.81-5.59c-3.27-0.03-5.7,2.09-5.83,5.49c-0.17,4.54-0.15,9.1-0.02,13.65
	c0.09,3.37,2.49,5.75,5.55,5.89c3.17,0.15,5.88-2.34,6.11-5.79c0.14-2.2,0.03-4.42,0.03-6.63
	C177.06,193.94,177.18,191.59,177.03,189.26z"/>
<path class="st2" d="M228.54,208.7c3.06-0.09,5.46-2.48,5.66-5.81c0.12-2.07,0.02-4.16,0.02-6.24c-0.01,0-0.02,0-0.03,0
	c0-2.6,0.18-5.21-0.05-7.79c-0.3-3.34-2.39-5.12-5.71-5.16c-3.36-0.04-5.59,1.85-5.82,5.08c-0.34,4.79-0.24,9.62-0.05,14.42
	C222.69,206.42,225.52,208.79,228.54,208.7z"/>
</svg>
