<?xml version="1.0" encoding="utf-8"?>
<!-- Generator: Adobe Illustrator 26.3.1, SVG Export Plug-In . SVG Version: 6.00 Build 0)  -->
<svg version="1.1" id="레이어_1" xmlns="http://www.w3.org/2000/svg" xmlns:xlink="http://www.w3.org/1999/xlink" x="0px"
	 y="0px" viewBox="0 0 400 400" style="enable-background:new 0 0 400 400;" xml:space="preserve">
<style type="text/css">
	.st0{fill:none;}
	.st1{fill:#1A4A9E;}
	.st2{fill:#666666;}
</style>
<path class="st0" d="M197.66,278.94c27.18,0.7,48.15-19.24,48.68-46.41c0.17-8.98-0.29-17.98,0.15-26.93
	c0.3-6.15-0.94-10.42-6.64-14.11c-8.72-5.65-14.52-14.35-19.27-23.09c-6.94,4.51-13.24,9.14-20.03,12.89
	c-13.52,7.47-28.2,11.81-43.3,14.8c-2.13,0.42-3.83,0.71-3.77,3.73c0.24,12.23-0.19,24.48,0.36,36.69
	C154.84,258.86,175.25,278.37,197.66,278.94z M219.58,215.84c0.14-3.18,2.98-5.7,5.99-5.38c3.15,0.33,5.34,2.02,5.59,5.4
	c0.16,2.19,0.03,4.4,0.03,6.6c0,2.07,0.13,4.15-0.03,6.21c-0.26,3.38-2.47,5.06-5.61,5.38c-3,0.31-5.83-2.22-5.97-5.4
	C219.4,224.39,219.4,220.11,219.58,215.84z M185.02,243.63c3.01-2.01,5.92-1.11,8.8,2.73c2.82,3.76,9.43,3.78,12.26,0.04
	c3.02-3.99,6.09-4.85,9.11-2.57c2.92,2.21,3.11,5.95,0.36,9.72c-3.83,5.25-9.21,7.36-13.69,7.42c-8.4,0-13.84-2.27-17.67-7.71
	C181.54,249.49,181.95,245.68,185.02,243.63z M168.78,215.98c0.22-3.23,2.83-5.62,5.86-5.57c3.04,0.04,5.63,2.46,5.74,5.71
	c0.14,4.14,0.15,8.29-0.01,12.43c-0.13,3.21-2.84,5.61-5.87,5.57c-3.06-0.04-5.53-2.42-5.74-5.7c-0.13-2.06-0.02-4.14-0.02-6.21
	C168.75,220.12,168.63,218.04,168.78,215.98z"/>
<path class="st0" d="M134.3,229.58c0.21,4.58,2.92,8.12,7.1,9.62c0-6.91,0-13.65,0-20.66C136.22,221.02,134.07,224.58,134.3,229.58z
	"/>
<path class="st0" d="M265.65,229.05c0.06-4.82-2.23-8.32-7.35-10.47c0,7.22,0,13.98,0,20.75
	C263.06,237.43,265.6,233.87,265.65,229.05z"/>
<path class="st0" d="M271.15,300.8c2.02,4.09,4.52,7.67,7.35,10.9C275.01,306.39,271.15,300.8,271.15,300.8z"/>
<path class="st0" d="M124.78,306.85c1.4-1.85,2.89-3.64,4.39-5.52c0,0-9.15,9.7-11.41,14.76
	C120.7,313.77,122.44,309.94,124.78,306.85z"/>
<path class="st0" d="M289.36,336.51C289.19,336.41,289,336.4,289.36,336.51L289.36,336.51z"/>
<path class="st0" d="M122.72,388.11c6.7,0,13.43,0,20.61,0c0-1.72,0-3.24,0-4.76c0.01-8.46-0.08-16.93,0.08-25.39
	c0.07-3.97,2.57-6.37,5.96-6.34c3.39,0.04,5.73,2.51,5.94,6.43c0.1,1.82,0.03,3.64,0.03,5.47c0,8.15,0,16.31,0,24.58
	c29.95,0,59.43,0,89.28,0c0-1.6,0-3,0-4.4c0-8.46-0.06-16.92,0.03-25.39c0.05-4.16,2.51-6.72,6.05-6.69
	c3.38,0.03,5.76,2.44,5.86,6.46c0.16,6.38,0.06,12.76,0.06,19.14c0,3.59,0,7.18,0,10.91c7.27,0,13.99,0,20.85,0
	c0.13-0.76,0.32-1.39,0.32-2.01c0-12.63,0.4-25.27-0.13-37.88c-1.22-29.24-20.31-51.1-48.85-56.59c-5.69-1.1-5.72-1.08-7.84,4.41
	c-1.03,2.66-1.89,5.41-3.14,7.97c-1.75,3.57-1.75,7.06-0.98,10.92c2.57,12.99,4.75,26.06,7.24,39.07c0.78,4.09-0.13,7.18-3.26,10.1
	c-5.43,5.05-10.47,10.52-15.73,15.75c-3.75,3.72-6.54,3.68-10.33-0.11c-5.53-5.52-10.94-11.15-16.52-16.61
	c-2.25-2.21-3.13-4.56-2.53-7.7c1.83-9.57,3.17-19.24,5.34-28.72c2.52-11,3.47-21.53-2.38-31.98c-1.68-3-3.12-3.73-6.13-3.36
	c-23.7,2.88-45.8,22.71-48.86,46.57c-2.09,16.28-1.05,32.96-1.39,49.46C122.28,387.63,122.55,387.85,122.72,388.11z"/>
<path class="st0" d="M188.91,356.95c3.58,3.73,7.29,7.32,11.16,11.16c3.24-3.26,6.18-6.56,9.48-9.43c2.32-2.02,2.58-4.18,2.05-6.91
	c-1.1-5.6-2.04-11.22-3.09-16.83c-1.25-6.7-2.55-13.39-3.81-19.96c-3.45,0-6.38,0-9.57,0c-2.37,13.19-4.73,26.19-6.99,39.21
	C187.98,355.06,188.31,356.33,188.91,356.95z"/>
<path class="st0" d="M203.58,302.64c0.89-0.09,2.21-0.59,2.5-1.27c1.47-3.35,2.66-6.82,4.01-10.42c-6.98,0-13.4,0-20.15,0
	c0.53,1.56,0.94,2.89,1.43,4.18C194.57,303.55,194.58,303.57,203.58,302.64z"/>
<path d="M289.36,336.51c0.01,0.01,0.03,0.02,0.04,0.03c0.04,0.03,0.08,0.06,0.11,0.08c0-0.02,0-0.04,0-0.06
	C289.45,336.54,289.4,336.52,289.36,336.51z"/>
<path class="st1" d="M399.92,188.4c-0.04-9.53-6.22-16.63-15.55-18.01c-8.35-1.24-16.67-2.72-25.05-3.7
	c-2.7-0.32-3.23-1.64-3.93-3.75c-3.19-9.73-6.15-19.56-10-29.03c-2.91-7.15-7.04-13.81-10.72-20.87c5.4-7.33,10.92-14.73,16.34-22.2
	c6.17-8.52,5.49-17.09-1.91-24.63c-5.11-5.2-10.26-10.36-15.47-15.46c-7.5-7.35-16.05-7.94-24.63-1.7
	c-6.63,4.82-13.28,9.62-19.75,14.64c-1.98,1.53-3.3,1.41-5.44,0.3c-8.98-4.66-17.92-9.46-27.23-13.38
	c-7.35-3.09-15.21-4.98-22.9-7.42c-0.88-6.05-1.89-12.08-2.6-18.13C229.85,14.5,228.36,4.19,216.38,0c-10.94,0-21.87,0-32.81,0
	c-12.18,4.26-13.5,14.78-14.75,25.41c-0.62,5.28-1.42,10.56-2.43,15.78c-0.22,1.15-1.51,2.75-2.57,3
	c-17.24,3.99-33.34,10.71-48.29,20.12c-1.84,1.16-2.94,0.72-4.43-0.39c-6.66-4.99-13.35-9.93-20.08-14.83
	c-8.73-6.35-17.25-5.71-24.9,1.84c-5.19,5.12-10.35,10.26-15.45,15.46c-7.2,7.34-7.85,16-1.82,24.32
	c4.96,6.84,9.97,13.65,15.09,20.38c1.32,1.73,1.32,2.96,0.17,4.79c-9.27,14.74-15.91,30.6-19.71,47.62c-0.45,2.01-1.3,2.9-3.57,3.16
	c-6.96,0.8-13.85,2.31-20.82,2.96c-9.47,0.88-16.5,4.81-20.01,14c0,10.94,0,21.88,0,32.81c3.01,6.88,7.47,12.04,15.41,13.2
	c8.48,1.24,16.94,2.7,25.44,3.76c2.29,0.28,3.1,1.2,3.55,3.19c3.8,17.03,10.47,32.89,19.74,47.64c1.18,1.88,1.03,3.09-0.25,4.78
	c-5.03,6.63-9.96,13.35-14.86,20.08c-6.33,8.69-5.64,17.22,1.97,24.91c4.49,4.53,9.01,9.03,13.53,13.54
	c9.75,9.72,17.4,10.24,28.49,1.97c6.02-4.49,12.06-8.95,17.23-12.78c2.42-8.62,5.24-15.54,7.51-20.6
	c-11.14,8.76-22.64,17.08-34.06,25.49c-3.37,2.48-5.97,2.21-9-0.77c-5.1-5.02-10.16-10.09-15.2-15.18
	c-3.48-3.51-3.63-5.88-0.66-9.92c5.94-8.07,11.84-16.17,17.89-24.15c2.38-3.14,2.5-5.97,0.28-9.25
	c-11.09-16.34-18.38-34.29-22.26-53.63c-0.74-3.7-2.6-5.62-6.4-6.15c-9.91-1.38-19.78-3.02-29.67-4.48
	c-5.11-0.75-6.91-2.56-6.95-7.57c-0.05-7.03-0.06-14.06,0-21.09c0.04-4.83,1.86-6.68,6.7-7.4c9.89-1.47,19.76-3.11,29.67-4.46
	c3.95-0.54,5.91-2.46,6.68-6.34c3.84-19.21,11.07-37.05,22.09-53.27c2.44-3.6,2.1-6.54-0.47-9.89C70.49,100.27,64.78,92.35,59,84.49
	c-3.15-4.28-3.03-6.55,0.61-10.22c4.86-4.9,9.74-9.78,14.64-14.64c3.68-3.65,5.95-3.8,10.22-0.66c7.97,5.86,15.96,11.68,23.83,17.66
	c3.09,2.35,5.92,2.75,9.24,0.5c16.44-11.17,34.5-18.52,53.97-22.41c3.52-0.7,5.4-2.55,5.92-6.17c1.42-10.03,3.05-20.04,4.54-30.06
	c0.74-4.99,2.6-6.74,7.75-6.77c6.9-0.04,13.8-0.05,20.7,0c5.04,0.04,6.87,1.85,7.61,6.92c1.43,9.77,3.08,19.51,4.4,29.29
	c0.55,4.1,2.5,6.11,6.56,6.92c19.21,3.83,37.03,11.12,53.24,22.15c3.45,2.35,6.34,2.01,9.57-0.45c7.76-5.91,15.68-11.62,23.53-17.41
	c4.5-3.32,6.66-3.22,10.51,0.6c4.8,4.77,9.59,9.56,14.36,14.36c3.85,3.88,3.98,6.03,0.68,10.51c-5.86,7.96-11.67,15.97-17.65,23.84
	c-2.39,3.15-2.5,5.97-0.28,9.24c11.08,16.34,18.38,34.29,22.26,53.63c0.74,3.7,2.61,5.62,6.4,6.15c9.91,1.38,19.77,3.03,29.67,4.49
	c5.12,0.75,6.92,2.56,6.95,7.57c0.05,7.03,0.06,14.06,0,21.09c-0.04,4.8-1.89,6.69-6.71,7.4c-10.15,1.5-20.29,3.13-30.44,4.59
	c-2.94,0.42-4.85,1.91-5.58,4.68c-1.43,5.39-2.74,10.82-4,16.25c-0.87,3.8,0.79,6.89,4.01,7.8c3.18,0.9,6.3-0.94,7.42-4.63
	c1.05-3.47,1.69-7.08,2.88-10.51c0.39-1.11,1.83-2.42,2.96-2.62c8.45-1.47,16.93-2.7,25.41-3.96c9.65-1.43,15.74-8.41,15.78-18.2
	C399.95,203.76,399.95,196.08,399.92,188.4z"/>
<path class="st1" d="M289.51,336.55c0,0.02,0,0.04,0,0.06c6.67,4.91,13.29,9.88,19.99,14.73c7.93,5.74,16.74,5.12,23.74-1.69
	c5.41-5.26,10.74-10.62,16.02-16.01c7.22-7.38,7.87-16.01,1.84-24.34c-4.88-6.75-9.77-13.49-14.88-20.07
	c-1.57-2.02-1.46-3.39-0.19-5.45c2.59-4.2,4.95-8.54,7.23-12.92c2.1-4.04,1.25-7.35-2.04-9.05c-3.3-1.7-6.26-0.36-8.52,3.67
	c-3.12,5.55-6.15,11.17-9.62,16.5c-2.35,3.62-2.23,6.52,0.36,9.91c6.09,7.95,11.97,16.07,17.89,24.15c2.65,3.63,2.48,6.13-0.66,9.32
	c-5.02,5.1-10.09,10.16-15.18,15.2c-3.48,3.44-5.88,3.54-9.93,0.54c-5.86-4.34-11.61-8.81-17.57-13
	c-7.02-4.93-13.91-9.98-19.51-16.4c2.34,3.57,4.51,7.02,5.22,8.56C285.49,324.09,288.23,331.34,289.51,336.55z"/>
<path class="st1" d="M105.39,258.97c-2.39-3.77-5.82-4.78-8.84-2.86c-3.17,2.01-3.94,5.53-1.09,9.13c6.93,8.74,14,17.39,21.46,25.67
	c3.52,3.91,8.05,6.9,12.25,10.41l8.45-8.97C124.98,283.88,114.02,272.58,105.39,258.97z"/>
<path class="st1" d="M274.16,298.47c39.72-32.03,56.17-73.41,46.37-123.43c-12.27-62.65-70.68-103.69-131.79-97.79
	c-25.63,2.48-48.57,11.58-67.93,28.42c-34.89,30.33-48.92,68.83-42.43,114.59c1.01,7.15,3.39,14.12,5.44,21.09
	c1.05,3.57,4.15,5,7.32,4.07c3.34-0.98,4.87-3.98,3.93-7.76c-0.22-0.88-0.56-1.73-0.85-2.59c-5.97-18.02-7.2-36.37-3.8-55.03
	c12.7-69.58,86.26-109.96,151.6-83.21c48.9,20.01,76.94,71.15,67.42,123.31c-5.66,31.04-22.26,54.98-47.06,72.26l8.76,8.41
	C271.92,300.2,273.06,299.36,274.16,298.47z"/>
<path class="st2" d="M110.3,394.11c0.02,3.86,2.58,5.88,6.77,5.88c55.33,0.02,110.65,0.02,165.98,0c4.29,0,6.63-2.18,6.63-6.43
	c0.01-19.05-0.1-38.11-0.17-56.93c-0.04-0.03-0.08-0.06-0.11-0.08c-0.01-0.01-0.03-0.02-0.04-0.03c-0.35-0.11-0.17-0.1,0,0
	c0.04,0.01,0.09,0.03,0.15,0.05c-1.28-5.21-4.02-12.46-5.79-16.29c-0.71-1.54-2.88-4.99-5.22-8.56c-2.82-3.23-5.33-6.81-7.35-10.9
	l-8.76-8.41c-9.82-4.5-18.92-8.66-27.96-12.8c8.32-6.16,15.04-14.32,19.21-24.4c0.86-2.08,1.96-2.8,4.13-3.22
	c14.38-2.78,22.11-14.9,19.02-29.29c-0.34-1.57-0.16-3.36,0.19-4.96c3.72-16.83,6.43-33.71,4.21-51.04
	c-3.45-26.89-20.67-43.08-45.98-43.48c-1.62-0.03-3.72-1.05-4.75-2.31c-20.43-24.84-51.3-22.43-75.02-7.24
	c-2.77,1.78-3.21,4.75-1.6,7.6c1.63,2.88,4.29,3.66,7.37,2.47c1.32-0.51,2.54-1.31,3.79-2c8.69-4.76,17.91-7.81,27.89-7.55
	c12.88,0.34,22.9,6.24,30.1,16.82c2.13,3.12,4.54,4.83,8.42,4.2c1.52-0.25,3.12-0.1,4.68-0.06c15.08,0.38,26.43,8.58,30.92,22.96
	c1.57,5.03,2.35,10.4,2.83,15.67c1.07,11.72-0.81,23.23-3.05,34.74c-8.36-2.6-8.36-2.6-8.36-10.53c0-1.69,0.4-3.53-0.12-5.04
	c-0.67-1.95-1.65-4.46-3.25-5.32c-13.31-7.15-21.62-18.36-27.18-32.03c-2.31-5.67-7.31-6.41-11.18-1.72
	c-5.64,6.83-12.51,12.1-20.25,16.29c-15.26,8.26-31.74,12.73-48.72,15.69c-4.65,0.81-6.12,2.66-6.19,7.41
	c-0.05,3.38,0.09,6.78-0.08,10.15c-0.05,0.95-0.63,2.34-1.38,2.72c-2.04,1.03-4.3,1.63-6.79,2.51c-4.98-13.81-6.71-27.78-4.01-42.17
	c2.08-11.08,7.84-20.24,15.17-28.57c2.89-3.28,2.86-6.54,0.18-8.99c-2.62-2.39-6.5-2.28-8.85,1.07
	c-5.12,7.31-11.01,14.43-14.38,22.54c-8.68,20.89-6.14,41.96,1.54,62.74c0.77,2.09,0.94,4.81,0.34,6.94
	c-3.42,12.28,3.13,25.56,15.43,28.76c5.14,1.34,7.57,3.81,9.62,8.32c3.87,8.52,10.3,15.14,17.17,20.31
	c-9.1,4.17-18.24,8.36-27.87,12.77l-8.45,8.97c-1.5,1.88-2.99,3.67-4.39,5.52c-2.34,3.1-4.08,6.92-7.02,9.23
	c-2.27,5.06-5.1,11.98-7.51,20.6C110.24,355.62,110.18,374.87,110.3,394.11z M258.3,218.58c5.12,2.16,7.41,5.66,7.35,10.47
	c-0.06,4.82-2.6,8.38-7.35,10.28C258.3,232.55,258.3,225.79,258.3,218.58z M141.4,239.19c-4.18-1.49-6.89-5.03-7.1-9.62
	c-0.23-4.99,1.92-8.55,7.1-11.04C141.4,225.54,141.4,232.28,141.4,239.19z M153.84,236.51c-0.55-12.21-0.12-24.46-0.36-36.69
	c-0.06-3.02,1.64-3.31,3.77-3.73c15.1-2.99,29.78-7.33,43.3-14.8c6.79-3.75,13.09-8.39,20.03-12.89
	c4.76,8.75,10.55,17.44,19.27,23.09c5.7,3.69,6.94,7.96,6.64,14.11c-0.44,8.96,0.02,17.96-0.15,26.93
	c-0.53,27.16-21.51,47.11-48.68,46.41C175.25,278.37,154.84,258.86,153.84,236.51z M195.12,314.98c3.19,0,6.12,0,9.57,0
	c1.25,6.57,2.55,13.26,3.81,19.96c1.05,5.61,1.99,11.23,3.09,16.83c0.54,2.73,0.28,4.89-2.05,6.91c-3.3,2.87-6.24,6.17-9.48,9.43
	c-3.87-3.83-7.58-7.43-11.16-11.16c-0.59-0.62-0.93-1.89-0.78-2.76C190.39,341.17,192.75,328.17,195.12,314.98z M189.94,290.95
	c6.76,0,13.17,0,20.15,0c-1.35,3.6-2.54,7.07-4.01,10.42c-0.29,0.67-1.61,1.17-2.5,1.27c-9,0.94-9.01,0.91-12.21-7.5
	C190.87,293.84,190.47,292.52,189.94,290.95z M123.68,337.96c3.06-23.86,25.16-43.69,48.86-46.57c3.01-0.37,4.45,0.36,6.13,3.36
	c5.85,10.45,4.89,20.98,2.38,31.98c-2.17,9.48-3.51,19.15-5.34,28.72c-0.6,3.14,0.28,5.49,2.53,7.7c5.58,5.46,11,11.09,16.52,16.61
	c3.79,3.79,6.59,3.83,10.33,0.11c5.26-5.23,10.3-10.7,15.73-15.75c3.14-2.91,4.05-6.01,3.26-10.1c-2.48-13.01-4.67-26.08-7.24-39.07
	c-0.76-3.86-0.77-7.35,0.98-10.92c1.25-2.55,2.11-5.3,3.14-7.97c2.12-5.48,2.15-5.5,7.84-4.41c28.54,5.5,47.62,27.35,48.85,56.59
	c0.53,12.61,0.13,25.25,0.13,37.88c0,0.62-0.19,1.24-0.32,2.01c-6.86,0-13.58,0-20.85,0c0-3.73,0-7.32,0-10.91
	c-0.01-6.38,0.09-12.76-0.06-19.14c-0.1-4.02-2.48-6.43-5.86-6.46c-3.54-0.04-6.01,2.53-6.05,6.69c-0.09,8.46-0.03,16.92-0.03,25.39
	c0,1.4,0,2.8,0,4.4c-29.85,0-59.33,0-89.28,0c0-8.27,0-16.43,0-24.58c0-1.82,0.07-3.65-0.03-5.47c-0.21-3.91-2.55-6.39-5.94-6.43
	c-3.39-0.04-5.89,2.36-5.96,6.34c-0.16,8.46-0.07,16.92-0.08,25.39c0,1.52,0,3.04,0,4.76c-7.18,0-13.9,0-20.61,0
	c-0.17-0.26-0.43-0.48-0.43-0.69C122.63,370.92,121.59,354.24,123.68,337.96z"/>
<path class="st2" d="M201.87,260.97c4.47-0.05,9.85-2.16,13.69-7.42c2.76-3.78,2.56-7.51-0.36-9.72c-3.01-2.28-6.09-1.42-9.11,2.57
	c-2.83,3.74-9.44,3.71-12.26-0.04c-2.88-3.84-5.79-4.74-8.8-2.73c-3.08,2.05-3.49,5.87-0.83,9.64
	C188.02,258.69,193.47,260.96,201.87,260.97z"/>
<path class="st2" d="M168.77,228.41c0.2,3.28,2.68,5.66,5.74,5.7c3.03,0.04,5.74-2.36,5.87-5.57c0.16-4.14,0.15-8.29,0.01-12.43
	c-0.11-3.25-2.7-5.66-5.74-5.71c-3.03-0.04-5.63,2.35-5.86,5.57c-0.14,2.06-0.03,4.14-0.03,6.21
	C168.74,224.27,168.64,226.34,168.77,228.41z"/>
<path class="st2" d="M225.55,234.06c3.14-0.32,5.35-2,5.61-5.38c0.16-2.06,0.03-4.14,0.03-6.21c0-2.2,0.13-4.41-0.03-6.6
	c-0.25-3.38-2.44-5.07-5.59-5.4c-3.01-0.32-5.85,2.2-5.99,5.38c-0.18,4.27-0.18,8.55,0,12.82
	C219.71,231.84,222.55,234.37,225.55,234.06z"/>
</svg>
