<?xml version="1.0" encoding="utf-8"?>
<!-- Generator: Adobe Illustrator 26.3.1, SVG Export Plug-In . SVG Version: 6.00 Build 0)  -->
<svg version="1.1" id="레이어_1" xmlns="http://www.w3.org/2000/svg" xmlns:xlink="http://www.w3.org/1999/xlink" x="0px"
	 y="0px" viewBox="0 0 150 150" style="enable-background:new 0 0 150 150;" xml:space="preserve">
<style type="text/css">
	.st0{fill:#1B4895;}
</style>
<path class="st0" d="M0,128.89c0-1.86,0-3.71,0-5.57c0.09-0.27,0.23-0.54,0.28-0.82c1.58-8.75,6.56-14.69,14.8-17.94
	c0.8-0.31,1.62-0.56,2.51-0.87C9.61,97.39,6.03,89.37,8.42,79.51c2.46-10.17,9.5-15.74,19.8-17.56c0-0.53,0-1.06,0-1.58
	c0-6.1-0.04-12.21,0.03-18.31c0.02-1.28-0.34-1.87-1.58-2.28c-6.83-2.29-13.64-4.65-20.43-7.06c-0.98-0.35-2.01-0.9-2.68-1.65
	c-2.2-2.46-1.1-6.21,2.13-7.33c11.95-4.17,23.92-8.3,35.88-12.44c0.18-0.06,0.37-0.14,0.56-0.18c1.37-0.3,2.39,0.22,2.8,1.44
	c0.38,1.1-0.13,2.15-1.35,2.71c-0.44,0.2-0.91,0.35-1.37,0.51c-11.27,3.9-22.53,7.8-33.8,11.7c-0.47,0.16-0.93,0.36-1.79,0.69
	c7.41,2.56,14.38,4.98,21.43,7.42c0.09-0.36,0.16-0.58,0.21-0.81c0.64-3.37,1.94-4.67,5.33-5.26c1.87-0.32,3.75-0.62,5.63-0.92
	c10.92-1.73,21.91-2.47,32.95-2.42c11.92,0.05,23.77,1.06,35.53,3.07c4.87,0.83,5.93,1.7,6.83,6.36c7.05-2.44,14.08-4.87,21.45-7.43
	c-0.73-0.32-1.06-0.49-1.42-0.62c-20.06-6.95-40.12-13.89-60.17-20.85c-2.12-0.74-4.16-0.7-6.28,0.06
	c-4.76,1.71-9.56,3.33-14.35,4.97c-1.56,0.53-2.75-0.02-3.17-1.38c-0.39-1.24,0.25-2.27,1.83-2.82c4.78-1.67,9.58-3.28,14.35-4.99
	c3.02-1.08,5.97-1.09,9-0.04c20.23,7.02,40.48,14,60.71,21c2.7,0.93,3.68,2.34,3.69,5.28c0.02,4.59,0.02,9.18-0.01,13.77
	c-0.01,0.84,0.23,1.26,1.06,1.61c5.33,2.24,7.23,8.3,4.11,13.14c-0.5,0.77-0.47,1.33-0.14,2.11c1.47,3.5,2.89,7.03,4.28,10.56
	c1.78,4.54-1.05,8.76-5.91,8.82c-3.22,0.04-6.45-0.04-9.67,0.02c-2.29,0.04-4.51-0.03-6.31-1.93c-1.59,4.87-1.68,9.55-0.47,14.3
	c0.4,1.58,0.77,2.93,2.83,3.01c0.75,0.03,1.55,0.59,2.19,1.08c2.59,1.97,3.15,4.65,2.43,7.77c0.49,0.03,0.92,0.06,1.34,0.08
	c3.66,0.22,6.5,2.95,6.74,6.49c0.24,3.48-2.29,6.52-5.92,7.25c-0.47,0.09-1.05,0.65-1.2,1.11c-1.78,5.3-1.75,10.62-0.03,15.94
	c0.26,0.81,0.69,1.13,1.5,1.31c3.69,0.82,6.06,3.99,5.64,7.42c-0.46,3.67-3.32,6.14-7.16,6.14c-37.6,0-75.19,0.01-112.79,0
	c-9.76,0-18.44-6.3-21.5-15.58C0.7,131.8,0.39,130.33,0,128.89z M92.05,116.88c-0.7,0-1.23,0-1.75,0c-22.12,0-44.24,0-66.36,0
	c-0.44,0-0.88-0.01-1.32,0.01c-6.05,0.32-10.11,5.78-8.57,11.52c1.07,4.01,4.65,6.64,9.08,6.64c28.32,0.01,56.64,0,84.96,0
	c0.54,0,1.08-0.03,1.61,0.03c1.23,0.14,2.12,1.12,2.11,2.24c-0.01,1.16-0.87,2.05-2.15,2.16c-0.53,0.05-1.07,0.03-1.61,0.03
	c-27.98,0-55.96,0-83.93,0c-0.78,0-1.56-0.02-2.34-0.06c-8.02-0.46-13.97-8.36-12.21-16.19c1.47-6.54,6.79-10.77,13.63-10.77
	c37.11-0.01,74.22,0,111.33-0.01c0.54,0,1.08,0.04,1.61-0.05c1.24-0.21,2.12-1.29,2.03-2.49c-0.1-1.27-0.78-2.09-2.08-2.25
	c-0.63-0.08-1.27-0.08-1.9-0.08c-36.67,0-73.34,0-110.01,0c-0.98,0-1.95,0.04-2.92,0.11c-10.85,0.73-18.85,11.51-16.41,22.1
	c2.01,8.76,9.34,14.59,18.41,14.59c37.16,0.01,74.31,0,111.47,0c0.24,0,0.49,0.01,0.73,0c1.65-0.06,2.72-1.03,2.73-2.44
	c0.01-1.38-0.96-2.33-2.57-2.43c-1.02-0.06-2.05-0.02-3.08-0.02c-4.2,0-8.4,0.02-12.6-0.03c-1.39-0.01-2.29-0.93-2.31-2.14
	c-0.02-1.19,0.91-2.15,2.23-2.27c0.48-0.04,0.98-0.02,1.46-0.02c3.21,0,6.43,0,9.83,0c-1.84-6.1-1.82-12.09-0.07-18.09
	c-7.12,0-14.02,0-21.07,0c0,3.85-0.09,7.6,0.03,11.35c0.09,2.65-1.85,3.84-3.84,2.64c-3.41-2.06-6.75-1.91-10.28-0.07
	c-2.47,1.29-3.86,0.18-3.86-2.65C92.05,124.54,92.05,120.83,92.05,116.88z M127.79,66.44c-0.64,0-1.11,0-1.59,0
	c-31.74,0-63.48,0-95.22,0.01c-1.31,0-2.64,0.1-3.93,0.32c-9.61,1.63-16.51,11.67-14.6,21.19c1.85,9.19,9.1,15.18,18.46,15.18
	c32.08,0.01,64.17,0,96.25,0c0.34,0,0.69,0.01,1.02-0.02c1.35-0.12,2.25-1.11,2.22-2.42c-0.02-1.26-0.88-2.2-2.17-2.32
	c-0.53-0.05-1.07-0.03-1.61-0.03c-22.12,0-44.24,0-66.36,0c-0.54,0-1.09,0.05-1.61-0.05c-1.2-0.22-1.97-0.97-1.96-2.2
	c0.01-1.21,0.7-2.01,1.95-2.18c0.58-0.08,1.17-0.07,1.75-0.07c20.27,0,40.53,0,60.8,0c0.61,0,1.22,0,2.02,0
	c-1.83-6.14-1.79-12.05-0.05-18.04c-22.29,0-44.39,0-66.66,0c0,0.59,0,1.11,0,1.63c0,3.32,0.02,6.64-0.01,9.96
	c-0.02,2.15-1.54,3.37-3.35,2.39c-3.82-2.08-7.42-2.14-11.24-0.01c-1.78,0.99-3.29-0.15-3.32-2.23c-0.05-3.37-0.02-6.74-0.02-10.11
	c0-0.52,0-1.05,0-1.68c-3.01,0-5.84-0.12-8.66,0.03c-5.93,0.31-9.85,6.22-7.97,11.85c1.28,3.85,4.59,6.17,8.97,6.19
	c5.71,0.03,11.43,0,17.14,0.02c1.78,0.01,2.85,0.93,2.81,2.29c-0.04,1.32-1.1,2.19-2.77,2.2c-5.86,0.01-11.72,0.09-17.58-0.02
	c-9.18-0.17-15.48-8.74-12.92-17.43c1.75-5.93,7.06-9.68,13.79-9.68c30.86-0.01,61.72,0,92.59,0c0.44,0,0.89,0.07,1.31-0.03
	c0.33-0.07,0.76-0.28,0.88-0.55C126.74,69.32,127.22,67.95,127.79,66.44z M109.83,54.44c-4.37,0-8.57,0-12.77,0
	c-1.8,0-2.87-0.82-2.9-2.19c-0.03-1.38,1.01-2.23,2.83-2.23c3.76-0.02,7.52-0.01,11.28-0.01c0.51,0,1.03,0,1.62,0
	c0-5.07,0-9.9,0-14.73c0-1.03-0.66-1.24-1.51-1.4c-9.42-1.72-18.93-2.74-28.49-3.09c-15.31-0.57-30.53,0.35-45.62,3.08
	c-1.17,0.21-1.57,0.68-1.55,1.81c0.04,3.27,0.01,6.54,0.01,9.82c0,1.45,0,2.9,0,4.51c0.75,0,1.33,0,1.9,0c16.65,0,33.3,0,49.96,0
	c0.59,0,1.17-0.01,1.76,0.04c1.28,0.11,1.96,0.93,1.99,2.12c0.03,1.21-0.7,2-1.92,2.23c-0.47,0.09-0.97,0.03-1.46,0.03
	c-16.8,0-33.6,0-50.4,0c-0.57,0-1.14,0-1.83,0c0,1.39,0,2.61,0,3.82c0,1.19,0,2.39,0,3.59c25.86,0,51.46,0,77.1,0
	C109.83,59.36,109.83,56.98,109.83,54.44z M114.34,61.88c0.66,0.03,1.18,0.08,1.7,0.08c4,0.01,8.01,0.03,12.01-0.03
	c0.63-0.01,1.68-0.26,1.8-0.64c0.42-1.27,1.81-2.34,0.7-4.01c-2.37-3.56-1.88-8.21,1.16-11.12c1.09-1.05,2.52-1.75,3.93-2.7
	c0-3.28,0-6.78,0-10.35c-0.25,0.05-0.45,0.05-0.62,0.11c-6.58,2.28-13.15,4.58-19.74,6.81c-0.86,0.29-0.95,0.78-0.95,1.52
	c0.02,5.52,0.01,11.04,0.01,16.55C114.34,59.33,114.34,60.54,114.34,61.88z M134.79,61.17c-1.37,3.38-2.83,6.92-4.23,10.49
	c-0.64,1.62,0.13,2.72,1.86,2.74c3.65,0.03,7.31,0.02,10.96,0c1.88-0.01,2.62-1.13,1.92-2.9c-1.29-3.25-2.63-6.48-3.96-9.72
	c-0.12-0.3-0.3-0.57-0.32-0.61C138.89,61.17,136.97,61.17,134.79,61.17z M96.65,126.19c2.98-2.33,5.87-1.95,8.76-0.21
	c0-3.22,0-6.11,0-9.02c-2.97,0-5.83,0-8.76,0C96.65,119.94,96.65,122.83,96.65,126.19z M43.15,75.8c0,2.97,0,5.8,0,8.98
	c2.97-2.1,5.86-1.9,8.77-0.1c0-3.21,0-6.01,0-8.88C48.96,75.8,46.1,75.8,43.15,75.8z M137.88,47.98c-2.47,0.03-4.35,2.02-4.31,4.56
	c0.04,2.44,1.96,4.34,4.38,4.34c2.46,0,4.47-2.02,4.45-4.48C142.37,49.94,140.34,47.96,137.88,47.98z"/>
<g>
	<path class="st0" d="M342.73,77.98c-2.06-1.29-2.76-3.11-2.66-5.54c0.17-4.03,0.05-8.08,0.05-12.26
		c-3.45-0.22-6.78-0.19-10.04-0.69c-10.66-1.64-18.43-10.72-18.51-21.46c-0.05-6.34-0.01-12.68-0.01-18.1
		c-2.93-2.58-5.59-4.46-7.67-6.85c-2.42-2.79-2.89-6.47-2.36-10.01c0.94-6.31-1.43-9.97-6.83-13.74
		c-20.71-14.45-32.45-34.67-35.53-59.79c-1.42-11.59-0.41-23,2.9-34.2c0.83-2.81,2.48-4.1,4.61-3.76c2.82,0.46,4.08,2.66,3.21,5.73
		c-2.79,9.83-4,19.79-2.86,30.01c2.68,24.08,14.01,42.97,33.89,56.76c1.95,1.35,4.25,2.25,6.01,3.79c1.17,1.02,2.26,2.76,2.38,4.26
		c0.33,3.94,0.09,7.92,0.12,11.88c0.03,4.95,2.37,7.36,7.24,7.38c7.22,0.03,14.44,0.01,21.67,0c0.51,0,1.01-0.06,1.64-0.11
		c0-56.32,0-112.48,0-169.18c-4.38,0.67-8.73,1.03-12.94,2.02c-19.6,4.58-35.15,15.21-46.7,31.69c-0.45,0.65-0.88,1.32-1.38,1.93
		c-1.51,1.83-3.56,2.16-5.35,0.92c-2-1.38-2.63-3.72-1-5.75c4.35-5.41,8.46-11.11,13.48-15.85c14.72-13.91,32.39-21.42,52.65-22.7
		c0.34-0.02,0.68-0.11,1.38-0.22c0-1.55,0-3.1,0-4.65c0-4.14-0.04-8.28,0.02-12.42c0.04-2.63,1.67-4.26,4.04-4.26
		c2.25,0.01,3.8,1.58,3.96,4.05c0.06,0.88,0.03,1.76,0.03,2.64c0,18.41,0,36.82,0,55.22c0,0.84,0,1.68,0,2.52
		c0.16,0.04,0.32,0.08,0.48,0.13c0.35-0.74,0.73-1.48,1.06-2.23c4.56-10.38,9.11-20.76,13.68-31.13c1.77-4.03,3.36-4.62,7.45-2.84
		c5.64,2.45,11.27,4.92,16.87,7.37c2.03-2.67,2.01-5-0.41-7.41c-1.61-1.6-2.85-3.57-4.26-5.38c-1.52-1.96-1.49-3.87,0.18-5.72
		c2.89-3.2,5.8-6.39,8.7-9.59c1.75-1.93,3.75-2.12,5.92-0.79c2.55,1.56,5.07,3.18,7.63,4.72c2.03,1.22,6.8-0.96,7.18-3.32
		c0.5-3.12,0.88-6.27,1.34-9.4c0.35-2.38,1.89-3.51,4.16-3.64c4.31-0.25,8.62-0.39,12.93-0.6c2.62-0.13,4.13,1.1,4.69,3.63
		c0.46,2.06,1.21,4.07,1.43,6.15c0.31,2.97,1.53,4.67,4.59,5.43c1.73,0.43,2.88,0.46,4.24-0.72c2.07-1.78,4.31-3.35,6.47-5.01
		c2.04-1.57,4.04-1.53,5.96,0.19c3.15,2.82,6.32,5.61,9.43,8.48c2.11,1.95,2.29,3.6,0.79,6.1c-1.13,1.89-2.17,3.86-3.53,5.57
		c-1.74,2.19-1.9,4.06-0.48,6.6c0.96,1.73,2.01,2.43,3.77,2.62c2.71,0.3,5.41,0.7,8.11,1c2.54,0.28,3.78,1.82,3.94,4.19
		c0.3,4.39,0.5,8.79,0.64,13.19c0.08,2.35-1.23,3.78-3.47,4.33c-2.99,0.73-5.99,1.39-8.98,2.11c-2.39,0.58-4.11,5.49-2.61,7.47
		c1.75,2.31,3.59,4.56,5.34,6.88c1.81,2.4,1.8,3.89-0.16,6.12c-2.73,3.11-5.52,6.17-8.35,9.19c-2.15,2.3-3.62,2.48-6.3,0.9
		c-2.12-1.26-4.28-2.47-6.26-3.92c-1.78-1.3-3.35-1.59-5.23-0.27c-0.91,0.64-2.05,0.95-3.41,1.56c1.03,2.71,1.9,5.45,3.1,8.04
		c1.06,2.29,0.9,4.31-0.15,6.54c-1.96,4.13-3.73,8.34-5.56,12.53c-0.34,0.78-0.63,1.59-1.06,2.66c1.31,0,2.26,0,3.22,0
		c13.74,0,27.48-0.01,41.22,0c3.97,0,5.44,1.43,5.44,5.39c0.02,21.75,0.06,43.51-0.08,65.26c-0.01,1.73-0.88,3.82-2.04,5.13
		c-4.72,5.35-9.75,10.41-14.56,15.68c-1.68,1.83-3.51,2.59-6.02,2.56c-10.03-0.12-20.06-0.05-30.14,0.39
		c1.33,0.25,2.65,0.51,3.98,0.75c3.02,0.55,4.17,1.75,4.26,4.74c0.09,3.34,0.13,6.69,0.07,10.04c-0.05,2.92-1.19,4.16-3.98,4.69
		c-1.73,0.33-3.45,0.66-5.18,0.97c-3.78,0.67-4.94,3.33-2.78,6.43c1.1,1.59,2.22,3.18,3.32,4.77c1.34,1.94,1.26,3.81-0.39,5.5
		c-2.52,2.59-5.08,5.14-7.66,7.66c-1.69,1.66-3.61,1.68-5.53,0.43c-1.62-1.06-3.18-2.21-4.77-3.31c-3.16-2.19-5.84-1.01-6.54,2.79
		c-0.58,3.2-0.36,6.71-3.18,9.14c-4.76,0-9.51,0-14.27,0c-0.99-1.56-2.23-3.02-2.89-4.72c-0.66-1.69-0.66-3.62-1.06-5.41
		c-0.58-2.65-3.55-3.79-5.8-2.28c-1.82,1.23-3.59,2.54-5.44,3.73c-1.84,1.19-3.69,1.1-5.3-0.45c-2.65-2.58-5.27-5.18-7.85-7.84
		c-1.55-1.6-1.68-3.42-0.43-5.28c1.02-1.54,2.08-3.05,3.14-4.57c2.42-3.49,1.28-6.18-2.96-6.95c-1.9-0.35-3.81-0.65-5.69-1.07
		c-2.07-0.47-3.15-1.91-3.18-3.98c-0.07-3.7-0.08-7.39-0.01-11.09c0.04-2.23,1.29-3.57,3.49-3.98c1.98-0.37,3.97-0.72,5.96-1.06
		c3.4-0.58,4.57-3.43,2.58-6.31c-1.15-1.66-2.37-3.28-3.46-4.98c-1.24-1.93-1.17-3.83,0.5-5.52c2.47-2.51,4.97-4.98,7.46-7.47
		c1.76-1.76,3.67-1.89,5.71-0.51c1.6,1.09,3.35,2.03,4.72,3.36c1.96,1.92,3.76,0.93,5.42-0.08c1.99-1.21,1.41-5.3-0.75-6.25
		c-8.44-3.71-16.88-7.42-25.32-11.12c-4.23-1.85-8.46-3.68-13.08-5.69c0,1.48,0,2.51,0,3.53c0,30.1-0.02,60.2,0.03,90.3
		c0,2.48-0.47,4.49-2.82,5.69C344.49,77.98,343.61,77.98,342.73,77.98z M420.43-128.28c-16.98-7.44-33.74-14.79-50.56-22.17
		c-0.34,0.64-0.56,1.01-0.73,1.41c-6.78,15.45-13.56,30.89-20.28,46.36c-0.47,1.09-0.66,2.38-0.66,3.57
		c-0.04,22.1-0.01,44.21-0.07,66.31c0,1.73,0.43,2.64,2.1,3.36c13.95,6.02,27.86,12.15,41.78,18.23c0.73,0.32,1.52,0.52,2.58,0.88
		c0-1.42,0-2.38,0-3.34c0-11.1-0.08-22.19,0.08-33.29c0.03-1.87,0.65-4.16,1.83-5.52c4.98-5.7,10.2-11.19,15.54-16.56
		c1.09-1.1,3.01-1.77,4.61-1.89c3.5-0.28,7.04-0.04,10.56-0.13c0.75-0.02,1.94-0.32,2.18-0.84c2.38-5.13,4.61-10.33,6.93-15.62
		c-7.95-3.52-15.58-6.88-23.2-10.27c-4.03-1.79-4.62-3.36-2.83-7.45C413.61-112.8,416.94-120.35,420.43-128.28z M462.96,14.68
		c0-1.22,0-2.25,0-3.28c0.01-5.28-0.08-10.57,0.05-15.84c0.09-3.58,3.55-5.6,6.18-3.54c1.04,0.82,1.74,2.63,1.82,4.03
		c0.24,3.97,0.08,7.97,0.08,12.65c2.81-2.99,5.18-5.34,7.32-7.87c0.71-0.84,1.23-2.14,1.24-3.23c0.08-17.25,0.06-34.5,0.04-51.76
		c0-0.63-0.15-1.26-0.27-2.26c-2.53,2.7-4.84,5-6.92,7.49c-0.76,0.91-1.32,2.27-1.35,3.44c-0.13,6.42-0.03,12.85-0.08,19.28
		c-0.02,2.79-1.41,4.29-3.85,4.39c-2.64,0.11-4.17-1.3-4.23-4.24c-0.1-4.93-0.04-9.86-0.04-14.79c0-1.37,0-2.75,0-4.08
		c-20.25,0-40.1,0-59.98,0c0,11.52,0,22.85,0,34.43c4.33-0.24,5.74,2.37,6.07,6.05c0.1,1.13,0.42,2.24,0.63,3.36
		c0.73,3.76,3.39,4.87,6.53,2.7c1.45-1,2.88-2.02,4.34-3c2.47-1.64,4.17-1.48,6.34,0.62c1.64,1.59,3.25,3.23,4.86,4.85
		c4.42,4.41,4.42,4.41,1.44,9.98c-0.07,0.12,0.01,0.32,0.03,0.63C443.04,14.68,452.83,14.68,462.96,14.68z M460.39-170.34
		c-1.71-1.53-3.39-3.02-5.21-4.63c-2.7,2.06-5.28,4.01-7.84,5.99c-1.54,1.19-3.09,1.36-4.92,0.6c-2.58-1.07-5.22-2.06-7.91-2.84
		c-2.1-0.6-3.36-1.78-3.8-3.88c-0.24-1.12-0.51-2.22-0.76-3.34c-1.42-6.37-1.42-6.37-8.01-5.61c-0.08,0.01-0.15,0.09-0.44,0.28
		c-0.37,2.86-0.8,5.89-1.15,8.92c-0.25,2.22-1.26,3.67-3.45,4.5c-2.45,0.93-4.84,2.08-7.13,3.36c-2.08,1.17-3.91,1.18-5.91-0.12
		c-2.57-1.68-5.22-3.22-7.94-4.88c-1.61,1.77-3.12,3.43-4.67,5.15c2.03,2.61,3.88,5.07,5.81,7.46c1.45,1.79,1.56,3.59,0.58,5.63
		c-0.85,1.79-1.52,3.66-2.32,5.63c3.2,1.4,6.07,2.66,9.2,4.03c1.6-5.85,4.6-10.61,9.5-13.98c4.99-3.43,10.49-4.69,16.53-3.92
		c9.05,1.15,17.31,8.17,19.21,17.25c2.71,12.99-3.05,21.85-14.58,27.52c1.18,2.97,2.33,5.86,3.59,9.02
		c2.27-1.18,4.27-2.08,6.12-3.21c1.96-1.2,3.75-1.18,5.66,0.04c2.65,1.69,5.35,3.31,8.11,5.01c1.63-1.81,3.13-3.49,4.66-5.19
		c-1.95-2.5-3.66-4.85-5.53-7.06c-1.68-1.99-1.87-3.95-0.77-6.31c1.03-2.21,1.86-4.55,2.47-6.92c0.6-2.35,1.95-3.62,4.24-4.11
		c2.49-0.52,4.99-1.03,7.44-1.72c0.63-0.18,1.45-1.01,1.51-1.62c0.2-1.8,0.07-3.65,0.07-5.57c-3.48-0.46-6.5-0.94-9.55-1.23
		c-2.28-0.22-3.65-1.31-4.52-3.42c-1.03-2.51-2.17-4.99-3.52-7.35c-1.1-1.93-1.07-3.58,0.12-5.4
		C456.96-164.75,458.5-167.32,460.39-170.34z M375.22,6.72c-3.49,2.73-3.49,2.73-1.22,5.98c0.65,0.94,1.3,1.89,1.98,2.8
		c1.31,1.74,1.37,3.48,0.37,5.42c-0.92,1.79-1.8,3.65-2.33,5.57c-0.66,2.41-2.19,3.46-4.46,3.85c-2.15,0.36-4.29,0.76-6.35,1.13
		c-0.55,4.25-0.55,4.26,3.24,5.02c0.6,0.12,1.21,0.27,1.81,0.32c3.36,0.27,5.55,1.78,6.23,5.3c0.26,1.35,0.93,2.67,1.66,3.85
		c1.46,2.35,1.2,4.43-0.46,6.56c-1.24,1.59-2.3,3.31-3.41,4.93c1.08,1.15,2.06,2.2,3.15,3.35c4.34-3.08,8.33-7.53,14.02-2.85
		c7.34,0.82,6.46,7.13,7.67,11.94c1.56,0,2.86,0,4.49,0c0.77-5.08,0.34-11.08,7.59-11.93c5.87-4.97,9.72,0.46,13.6,2.71
		c1.44-1.05,2.56-1.87,3.64-2.66c-1.64-2.35-3.26-4.17-4.26-6.29c-0.63-1.33-0.68-3.19-0.33-4.64c0.53-2.19,1.73-4.2,2.49-6.35
		c0.73-2.07,2.08-3.12,4.22-3.42c2.22-0.31,4.42-0.79,6.51-1.17c0-1.68,0-3.05,0-4.5c-5.21-0.94-11.11-0.66-11.93-7.88
		c-4.58-5.72,0.31-9.57,2.83-13.56c-1.09-1.32-1.97-2.39-2.89-3.49c-2.19,1.51-4.09,2.77-5.93,4.11c-1.67,1.21-3.3,1.33-5.18,0.4
		c-1.96-0.97-4-1.78-6.06-2.52c-2.03-0.73-3.16-2.03-3.47-4.2c-0.32-2.24-0.83-4.44-1.26-6.72c-1.55,0-2.93,0-4.43,0
		C395.8,2.83,396.22,8.8,389,9.65C383.23,14.28,379.38,9.47,375.22,6.72z M339.91,52.07c0-11.25,0-21.92,0-32.56
		c-6.86,0-13.51,0-20.26,0c0,6.66-0.34,13.18,0.1,19.64c0.39,5.85,3.8,10.14,9.46,11.78C332.56,51.91,336.26,51.73,339.91,52.07z
		 M474.12-62.59c-0.57-0.24-0.72-0.36-0.88-0.36c-18.21-0.01-36.43-0.03-54.64,0c-0.64,0-1.46,0.24-1.88,0.67
		c-2.68,2.73-5.27,5.55-8.19,8.66c0.98,0.12,1.47,0.23,1.95,0.23c17.77,0.01,35.55,0.02,53.32-0.02c0.8,0,1.83-0.25,2.36-0.78
		C468.83-56.86,471.36-59.65,474.12-62.59z M432.26-125.13c7.18-2.63,10.98-9.06,9.91-16.51c-0.94-6.57-6.87-12.05-13.45-12.43
		c-7.68-0.44-13.99,3.93-16.02,10.96c-0.52,1.79-0.13,2.73,1.64,3.39c2.54,0.95,4.92,2.38,7.5,3.17c5.2,1.59,8.72,4.6,9.78,10.12
		C431.71-126.02,432-125.65,432.26-125.13z M434.35-97.24c-2.97-7.59-5.68-14.52-8.4-21.45c-0.09-0.23-0.32-0.41-0.58-0.74
		c-2.25,5.11-4.46,10.12-6.72,15.26C423.88-101.86,428.82-99.68,434.35-97.24z"/>
	<path class="st0" d="M275.19-13.73c1.11,0.92,2.67,1.64,3.16,2.8c0.48,1.15,0.42,3.26-0.34,4.08c-4.54,4.89-9.29,9.6-14.11,14.23
		c-1.62,1.56-3.58,1.26-5.23-0.23c-1.71-1.55-1.98-3.7-0.35-5.39c4.57-4.75,9.26-9.38,13.97-14
		C272.95-12.87,273.96-13.11,275.19-13.73z"/>
	<path class="st0" d="M235.29-75.72c-2.99,0-5.98,0.05-8.97-0.01c-2.84-0.05-4.5-1.64-4.43-4.09c0.07-2.38,1.68-3.87,4.38-3.89
		c6.16-0.04,12.31-0.04,18.47,0c2.65,0.02,4.29,1.59,4.31,3.96c0.02,2.33-1.62,3.94-4.26,4C241.62-75.67,238.45-75.72,235.29-75.72z
		"/>
	<path class="st0" d="M260.01-168.86c1.41,0.9,2.47,1.35,3.25,2.1c4.34,4.24,8.63,8.52,12.88,12.84c2.03,2.07,2.04,4.49,0.18,6.27
		c-1.63,1.56-3.83,1.4-5.82-0.56c-4.38-4.32-8.8-8.61-12.97-13.12c-0.87-0.94-1.35-3-0.94-4.17
		C257.04-166.8,258.72-167.68,260.01-168.86z"/>
	<path class="st0" d="M417.26,33.87c0,10.02-8.16,18.18-18.08,18.1c-9.98-0.08-18.33-8.55-18.2-18.45
		c0.13-9.92,8.16-17.87,18.05-17.87C409.18,15.64,417.26,23.71,417.26,33.87z M399.39,43.76c5.49-0.04,9.91-4.47,9.9-9.91
		c-0.01-5.53-4.82-10.27-10.35-10.2c-5.44,0.07-9.79,4.52-9.79,10.02C389.16,39.41,393.61,43.8,399.39,43.76z"/>
</g>
</svg>
