<?xml version="1.0" encoding="utf-8"?>
<!-- Generator: Adobe Illustrator 26.3.1, SVG Export Plug-In . SVG Version: 6.00 Build 0)  -->
<svg version="1.1" id="레이어_1" xmlns="http://www.w3.org/2000/svg" xmlns:xlink="http://www.w3.org/1999/xlink" x="0px"
	 y="0px" viewBox="0 0 150 150" style="enable-background:new 0 0 150 150;" xml:space="preserve">
<style type="text/css">
	.st0{fill:#1B4895;}
</style>
<path class="st0" d="M0,93.9c0.29-0.97,0.54-1.95,0.87-2.9c1.83-5.31,5.35-9.03,10.66-10.86c4.18-1.44,8.44-2.63,12.77-3.96
	c0-1.25,0.06-2.46-0.04-3.67c-0.03-0.38-0.44-0.83-0.8-1.06c-5.49-3.6-8.3-8.65-8.26-15.22c0.03-4.09-0.24-8.25,0.36-12.26
	c1-6.68,5.1-11.2,11.46-13.38c6.27-2.14,12.01-0.84,17.08,3.42c0.37,0.31,0.72,0.65,1.4,1.26c0-1.57,0.01-2.84,0-4.1
	c-0.04-4.33,0.53-8.54,2.18-12.59C52.61,6.53,64.9-1.01,77.63,0.23C90.68,1.5,101.4,11.09,103.84,23.9c0.55,2.9,0.44,5.92,0.61,8.89
	c0.04,0.71,0.01,1.42,0.01,2.41c0.87-0.73,1.46-1.29,2.1-1.77c5.64-4.25,11.78-5.11,18.16-2.12c6.36,2.98,9.81,8.21,10,15.29
	c0.12,4.38,0.15,8.8-0.32,13.15c-0.52,4.79-3.25,8.52-7.22,11.21c-1.15,0.78-1.75,1.52-1.54,2.91c0.11,0.71,0.02,1.46,0.02,2.33
	c3.78,1.14,7.53,2.3,11.29,3.41c4.75,1.4,8.43,4.14,10.9,8.48c2.18,3.83,2.31,8.01,2.04,12.22c-0.08,1.2-1.03,1.88-2.28,1.78
	c-1.24-0.09-1.95-0.84-2.03-2.08c-0.11-1.85,0.01-3.72-0.27-5.54c-0.78-5.08-3.72-8.52-8.54-10.2c-3.76-1.31-7.62-2.35-11.53-3.54
	c-1.52,3.37-4.08,5.4-7.8,5.43c-3.73,0.02-6.32-1.96-7.91-5.42c-4.2,1.28-8.35,2.54-12.51,3.81c0.01,0.11,0.02,0.21,0.03,0.32
	c2.83,0.69,5.67,1.36,8.49,2.08c8.94,2.28,14.35,7.9,15.83,17.06c0.31,1.91,0.14,3.89,0.17,5.84c0.02,1.61,0,3.22,0,4.95
	c3.21,0,6.34,0,9.64,0c0-2.23-0.01-4.41,0-6.59c0.01-1.74,0.79-2.74,2.12-2.79c1.38-0.05,2.28,1.03,2.28,2.79
	c0.01,2.18,0,4.37,0,6.63c3.36,0,6.56,0,9.98,0c0-1.47-0.01-2.91,0-4.35c0.02-1.58,0.86-2.52,2.22-2.5
	c1.34,0.02,2.15,0.95,2.16,2.56c0.01,2,0.01,4,0,6c-0.01,2.04-0.77,2.81-2.84,2.81c-7.86,0.01-15.72,0-23.58,0
	c-0.58,0-1.17,0-1.99,0c0,0.52,0,0.98,0,1.45c0,3.22,0,6.44,0,9.67c0,2.49-0.62,3.14-3.09,3.14c-6.44,0.01-12.89,0.03-19.33-0.02
	c-1.14-0.01-1.67,0.3-2.13,1.41c-3.42,8.31-9.56,13.31-18.45,14.88c-0.22,0.04-0.43,0.18-0.64,0.28c-1.95,0-3.91,0-5.86,0
	c-0.21-0.09-0.42-0.24-0.64-0.27c-7.93-1.35-14.03-5.5-17.39-12.76c-1.43-3.08-3.07-3.69-6.07-3.56c-5.6,0.24-11.21,0.08-16.82,0.06
	c-1.93-0.01-2.69-0.78-2.72-2.62c-0.01-0.93,0-1.85,0-2.78c0-2.91,0-5.82,0-8.84c-0.7,0-1.23,0-1.75,0c-7.85,0-15.7-0.02-23.55,0.02
	c-1.33,0.01-2.37-0.34-3.11-1.45c0-2.83,0-5.66,0-8.49c0.72-1.01,1.56-1.8,2.93-1.3c1.34,0.49,1.52,1.61,1.47,2.87
	c-0.05,1.25-0.01,2.51-0.01,3.8c3.41,0,6.65,0,9.98,0c0-2.25-0.01-4.39,0.01-6.54c0-0.48,0.01-1,0.18-1.43
	c0.4-1.02,1.23-1.55,2.31-1.38c1.19,0.19,1.89,0.95,1.9,2.23c0.01,2.37,0,4.74,0,7.23c1.79,0,3.34,0,4.89,0c1.55,0,3.09,0,4.75,0
	c0-1.89-0.02-3.59,0-5.29c0.03-1.9-0.12-3.83,0.18-5.7c1.43-8.98,7.14-14.97,16.02-17.04c2.77-0.65,5.53-1.37,8.3-2.06
	c0-0.1,0.01-0.21,0.01-0.31c-4.16-1.26-8.33-2.53-12.52-3.8c-1.57,3.46-4.14,5.41-7.79,5.42c-3.72,0.02-6.32-1.96-7.9-5.46
	c-4.2,1.31-8.45,2.39-12.51,3.98c-4.28,1.68-6.84,5.09-7.54,9.68c-0.28,1.82-0.08,3.71-0.33,5.53c-0.1,0.75-0.68,1.75-1.3,2.01
	c-0.63,0.27-1.59-0.2-2.39-0.42c-0.24-0.06-0.43-0.35-0.64-0.53C0,98.58,0,96.24,0,93.9z M81.46,103.69
	c1.05,0.39,2.01,0.72,2.95,1.11c2.19,0.92,2.93,1.99,2.37,3.37c-0.6,1.51-1.78,1.67-4.07,0.75c-6.87-2.78-13.43-2.16-19.35,2.34
	c-5.98,4.55-8.38,10.8-7.36,18.18c1.11,8.09,7.93,14.87,15.74,16.01c8.77,1.27,16.9-2.89,20.53-10.69c3-6.45,2.5-12.77-1.26-18.81
	c-1.07-1.72-1.03-2.89,0.17-3.72c1.25-0.85,2.5-0.45,3.55,1.35c0.93,1.59,1.8,3.24,2.46,4.96c1.3,3.34,1.66,6.86,1.35,10.45
	c1.6,0,3.08,0,4.64,0c0-1.73,0.15-3.35-0.04-4.94c-0.28-2.36,0.67-4.02,2.42-5.44c1.22-0.99,2.47-1.1,3.38-0.14
	c0.85,0.91,0.77,2.18-0.2,3.27c-0.35,0.39-0.95,0.8-0.97,1.22c-0.1,2.02-0.05,4.05-0.05,6.02c3.26,0,6.31,0,9.38,0
	c0-7.88,0.21-15.64-0.06-23.39c-0.24-6.9-4.92-12.27-11.64-14.08c-2.91-0.79-5.86-1.45-8.77-2.23c-0.96-0.26-1.39,0.07-1.78,0.91
	c-1.3,2.78-2.68,5.52-4.02,8.28c-1.93,3.95-4.43,4.67-8.16,2.28C82.28,101.73,81.88,102.7,81.46,103.69z M99.65,36.23
	c0-3.38,0.42-6.98-0.07-10.46C97.37,10.09,80.89,0.4,66.18,6.26C52.24,11.82,48.82,23.6,50.17,36.23c2.06,0,4.1,0.06,6.13-0.02
	c1.66-0.06,2.86,0.43,3.26,2.27c2.19-1.78,4.64-2.36,7.32-2.26c1.75,0.07,3.51,0.02,5.27,0.01c4.3-0.04,7.7-1.82,10.18-5.34
	c1.4-1.99,2.78-4.01,4.19-5.99c0.95-1.33,2.14-1.62,3.26-0.86c1.12,0.75,1.29,1.99,0.43,3.34c-0.71,1.11-1.53,2.15-2.17,3.29
	c-0.23,0.4-0.28,1.15-0.05,1.52c1.52,2.54,3.68,4.09,6.78,4.05C96.41,36.21,98.06,36.23,99.65,36.23z M51.3,129.03
	c-0.27-12.64,5.45-21.05,17.2-25.41c-0.43-0.99-0.83-1.92-1.23-2.86c-3.86,2.38-6.23,1.67-8.22-2.4c-1.32-2.71-2.69-5.41-3.95-8.15
	c-0.44-0.95-0.92-1.13-1.91-0.86c-2.53,0.7-5.09,1.3-7.65,1.89c-7.95,1.85-12.73,7.8-12.73,15.95c-0.01,6.78,0,13.57,0,20.35
	c0,0.47,0.04,0.95,0.06,1.48c3.14,0,6.18,0,9.37,0c0-2.02,0.13-3.97-0.07-5.89c-0.07-0.69-1.15-1.23-1.36-1.95
	c-0.22-0.79-0.28-1.97,0.17-2.51c0.44-0.54,1.67-0.83,2.42-0.65c1.66,0.4,3.37,3.09,3.37,4.85c0.01,2.03,0,4.07,0,6.17
	C48.39,129.03,49.83,129.03,51.3,129.03z M84.26,35.61c-2.94,2.99-6.72,4.9-11.3,5.02c-2.34,0.06-4.68,0.01-7.03,0.05
	c-2.77,0.05-6.37,3.27-6.45,6c-0.08,3.11-0.12,6.26,0.29,9.34c0.95,7.18,7.65,12.7,15.1,12.73c7.55,0.03,14.49-5.45,15.27-12.67
	c0.55-5.12,0.29-10.32,0.34-15.49c0-0.32-0.38-0.72-0.69-0.95C88.02,38.32,86.22,37.03,84.26,35.61z M45.66,51.7
	c-0.07,0-0.14-0.01-0.21-0.01c0-1.81,0.06-3.61-0.01-5.42C45.2,40,39.97,34.53,33.89,34.13C26.94,33.67,20.84,38,19.96,44.54
	c-0.54,3.98-0.33,8.08-0.33,12.12c0,6.76,5.03,12.13,11.95,12.88c5.98,0.65,12.2-3.81,13.49-9.99C45.6,57,45.48,54.32,45.66,51.7z
	 M104.3,51.68c0.07,0,0.14,0.01,0.21,0.01c0,1.85-0.06,3.71,0.01,5.56c0.27,6.53,5.6,11.85,12.26,12.31
	c6.28,0.43,12.42-4.24,13.24-10.6c0.52-4.04,0.33-8.18,0.31-12.27c-0.04-6.33-5.14-11.91-11.33-12.55
	c-6.62-0.69-12.74,3.39-14.1,9.69C104.36,46.37,104.48,49.06,104.3,51.68z M94.91,55.01c-0.71,5.77-3.2,10.46-7.71,14.05
	c-0.28,0.23-0.48,0.72-0.5,1.1c-0.05,1.85-0.05,3.71,0,5.56c0.01,0.4,0.13,0.91,0.4,1.16c1.8,1.71,3.65,3.36,5.4,4.96
	c1.41-0.63,2.65-1.32,3.97-1.76c3.33-1.1,6.69-2.08,10.04-3.1c2.55-0.78,2.5-0.77,2.58-3.35c0.04-1.23-0.29-1.98-1.39-2.72
	c-3.81-2.53-6.25-6.11-7.22-10.6c-0.4-1.84-0.49-3.74-0.72-5.62C98.21,54.8,96.62,54.9,94.91,55.01z M55.05,55.01
	c-1.71-0.11-3.29-0.21-4.88-0.31c-0.04,0.09-0.11,0.17-0.12,0.26c-0.02,0.49-0.03,0.97-0.04,1.46c-0.24,6.09-2.71,11.02-7.75,14.51
	c-1.09,0.75-1.53,1.49-1.37,2.71c0.04,0.34,0.05,0.69,0,1.02c-0.18,1.16,0.29,1.64,1.44,2.02c5.03,1.62,10.3,2.54,15.07,5.2
	c1.13-1.02,2.2-2.19,3.46-3.08c1.95-1.37,2.8-3.06,2.45-5.44c-0.15-1,0.02-2.05-0.05-3.07c-0.03-0.43-0.2-0.99-0.51-1.24
	C58.26,65.46,55.76,60.78,55.05,55.01z M67.71,71.86c0,3.52-0.03,6.83,0.03,10.14c0.01,0.42,0.38,0.99,0.76,1.23
	c1.86,1.24,3.76,2.43,5.7,3.55c0.4,0.23,1.15,0.25,1.54,0.03c1.98-1.14,3.9-2.38,5.83-3.62c0.29-0.19,0.66-0.56,0.66-0.85
	c0.05-3.43,0.03-6.86,0.03-10.46C77.36,73.62,72.64,73.65,67.71,71.86z M63.78,97.91c2.49-2.74,4.83-5.3,7.16-7.87
	c-1.53-0.96-3.28-2.11-5.08-3.16c-1.57-0.91-3.03-1.83-2.45-4.43c-1.73,1.57-3.12,2.77-4.42,4.06c-0.23,0.23-0.29,0.9-0.13,1.22
	C60.41,91.04,62.02,94.3,63.78,97.91z M86.91,82.78c0.27,2.27-1.21,3.15-2.72,4.05c-1.85,1.11-3.67,2.28-5.13,3.19
	c2.4,2.63,4.71,5.18,7.15,7.85c1.75-3.58,3.39-6.93,4.99-10.3c0.12-0.26,0.06-0.8-0.13-0.99C89.71,85.28,88.3,84.04,86.91,82.78z
	 M75.47,92.85c-0.26,0.06-0.53,0.12-0.79,0.17c-0.46,0.56-0.88,1.17-1.4,1.67c-2.64,2.58-2.69,2.59-1.19,5.98
	c1.17,2.65,0.35,2.06,3.33,2.21c1.15,0.06,1.79-0.27,2.15-1.39c0.37-1.15,0.98-2.22,1.37-3.37c0.13-0.4,0.06-1.05-0.19-1.37
	C77.72,95.41,76.57,94.14,75.47,92.85z M28.7,73.83c0,1.08,0,2.24,0,3.4c0,0.39-0.01,0.79,0.06,1.17c0.33,1.93,1.83,3.23,3.73,3.26
	c1.85,0.03,3.6-1.22,3.79-2.97c0.17-1.62,0.04-3.28,0.04-4.85C33.75,73.83,31.3,73.83,28.7,73.83z M121.22,73.83
	c-2.56,0-5.02,0-7.63,0c0,1.3-0.03,2.65,0.01,4c0.06,2.13,1.49,3.68,3.46,3.81c2.12,0.14,3.89-1.15,4.13-3.27
	C121.36,76.84,121.22,75.28,121.22,73.83z M54.93,50.4c0-3.32,0-6.46,0-9.72c-0.79,0-1.46-0.03-2.14,0
	c-1.89,0.09-2.73,0.95-2.76,2.85c-0.02,1.46-0.02,2.93,0.01,4.39c0.02,1.44,0.81,2.28,2.2,2.46C53.09,50.48,53.97,50.4,54.93,50.4z
	 M95.03,40.7c0,3.33,0,6.48,0,9.75c0.82,0,1.55,0.04,2.27-0.01c1.79-0.12,2.61-1.01,2.64-2.82c0.02-1.46,0.03-2.93-0.01-4.39
	c-0.04-1.47-0.86-2.37-2.32-2.52C96.8,40.64,95.97,40.7,95.03,40.7z"/>
<path class="st0" d="M64.48,134.03c1.33-2.98-0.38-5.39-2.67-7.87c-2.18-2.35-0.91-6.45,2.22-6.95c3.5-0.56,5.64-2.17,7.29-5.27
	c1.54-2.92,5.85-2.88,7.36,0.07c1.59,3.12,3.79,4.59,7.19,5.18c3.15,0.54,4.28,4.39,2.36,6.98c-0.38,0.51-0.75,1.06-1.24,1.44
	c-1.94,1.48-1.98,3.42-1.7,5.61c0.16,1.24,0.02,2.67-0.47,3.8c-0.86,1.98-3.44,3.03-5.33,1.97c-3.1-1.74-5.84-1.56-8.98-0.03
	C67.59,140.38,64.42,137.87,64.48,134.03z M84.82,123.65c-2.39-0.8-4.64-1.05-6.23-2.22c-1.57-1.15-2.45-3.23-3.85-5.2
	c-1.48,4.72-4.69,6.91-9.54,7.18c3.86,3.04,5.07,6.77,3.76,11.51c4.09-2.76,8.02-2.67,12.1-0.05
	C79.69,130.12,80.96,126.45,84.82,123.65z"/>
</svg>
