<?xml version="1.0" encoding="utf-8"?>
<!-- Generator: Adobe Illustrator 26.3.1, SVG Export Plug-In . SVG Version: 6.00 Build 0)  -->
<svg version="1.1" id="레이어_1" xmlns="http://www.w3.org/2000/svg" xmlns:xlink="http://www.w3.org/1999/xlink" x="0px"
	 y="0px" viewBox="0 0 150 150" style="enable-background:new 0 0 150 150;" xml:space="preserve">
<style type="text/css">
	.st0{fill:#1B4895;}
</style>
<g>
	<path class="st0" d="M68.12,150.05c-1.15-0.72-1.54-1.73-1.48-3.09c0.09-2.25,0.03-4.5,0.03-6.83c-1.92-0.12-3.78-0.11-5.59-0.39
		c-5.94-0.91-10.26-5.97-10.31-11.95c-0.03-3.53-0.01-7.06-0.01-10.08c-1.63-1.43-3.12-2.48-4.27-3.82
		c-1.35-1.56-1.61-3.61-1.31-5.58c0.53-3.52-0.8-5.55-3.81-7.65c-11.54-8.05-18.08-19.31-19.79-33.3
		c-0.79-6.45-0.23-12.81,1.62-19.05c0.46-1.56,1.38-2.29,2.57-2.09c1.57,0.26,2.27,1.48,1.79,3.19c-1.55,5.48-2.23,11.02-1.59,16.72
		c1.5,13.41,7.8,23.94,18.88,31.61c1.08,0.75,2.37,1.25,3.35,2.11c0.65,0.57,1.26,1.54,1.33,2.37c0.18,2.19,0.05,4.41,0.07,6.62
		c0.02,2.76,1.32,4.1,4.03,4.11c4.02,0.02,8.05,0.01,12.07,0c0.28,0,0.56-0.04,0.91-0.06c0-31.37,0-62.65,0-94.23
		c-2.44,0.37-4.86,0.58-7.21,1.12c-10.92,2.55-19.58,8.47-26.01,17.65c-0.25,0.36-0.49,0.74-0.77,1.08
		c-0.84,1.02-1.98,1.2-2.98,0.51c-1.12-0.77-1.46-2.07-0.56-3.2c2.42-3.01,4.71-6.19,7.51-8.83c8.2-7.75,18.04-11.93,29.33-12.64
		c0.19-0.01,0.38-0.06,0.77-0.12c0-0.86,0-1.73,0-2.59c0-2.31-0.02-4.61,0.01-6.92c0.02-1.46,0.93-2.38,2.25-2.37
		c1.25,0,2.11,0.88,2.2,2.26c0.03,0.49,0.02,0.98,0.02,1.47c0,10.25,0,20.51,0,30.76c0,0.47,0,0.94,0,1.4
		c0.09,0.02,0.18,0.05,0.27,0.07c0.2-0.41,0.4-0.82,0.59-1.24c2.54-5.78,5.07-11.56,7.62-17.34c0.99-2.24,1.87-2.57,4.15-1.58
		c3.14,1.37,6.27,2.74,9.4,4.1c1.13-1.49,1.12-2.79-0.23-4.13c-0.9-0.89-1.59-1.99-2.37-3c-0.85-1.09-0.83-2.15,0.1-3.18
		c1.61-1.78,3.23-3.56,4.84-5.34c0.97-1.07,2.09-1.18,3.3-0.44c1.42,0.87,2.82,1.77,4.25,2.63c1.13,0.68,3.79-0.54,4-1.85
		c0.28-1.74,0.49-3.49,0.75-5.23c0.19-1.33,1.05-1.96,2.32-2.03c2.4-0.14,4.8-0.22,7.2-0.34c1.46-0.07,2.3,0.61,2.61,2.02
		c0.25,1.15,0.68,2.27,0.8,3.43c0.17,1.65,0.85,2.6,2.55,3.03c0.96,0.24,1.6,0.25,2.36-0.4c1.15-0.99,2.4-1.86,3.6-2.79
		c1.14-0.88,2.25-0.85,3.32,0.11c1.76,1.57,3.52,3.13,5.25,4.72c1.17,1.09,1.27,2,0.44,3.4c-0.63,1.05-1.21,2.15-1.97,3.1
		c-0.97,1.22-1.06,2.26-0.27,3.68c0.54,0.96,1.12,1.35,2.1,1.46c1.51,0.17,3.01,0.39,4.52,0.56c1.41,0.16,2.1,1.01,2.19,2.33
		c0.17,2.45,0.28,4.9,0.36,7.35c0.04,1.31-0.68,2.11-1.93,2.41c-1.66,0.41-3.34,0.77-5,1.18c-1.33,0.32-2.29,3.06-1.45,4.16
		c0.98,1.29,2,2.54,2.98,3.83c1.01,1.33,1,2.17-0.09,3.41c-1.52,1.73-3.08,3.44-4.65,5.12c-1.2,1.28-2.02,1.38-3.51,0.5
		c-1.18-0.7-2.38-1.38-3.49-2.18c-0.99-0.72-1.87-0.89-2.91-0.15c-0.51,0.36-1.14,0.53-1.9,0.87c0.57,1.51,1.06,3.04,1.72,4.48
		c0.59,1.28,0.5,2.4-0.08,3.64c-1.09,2.3-2.07,4.65-3.1,6.98c-0.19,0.44-0.35,0.88-0.59,1.48c0.73,0,1.26,0,1.79,0
		c7.65,0,15.31,0,22.96,0c2.21,0,3.03,0.8,3.03,3c0.01,12.12,0.03,24.23-0.04,36.35c-0.01,0.97-0.49,2.13-1.14,2.86
		c-2.63,2.98-5.43,5.8-8.11,8.73c-0.93,1.02-1.96,1.44-3.35,1.42c-5.59-0.07-11.17-0.03-16.79,0.22c0.74,0.14,1.48,0.28,2.21,0.42
		c1.68,0.3,2.32,0.98,2.37,2.64c0.05,1.86,0.07,3.73,0.04,5.59c-0.03,1.62-0.66,2.32-2.22,2.61c-0.96,0.18-1.92,0.37-2.89,0.54
		c-2.11,0.38-2.75,1.85-1.55,3.58c0.62,0.89,1.23,1.77,1.85,2.66c0.75,1.08,0.7,2.12-0.22,3.07c-1.4,1.44-2.83,2.86-4.26,4.27
		c-0.94,0.92-2.01,0.94-3.08,0.24c-0.9-0.59-1.77-1.23-2.66-1.84c-1.76-1.22-3.25-0.56-3.64,1.55c-0.33,1.78-0.2,3.74-1.77,5.09
		c-2.65,0-5.3,0-7.95,0c-0.55-0.87-1.24-1.68-1.61-2.63c-0.36-0.94-0.37-2.01-0.59-3.02c-0.32-1.47-1.98-2.11-3.23-1.27
		c-1.02,0.68-2,1.41-3.03,2.08c-1.03,0.66-2.06,0.61-2.95-0.25c-1.48-1.43-2.94-2.89-4.37-4.36c-0.86-0.89-0.93-1.91-0.24-2.94
		c0.57-0.86,1.16-1.7,1.75-2.54c1.35-1.94,0.71-3.44-1.65-3.87c-1.06-0.19-2.12-0.36-3.17-0.6c-1.15-0.26-1.75-1.06-1.77-2.22
		c-0.04-2.06-0.05-4.12-0.01-6.18c0.02-1.24,0.72-1.99,1.94-2.22c1.11-0.21,2.21-0.4,3.32-0.59c1.9-0.33,2.55-1.91,1.44-3.51
		c-0.64-0.93-1.32-1.83-1.93-2.78c-0.69-1.07-0.65-2.13,0.28-3.07c1.38-1.4,2.77-2.78,4.16-4.16c0.98-0.98,2.05-1.05,3.18-0.28
		c0.89,0.61,1.87,1.13,2.63,1.87c1.09,1.07,2.09,0.52,3.02-0.05c1.11-0.68,0.79-2.95-0.42-3.48c-4.7-2.07-9.4-4.13-14.11-6.19
		c-2.35-1.03-4.71-2.05-7.28-3.17c0,0.82,0,1.4,0,1.97c0,16.77-0.01,33.53,0.02,50.3c0,1.38-0.26,2.5-1.57,3.17
		C69.1,150.05,68.61,150.05,68.12,150.05z M111.4,35.16c-9.46-4.15-18.79-8.24-28.16-12.35c-0.19,0.36-0.31,0.56-0.41,0.78
		c-3.77,8.6-7.55,17.2-11.3,25.82c-0.26,0.6-0.37,1.32-0.37,1.99c-0.02,12.31,0,24.62-0.04,36.93c0,0.96,0.24,1.47,1.17,1.87
		c7.77,3.35,15.52,6.77,23.27,10.16c0.41,0.18,0.85,0.29,1.44,0.49c0-0.79,0-1.33,0-1.86c0-6.18-0.05-12.36,0.05-18.54
		c0.02-1.04,0.36-2.32,1.02-3.08c2.78-3.17,5.68-6.23,8.66-9.23c0.61-0.61,1.68-0.98,2.57-1.06c1.95-0.16,3.92-0.02,5.88-0.07
		c0.42-0.01,1.08-0.18,1.21-0.47c1.33-2.86,2.57-5.76,3.86-8.7c-4.43-1.96-8.68-3.83-12.92-5.72c-2.24-1-2.57-1.87-1.58-4.15
		C107.6,43.78,109.46,39.58,111.4,35.16z M135.09,114.79c0-0.68,0-1.25,0-1.83c0-2.94-0.05-5.88,0.03-8.82
		c0.05-1.99,1.98-3.12,3.44-1.97c0.58,0.46,0.97,1.46,1.01,2.24c0.13,2.21,0.05,4.44,0.05,7.04c1.57-1.66,2.88-2.97,4.08-4.38
		c0.4-0.47,0.69-1.19,0.69-1.8c0.04-9.61,0.03-19.22,0.02-28.83c0-0.35-0.08-0.7-0.15-1.26c-1.41,1.5-2.7,2.78-3.86,4.17
		c-0.42,0.5-0.74,1.26-0.75,1.91c-0.07,3.58-0.02,7.16-0.04,10.74c-0.01,1.55-0.79,2.39-2.14,2.45c-1.47,0.06-2.32-0.72-2.35-2.36
		c-0.06-2.74-0.02-5.49-0.02-8.24c0-0.76,0-1.53,0-2.27c-11.28,0-22.34,0-33.41,0c0,6.42,0,12.73,0,19.18
		c2.41-0.13,3.2,1.32,3.38,3.37c0.06,0.63,0.23,1.25,0.35,1.87c0.41,2.1,1.89,2.71,3.64,1.5c0.81-0.56,1.6-1.13,2.42-1.67
		c1.37-0.91,2.32-0.82,3.53,0.34c0.92,0.89,1.81,1.8,2.71,2.7c2.46,2.46,2.46,2.46,0.8,5.56c-0.04,0.07,0.01,0.18,0.02,0.35
		C124,114.79,129.45,114.79,135.09,114.79z M133.66,11.73c-0.96-0.85-1.89-1.68-2.9-2.58c-1.5,1.15-2.94,2.23-4.37,3.34
		c-0.86,0.66-1.72,0.76-2.74,0.34c-1.44-0.6-2.91-1.15-4.4-1.58c-1.17-0.34-1.87-0.99-2.12-2.16c-0.13-0.62-0.28-1.24-0.42-1.86
		c-0.79-3.55-0.79-3.55-4.46-3.13c-0.04,0-0.08,0.05-0.24,0.16c-0.21,1.59-0.44,3.28-0.64,4.97c-0.14,1.23-0.7,2.04-1.92,2.5
		c-1.37,0.52-2.7,1.16-3.97,1.87c-1.16,0.65-2.18,0.66-3.29-0.07c-1.43-0.94-2.91-1.79-4.42-2.72c-0.89,0.99-1.74,1.91-2.6,2.87
		c1.13,1.45,2.16,2.82,3.24,4.15c0.81,1,0.87,2,0.32,3.14c-0.48,1-0.85,2.04-1.29,3.14c1.78,0.78,3.38,1.48,5.12,2.24
		c0.89-3.26,2.56-5.91,5.29-7.79c2.78-1.91,5.84-2.61,9.21-2.18c5.04,0.64,9.64,4.55,10.7,9.61c1.51,7.24-1.7,12.17-8.12,15.33
		c0.66,1.66,1.3,3.26,2,5.02c1.26-0.65,2.38-1.16,3.41-1.79c1.09-0.67,2.09-0.66,3.15,0.02c1.48,0.94,2.98,1.84,4.52,2.79
		c0.91-1.01,1.75-1.94,2.6-2.89c-1.08-1.39-2.04-2.7-3.08-3.93c-0.94-1.11-1.04-2.2-0.43-3.52c0.57-1.23,1.04-2.54,1.38-3.85
		c0.34-1.31,1.08-2.02,2.36-2.29c1.39-0.29,2.78-0.57,4.14-0.96c0.35-0.1,0.81-0.56,0.84-0.9c0.11-1.01,0.04-2.03,0.04-3.1
		c-1.94-0.25-3.62-0.52-5.32-0.68c-1.27-0.12-2.03-0.73-2.52-1.9c-0.58-1.4-1.21-2.78-1.96-4.09c-0.62-1.08-0.6-2,0.07-3.01
		C131.75,14.84,132.61,13.42,133.66,11.73z M86.22,110.35c-1.94,1.52-1.94,1.52-0.68,3.33c0.36,0.52,0.72,1.05,1.1,1.56
		c0.73,0.97,0.76,1.94,0.21,3.02c-0.51,1-1,2.03-1.3,3.1c-0.37,1.34-1.22,1.93-2.49,2.14c-1.2,0.2-2.39,0.42-3.54,0.63
		c-0.31,2.37-0.31,2.37,1.81,2.8c0.34,0.07,0.67,0.15,1.01,0.18c1.87,0.15,3.09,0.99,3.47,2.95c0.14,0.75,0.52,1.49,0.93,2.15
		c0.81,1.31,0.67,2.47-0.25,3.65c-0.69,0.89-1.28,1.84-1.9,2.74c0.6,0.64,1.15,1.23,1.75,1.87c2.42-1.72,4.64-4.19,7.81-1.59
		c4.09,0.45,3.6,3.97,4.27,6.65c0.87,0,1.59,0,2.5,0c0.43-2.83,0.19-6.17,4.23-6.65c3.27-2.77,5.42,0.26,7.58,1.51
		c0.8-0.59,1.43-1.04,2.03-1.48c-0.91-1.31-1.82-2.32-2.37-3.5c-0.35-0.74-0.38-1.77-0.18-2.59c0.3-1.22,0.96-2.34,1.39-3.54
		c0.41-1.15,1.16-1.74,2.35-1.91c1.24-0.17,2.46-0.44,3.62-0.65c0-0.94,0-1.7,0-2.51c-2.9-0.52-6.19-0.37-6.65-4.39
		c-2.55-3.18,0.17-5.33,1.58-7.56c-0.61-0.74-1.1-1.33-1.61-1.95c-1.22,0.84-2.28,1.54-3.3,2.29c-0.93,0.68-1.84,0.74-2.88,0.22
		c-1.09-0.54-2.23-0.99-3.38-1.41c-1.13-0.41-1.76-1.13-1.93-2.34c-0.18-1.25-0.46-2.48-0.7-3.74c-0.86,0-1.63,0-2.46,0
		c-0.53,2.83-0.3,6.15-4.32,6.63C90.68,114.57,88.54,111.89,86.22,110.35z M66.55,135.62c0-6.27,0-12.21,0-18.14
		c-3.82,0-7.53,0-11.29,0c0,3.71-0.19,7.34,0.06,10.94c0.22,3.26,2.12,5.65,5.27,6.56C62.46,135.53,64.52,135.42,66.55,135.62z
		 M141.31,71.75c-0.32-0.13-0.4-0.2-0.49-0.2c-10.14-0.01-20.29-0.01-30.43,0c-0.35,0-0.81,0.13-1.05,0.37
		c-1.49,1.52-2.94,3.09-4.56,4.83c0.55,0.07,0.82,0.13,1.09,0.13c9.9,0.01,19.8,0.01,29.7-0.01c0.45,0,1.02-0.14,1.32-0.44
		C138.36,74.94,139.77,73.39,141.31,71.75z M117.99,36.91c4-1.46,6.12-5.04,5.52-9.19c-0.53-3.66-3.83-6.71-7.49-6.92
		c-4.28-0.25-7.8,2.19-8.92,6.1c-0.29,1-0.07,1.52,0.91,1.89c1.42,0.53,2.74,1.33,4.18,1.77c2.9,0.89,4.86,2.56,5.45,5.64
		C117.68,36.42,117.85,36.62,117.99,36.91z M119.15,52.45c-1.65-4.23-3.16-8.09-4.68-11.95c-0.05-0.13-0.18-0.23-0.33-0.41
		c-1.25,2.85-2.48,5.64-3.74,8.5C113.32,49.88,116.08,51.09,119.15,52.45z"/>
	<path class="st0" d="M30.51,98.96c0.62,0.51,1.49,0.91,1.76,1.56c0.27,0.64,0.24,1.82-0.19,2.27c-2.53,2.73-5.18,5.35-7.86,7.92
		c-0.9,0.87-1.99,0.7-2.91-0.13c-0.95-0.86-1.1-2.06-0.2-3c2.55-2.65,5.16-5.23,7.78-7.8C29.25,99.45,29.82,99.31,30.51,98.96z"/>
	<path class="st0" d="M8.28,64.44c-1.67,0-3.33,0.03-5-0.01c-1.58-0.03-2.51-0.91-2.47-2.28c0.04-1.32,0.94-2.16,2.44-2.17
		c3.43-0.02,6.86-0.02,10.29,0c1.48,0.01,2.39,0.89,2.4,2.21c0.01,1.3-0.9,2.2-2.37,2.23C11.81,64.46,10.04,64.43,8.28,64.44z"/>
	<path class="st0" d="M22.05,12.55c0.78,0.5,1.38,0.75,1.81,1.17c2.42,2.36,4.81,4.74,7.18,7.15c1.13,1.15,1.14,2.5,0.1,3.49
		c-0.91,0.87-2.14,0.78-3.24-0.31c-2.44-2.41-4.9-4.79-7.22-7.31c-0.49-0.52-0.75-1.67-0.53-2.32
		C20.39,13.7,21.33,13.22,22.05,12.55z"/>
	<path class="st0" d="M109.64,125.48c0,5.58-4.54,10.13-10.07,10.08c-5.56-0.05-10.21-4.76-10.14-10.28
		c0.07-5.52,4.55-9.95,10.06-9.96C105.14,115.32,109.64,119.82,109.64,125.48z M99.69,130.99c3.06-0.02,5.52-2.49,5.52-5.52
		c-0.01-3.08-2.68-5.72-5.76-5.68c-3.03,0.04-5.46,2.52-5.45,5.58C93.99,128.56,96.47,131.01,99.69,130.99z"/>
</g>
</svg>
