<?xml version="1.0" encoding="utf-8"?>
<!-- Generator: Adobe Illustrator 26.3.1, SVG Export Plug-In . SVG Version: 6.00 Build 0)  -->
<svg version="1.1" id="레이어_1" xmlns="http://www.w3.org/2000/svg" xmlns:xlink="http://www.w3.org/1999/xlink" x="0px"
	 y="0px" viewBox="0 0 100 100" style="enable-background:new 0 0 100 100;" xml:space="preserve">
<style type="text/css">
	.st0{fill:none;}
	.st1{fill:#3678FE;}
</style>
<path class="st0" d="M-163.15,69.86c-3.25,0-6.45,0-9.64,0c0,0.99,0,1.89,0,2.85c3.3,0,6.47,0,9.64,0
	C-163.15,71.71-163.15,70.78-163.15,69.86z"/>
<path class="st0" d="M-202.88,69.84c-3.3,0-6.48,0-9.68,0c0,0.99,0,1.92,0,2.86c3.27,0,6.47,0,9.68,0
	C-202.88,71.71-202.88,70.8-202.88,69.84z"/>
<path class="st0" d="M-219.94,78.38c28.01,0,56.05,0,84.21,0c0-0.36,0-0.61,0-0.86c0.01-1.88,0.01-1.88-1.83-1.88
	c-26.71,0-53.42,0-80.14,0.01c-2.57,0-2.45-0.53-2.36,2.55C-220.06,78.24-219.99,78.29-219.94,78.38z"/>
<path class="st0" d="M-183.03,69.85c-3.25,0-6.44,0-9.66,0c0,0.98,0,1.89,0,2.87c3.27,0,6.44,0,9.66,0
	C-183.03,71.73-183.03,70.8-183.03,69.85z"/>
<path class="st0" d="M-143.26,69.86c-3.27,0-6.47,0-9.68,0c0,0.98,0,1.89,0,2.86c3.3,0,6.47,0,9.68,0
	C-143.26,71.71-143.26,70.78-143.26,69.86z"/>
<path class="st0" d="M-134.16,81.28c-29.24,0-58.47,0-87.71,0c-0.38,0-0.79-0.07-1.13,0.05c-0.27,0.09-0.61,0.4-0.64,0.64
	c-0.09,0.67-0.03,1.36-0.03,2.06c30.56,0,60.99,0,91.54,0c0-0.29,0-0.48,0-0.67C-132.11,81.28-132.11,81.28-134.16,81.28z"/>
<path class="st1" d="M95.12,91.48c0-0.48-0.03-0.86,0-1.23c0.26-2.69-1.27-4.57-4.41-4.33c-0.99,0.08-1.99,0.01-3.05,0.01
	c0-0.85,0-1.53,0-2.22c0-2.26-0.43-2.87-2.59-3.69c0-6.52,0-13.04,0-19.56c0-0.01,0-0.03,0-0.06c0-0.82,0-10.5,0-16.85
	c2.09-0.7,2.59-1.4,2.59-3.59c0-0.74,0-1.48,0-2.29c1.32,0,2.48,0.01,3.65,0c1.93-0.03,2.99-1.07,3.02-2.97c0.01-0.84,0-1.67,0-2.58
	c0.63,0,1.13,0.01,1.63,0c1.78-0.04,2.6-0.85,2.64-2.6c0.01-0.47-0.03-0.94,0.01-1.41c0.12-1.43-0.54-2.3-1.81-2.98
	C86.33,19.55,75.88,13.94,65.42,8.34c-0.28-0.15-0.55-0.32-0.85-0.4c-0.72-0.2-1.34-0.02-1.7,0.65c-0.36,0.67-0.2,1.29,0.4,1.75
	c0.27,0.21,0.58,0.37,0.89,0.54c10.21,5.46,20.4,10.94,30.63,16.37c0.92,0.49,1.12,1.05,0.85,1.97c-30.38,0-60.74,0-91.09,0
	c-0.28-0.92-0.08-1.47,0.81-1.93C20.24,19.6,35.1,11.88,49.95,4.14c0.6-0.31,1.04-0.35,1.64-0.01c1.89,1.07,3.82,2.09,5.75,3.09
	c1.12,0.58,2.2,0.06,2.26-1.04c0.05-0.78-0.44-1.19-1.06-1.52c-1.89-1.01-3.82-1.97-5.66-3.05c-1.44-0.85-2.72-0.77-4.19-0.01
	c-8.97,4.7-17.96,9.35-26.95,14.02c-6.16,3.2-12.31,6.41-18.48,9.58c-1.18,0.6-1.78,1.43-1.7,2.76c0.04,0.69-0.01,1.38,0.05,2.07
	c0.1,1.16,0.73,1.83,1.89,2c0.74,0.11,1.49,0.1,2.33,0.15c0,0.85-0.01,1.66,0,2.46c0.02,1.97,1.07,3,3.06,3.02
	c1.16,0.01,2.33,0,3.6,0c0,0.78,0,1.46,0,2.14c0,2.34,0.39,2.91,2.62,3.79c0,6.33,0,15.97,0,16.81c0,2.95,0,5.9,0,8.86
	c0,0.34-0.03,0.7,0.04,1.03c0.14,0.73,0.61,1.18,1.38,1.19c0.77,0.01,1.23-0.44,1.39-1.17c0.07-0.3,0.04-0.62,0.04-0.94
	c0-2.99,0-5.98,0-8.97c0,0.03,0,0.05,0,0.07c0-0.7,0-9.95,0-15.94c0-0.33,0-0.67,0-1c1.59,0,3.05,0,4.5,0c0,6.37,0,16.05,0,16.87
	c0,0.05,0,0.07,0,0.06c0,6.55,0,13.08,0,19.6c-1.53,0-3,0-4.5,0c0-0.7,0-1.32,0-1.95c0-2.07-0.37-2.77-1.45-2.75
	c-1.05,0.02-1.4,0.7-1.4,2.71c0,0.68,0,1.36,0,2.01c-2,0.59-2.61,1.4-2.62,3.36c0,0.8,0,1.61,0,2.51c-1.45,0-2.77-0.03-4.1,0.01
	c-1.95,0.06-3.3,1.43-3.36,3.36c-0.02,0.71,0,1.42,0,2.11c-0.24,0.07-0.36,0.11-0.48,0.13c-2.04,0.36-3.09,1.57-3.12,3.61
	c-0.01,0.63,0,1.25,0,1.88c0,2.21,0.66,2.88,2.87,2.88c30.51,0,61.03,0,91.54,0.02c1.31,0,2.27-0.36,2.84-1.55c0-1.44,0-2.88,0-4.33
	C98.03,92.52,96.93,91.52,95.12,91.48z M72.16,85.85c-1.46,0-2.86,0-4.39,0c0-0.71,0-1.42,0-2.13c0-2.31-0.39-2.87-2.58-3.7
	c0-6.52,0-13.04,0-19.56c0-0.01,0-0.03,0-0.06c0-0.82,0-10.49,0-16.83c2.18-0.81,2.58-1.38,2.58-3.7c0-0.69,0-1.37,0-2.2
	c0.77,0,1.48,0,2.2,0c0.69,0,1.38,0,2.2,0c0,0.89,0,1.7,0,2.5c0.01,1.97,0.63,2.78,2.57,3.34c0,6.38,0,16.09,0,16.89
	c0,0.04,0,0.07,0,0.06c0,6.53,0,13.06,0,19.62c-1.95,0.57-2.56,1.39-2.57,3.35C72.15,84.21,72.16,84.99,72.16,85.85z M52.3,85.87
	c-1.5,0-2.88,0-4.43,0c0-0.83,0-1.67,0-2.5c-0.01-1.94-0.57-2.69-2.51-3.29c0-6.52,0-13.07,0-19.62c0-0.01,0-0.03,0-0.06
	c0-0.81,0-10.51,0-16.89c1.92-0.59,2.5-1.34,2.51-3.27c0.01-0.81,0-1.62,0-2.5c1.49,0,2.89,0,4.43,0c0,0.8,0,1.57,0,2.34
	c0.01,2.09,0.51,2.78,2.53,3.45c0,6.37,0,16.06,0,16.87c0,0.05,0,0.07,0,0.06c0,6.53,0,13.06,0,19.59
	c-2.06,0.72-2.53,1.37-2.53,3.54C52.3,84.33,52.3,85.07,52.3,85.87z M35.3,83.02c3.22,0,6.41,0,9.66,0c0,0.95,0,1.87,0,2.85
	c-3.22,0-6.39,0-9.66,0C35.3,84.88,35.3,83.98,35.3,83.02z M42.37,60.46c0,6.52,0,13.05,0,19.64c-1.48,0-2.9,0-4.4,0
	c0-6.55,0-13.09,0-19.64c0-0.01,0-0.03,0-0.06c0-0.81,0-10.5,0-16.88c1.43,0,2.87,0,4.4,0c0,6.37,0,16.07,0,16.88
	C42.37,60.44,42.37,60.47,42.37,60.46z M35.31,40.56c0-0.97,0-1.87,0-2.83c3.2,0,6.37,0,9.63,0c0,0.92,0,1.84,0,2.83
	C41.78,40.56,38.58,40.56,35.31,40.56z M55.21,83.03c3.19,0,6.38,0,9.64,0c0,0.91,0,1.83,0,2.82c-3.17,0-6.34,0-9.64,0
	C55.21,84.91,55.21,84.01,55.21,83.03z M62.22,60.46c0,6.53,0,13.06,0,19.64c-1.5,0-2.92,0-4.41,0c0-6.55,0-13.09,0-19.64
	c0-0.01,0-0.03,0-0.06c0-0.81,0-10.5,0-16.88c1.46,0,2.9,0,4.41,0c0,6.37,0,16.08,0,16.88C62.22,60.44,62.22,60.47,62.22,60.46z
	 M55.23,40.59c0-0.95,0-1.87,0-2.86c3.18,0,6.35,0,9.6,0c0,0.91,0,1.83,0,2.86C61.64,40.59,58.47,40.59,55.23,40.59z M75.06,83.03
	c3.21,0,6.42,0,9.68,0c0,0.92,0,1.84,0,2.83c-3.21,0-6.39,0-9.68,0C75.06,84.9,75.06,84,75.06,83.03z M82.12,60.46
	c0,6.53,0,13.06,0,19.62c-1.45,0-2.9,0-4.41,0c0-6.53,0-13.06,0-19.62c0-0.01,0-0.03,0-0.06c0-0.8,0-10.52,0-16.92
	c1.5,0,2.92,0,4.41,0c0,6.39,0,16.12,0,16.92C82.12,60.44,82.12,60.47,82.12,60.46z M75.07,40.56c0-0.93,0-1.85,0-2.83
	c3.22,0,6.39,0,9.69,0c0,0.97,0,1.86,0,2.83C81.54,40.56,78.34,40.56,75.07,40.56z M8.74,34.75c0-0.89,0-1.7,0-2.57
	c27.56,0,55.08,0,82.67,0c0,0.82,0,1.65,0,2.57C63.89,34.75,36.35,34.75,8.74,34.75z M15.42,40.58c0-0.95,0-1.85,0-2.83
	c3.21,0,6.41,0,9.7,0c0,0.98,0,1.87,0,2.83C21.88,40.58,18.67,40.58,15.42,40.58z M25.46,43.51c1.94-0.56,2.56-1.38,2.57-3.35
	c0-0.78,0-1.56,0-2.42c1.46,0,2.86,0,4.39,0c0,0.71,0,1.42,0,2.13c0,2.31,0.39,2.87,2.58,3.7c0,6.34,0,16,0,16.83
	c0,0.05,0,0.07,0,0.06c0,6.52,0,13.04,0,19.56c-2.19,0.81-2.58,1.38-2.58,3.7c0,0.69,0,1.37,0,2.13c-1.46,0-2.86,0-4.39,0
	c0-0.82,0-1.62,0-2.43c-0.01-1.96-0.62-2.77-2.57-3.35c0-6.53,0-13.07,0-19.62c0-0.01,0-0.03,0-0.06
	C25.46,59.6,25.46,49.89,25.46,43.51z M15.44,83.01c3.2,0,6.39,0,9.68,0c0,0.95,0,1.85,0,2.83c-3.21,0-6.41,0-9.68,0
	C15.44,84.91,15.44,83.99,15.44,83.01z M10.3,88.76c26.71-0.01,53.42-0.01,80.14-0.01c1.84,0,1.84,0,1.83,1.87c0,0.25,0,0.49,0,0.85
	c-28.16,0-56.19,0-84.21,0c-0.06-0.08-0.12-0.13-0.12-0.19C7.86,88.23,7.73,88.76,10.3,88.76z M95.87,96.39c0,0.18,0,0.37,0,0.66
	c-30.55,0-60.98,0-91.54,0c0-0.69-0.06-1.37,0.03-2.03c0.03-0.24,0.38-0.55,0.64-0.64c0.34-0.11,0.75-0.05,1.13-0.05
	c29.24,0,58.47,0,87.71,0C95.89,94.34,95.89,94.34,95.87,96.39z"/>
</svg>
