<?xml version="1.0" encoding="utf-8"?>
<!-- Generator: Adobe Illustrator 26.3.1, SVG Export Plug-In . SVG Version: 6.00 Build 0)  -->
<svg version="1.1" id="레이어_1" xmlns="http://www.w3.org/2000/svg" xmlns:xlink="http://www.w3.org/1999/xlink" x="0px"
	 y="0px" viewBox="0 0 100 100" style="enable-background:new 0 0 100 100;" xml:space="preserve">
<style type="text/css">
	.st0{fill:#3678FE;}
</style>
<path class="st0" d="M51.02,62.69c-0.15,1.9-0.76,2.72-1.97,2.72c-1.21,0-1.81-0.81-1.97-2.71c-1.58-0.45-3.03-1.19-4.17-2.46
	c-1.15-1.28-1.81-2.76-1.89-4.48c-0.06-1.29,0.7-2.19,1.83-2.23c1.09-0.04,1.86,0.75,1.98,2.01c0.18,1.85,1.57,3.24,3.49,3.47
	c2.19,0.27,4.13-0.78,4.74-2.55c0.68-1.99-0.72-4.12-3.03-4.55c-0.94-0.17-1.91-0.16-2.84-0.36c-3.47-0.75-6-3.55-6.18-6.76
	c-0.19-3.39,1.9-6.34,5.36-7.49c0.6-0.2,0.77-0.46,0.77-1.06c-0.01-1.23,0.81-2.08,1.89-2.08c1.08,0,1.93,0.85,1.9,2.07
	c-0.02,0.7,0.27,0.9,0.85,1.1c3.1,1.05,5.21,3.76,5.28,6.69c0.03,1.09-0.51,1.9-1.4,2.13c-1.17,0.3-2.31-0.44-2.39-1.68
	c-0.11-1.69-0.94-2.82-2.46-3.43c-1.62-0.66-3.2-0.47-4.6,0.6c-1.18,0.9-1.63,2.27-1.25,3.55c0.44,1.46,1.83,2.54,3.48,2.72
	c1.04,0.12,2.11,0.16,3.11,0.45c3.26,0.94,5.49,3.83,5.52,7c0.03,3.15-2.08,5.97-5.3,7.08C51.54,62.52,51.3,62.6,51.02,62.69z
	 M0,84.63c0.17,0.77,0.32,1.55,0.52,2.32c1.65,6.31,6.84,10.94,13.28,11.86c0.18,0.03,0.36,0.11,0.53,0.17c1.15,0,2.29,0,3.44,0
	c0.92-0.21,1.86-0.38,2.77-0.64c2.72-0.78,5.04-2.22,7.03-4.23c2.26-2.28,4.53-4.55,6.86-6.88c0.29,0.27,0.55,0.5,0.79,0.74
	c3.24,3.24,6.48,6.49,9.73,9.72c0.47,0.47,1,0.86,1.5,1.29c0.38,0,0.76,0,1.15,0c0.41-0.34,0.86-0.65,1.24-1.02
	c2.06-2.04,4.11-4.09,6.15-6.15c1.24-1.24,1.24-2.21,0.02-3.44c-2.59-2.6-5.17-5.19-7.78-7.77c-0.24-0.24-0.62-0.34-0.94-0.5
	c0.52-0.46,0.74-0.57,0.97-0.68c16.26-7.49,32.52-14.98,48.78-22.46c2.2-1.01,2.43-2.26,0.7-3.99
	c-5.09-5.09-10.18-10.19-15.27-15.27c-0.25-0.24-0.59-0.39-0.84-0.56c4.48-6.56,2.79-13.39-0.77-17.26c-1.94-2.1-4.3-3.48-7.1-4.05
	c-3.91-0.79-7.5,0.05-10.8,2.38c-1.04-1.05-2.01-2.05-3-3.05c-4.39-4.4-8.78-8.79-13.18-13.18c-1.49-1.49-2.82-1.24-3.71,0.69
	c-0.01,0.03-0.02,0.06-0.04,0.09c-8.79,19.11-17.57,38.22-26.37,57.32c-0.27,0.59-0.68,1.15-1.13,1.62
	c-3.22,3.27-6.47,6.51-9.72,9.74c-2.15,2.14-3.61,4.67-4.35,7.61C0.29,79.75,0.15,80.47,0,81.18C0,82.33,0,83.48,0,84.63z
	 M85.63,57.54c-15.8,7.28-31.61,14.54-47.4,21.85c-0.75,0.34-1.15,0.23-1.7-0.32c-5.56-5.61-11.15-11.2-16.75-16.77
	c-0.44-0.44-0.58-0.76-0.29-1.38c6.87-14.88,13.71-29.77,20.56-44.66c0.1-0.23,0.23-0.45,0.46-0.9c0.83,0.9,1.56,1.74,2.33,2.53
	c2.06,2.09,4.14,4.15,6.21,6.22c0.68,0.68,1.48,0.88,2.35,0.41c0.78-0.43,1.15-1.16,0.93-2.01c-0.13-0.49-0.47-0.97-0.84-1.34
	c-2.89-2.93-5.79-5.84-8.72-8.72c-0.52-0.51-0.61-0.9-0.29-1.55c0.74-1.48,1.4-2.99,2.04-4.39C60.5,22.45,76.45,38.42,92.43,54.4
	C90.24,55.41,87.93,56.48,85.63,57.54z M18.98,94.8C13.83,96,8.55,93.91,5.72,89.45c-2.82-4.44-2.64-10.32,0.9-14.23
	c3.24-3.58,6.88-6.79,10.26-10.08c5.59,5.6,11.32,11.33,16.99,16.99c-1.26,1.26-2.65,2.65-4.1,4.11c-1.99-2-4.07-4.1-6.16-6.2
	c-0.25-0.25-0.49-0.51-0.75-0.74c-0.88-0.78-1.97-0.77-2.73,0.02c-0.71,0.74-0.72,1.86,0.06,2.67c1.3,1.35,2.64,2.67,3.98,4
	c0.99,0.99,2,1.96,3.07,3C24.82,91.58,22.48,93.98,18.98,94.8z M76.71,22.13c3.2,3.16,3.78,8.51,1.34,11.8
	c-4.34-4.34-8.69-8.7-13.05-13.07C68.18,18.44,73.52,18.98,76.71,22.13z M47.15,94.1c-3.21-3.22-6.46-6.48-9.77-9.81
	c0.22-0.17,0.57-0.55,1.01-0.77c1.25-0.62,2.53-1.2,3.82-1.74c0.24-0.1,0.71-0.06,0.88,0.12c2.7,2.66,5.37,5.35,8.05,8.04
	c0.04,0.04,0.05,0.11,0.06,0.13C49.8,91.44,48.43,92.81,47.15,94.1z M96.73,1.26c-0.75-0.5-1.55-0.22-2.17,0.4
	c-3.41,3.39-6.81,6.79-10.19,10.2c-0.85,0.86-0.85,1.96-0.1,2.73c0.77,0.81,1.92,0.83,2.8-0.05c3.39-3.36,6.77-6.74,10.12-10.14
	c0.36-0.36,0.54-0.89,0.93-1.56C97.63,2.27,97.28,1.62,96.73,1.26z M71.91,3.09c-0.02-1.21-0.75-2.01-1.82-2.05
	C69,1,68.13,1.82,68.11,3.05c-0.04,2.68-0.04,5.36,0,8.03c0.02,1.23,0.89,2.04,1.98,2c1.07-0.04,1.79-0.83,1.81-2.05
	c0.02-1.31,0.01-2.61,0.01-3.92C71.92,5.77,71.94,4.43,71.91,3.09z M87.97,27.02c-1.32,0.02-2.15,0.78-2.13,1.92
	c0.01,1.08,0.85,1.89,2.08,1.9c2.64,0.02,5.27,0.03,7.91,0c1.22-0.01,2.05-0.85,2.04-1.93c-0.01-1.1-0.83-1.85-2.08-1.87
	c-1.3-0.02-2.6,0-3.91,0C90.57,27.02,89.27,27,87.97,27.02z M55.54,29.79c1.04,0.01,1.9-0.81,1.93-1.84
	c0.03-1.05-0.87-1.96-1.93-1.94c-1.04,0.01-1.86,0.85-1.86,1.9C53.68,28.96,54.49,29.78,55.54,29.79z M16.43,73.68
	c-1.05,0.01-1.89,0.83-1.9,1.87c-0.01,1.06,0.91,1.96,1.97,1.92c1.03-0.04,1.86-0.92,1.85-1.94C18.33,74.49,17.49,73.68,16.43,73.68
	z"/>
</svg>
