<?xml version="1.0" encoding="utf-8"?>
<!-- Generator: Adobe Illustrator 26.3.1, SVG Export Plug-In . SVG Version: 6.00 Build 0)  -->
<svg version="1.1" id="레이어_1" xmlns="http://www.w3.org/2000/svg" xmlns:xlink="http://www.w3.org/1999/xlink" x="0px"
	 y="0px" viewBox="0 0 100 100" style="enable-background:new 0 0 100 100;" xml:space="preserve">
<style type="text/css">
	.st0{fill:#3678FE;}
</style>
<path class="st0" d="M99,98.36c-0.57,1.05-1.44,1.38-2.62,1.38c-31.13-0.02-62.26-0.02-93.39-0.02c-0.19,0-0.39,0.01-0.58,0
	c-1.17-0.05-2-0.84-2.01-1.92c-0.01-1.08,0.81-1.91,1.97-1.96c0.45-0.02,0.9,0,1.49,0c0-0.38,0-0.72,0-1.06c0-5.93,0-11.87,0-17.8
	c0-1.92,0.63-2.54,2.55-2.54c4.75,0,9.5,0,14.25,0c1.78,0,2.45,0.67,2.45,2.45c0,5.93,0,11.87,0,17.8c0,0.35,0,0.7,0,1.1
	c1.55,0,3.01,0,4.62,0c0-0.36,0-0.74,0-1.11c0-10.02,0-20.03,0-30.05c0-2.01,0.6-2.63,2.56-2.64c4.75,0,9.5,0,14.25,0
	c1.78,0,2.45,0.67,2.45,2.46c0,10.05,0,20.1,0,30.15c0,0.38,0,0.76,0,1.19c1.81,0,3.53,0,5.39,0c0-0.37,0-0.74,0-1.12
	c0-14.01,0-28.01,0-42.02c0-2.15,0.57-2.73,2.66-2.73c4.72,0,9.44,0,14.15,0c1.77,0,2.44,0.68,2.44,2.46c0,14.07,0,28.14,0,42.21
	c0,0.38,0,0.76,0,1.19c1.56,0,3.02,0,4.62,0c0-0.34,0-0.68,0-1.02c0-5.19,0-10.37,0-15.56c0-1.31,0.7-2.15,1.8-2.23
	c1.17-0.08,2.04,0.82,2.05,2.17c0.01,4.02,0,8.04,0,12.06c0,1.51,0,3.03,0,4.59c3.87,0,7.64,0,11.49,0c0-18.24,0-36.47,0-54.76
	c-3.8,0-7.6,0-11.49,0c0,0.38,0,0.73,0,1.08c0,5.64,0,11.28,0,16.92c0,0.32,0.02,0.65-0.02,0.97c-0.11,1.04-0.96,1.8-1.95,1.77
	c-0.96-0.02-1.75-0.76-1.87-1.76c-0.03-0.26-0.02-0.52-0.02-0.78c0-6.55,0-13.1,0-19.65c0-1.87,0.64-2.52,2.49-2.52
	c4.78,0,9.56,0,14.35,0c1.77,0,2.42,0.67,2.42,2.48c0,18.32,0,36.63,0,54.95c0,0.39,0,0.77,0,1.31c1.35-0.04,2.76-0.15,3.47,1.37
	C99,97.58,99,97.97,99,98.36z M67.74,95.79c0-14.02,0-27.97,0-41.9c-3.86,0-7.66,0-11.44,0c0,14,0,27.93,0,41.9
	C60.12,95.79,63.89,95.79,67.74,95.79z M43.08,95.79c0-10.01,0-19.94,0-29.84c-3.87,0-7.66,0-11.44,0c0,9.98,0,19.89,0,29.84
	C35.47,95.79,39.24,95.79,43.08,95.79z M19.2,95.83c0-5.9,0-11.68,0-17.43c-3.86,0-7.66,0-11.44,0c0,5.83,0,11.59,0,17.39
	c0.2,0.01,0.35,0.03,0.51,0.03C11.89,95.83,15.51,95.83,19.2,95.83z M99,16.66c-0.18,0.71-0.34,1.43-0.53,2.14
	c-2.02,7.39-9.1,11.93-16.64,10.68c-7.26-1.21-12.56-8.04-12.07-15.59c0.43-6.77,5.61-12.51,12.26-13.58
	c0.21-0.03,0.42-0.13,0.62-0.19c1.16,0,2.31,0,3.47,0c0.18,0.06,0.35,0.15,0.53,0.18c6.2,1.21,10.15,4.9,11.93,10.99
	c0.18,0.61,0.3,1.24,0.44,1.86C99,14.32,99,15.49,99,16.66z M82.38,25.56c0.11-1.28,0.1-1.26-0.9-1.81c-1.81-0.99-2.95-2.47-3.1-4.6
	c-0.1-1.31,0.56-2.2,1.66-2.31c1.14-0.12,1.92,0.55,2.16,1.85c0.28,1.53,1.67,2.28,3.11,1.69c0.74-0.31,1.24-0.82,1.22-1.68
	c-0.02-0.87-0.57-1.37-1.32-1.6c-0.51-0.16-1.07-0.17-1.61-0.22c-2.47-0.24-4.67-2.19-5.15-4.57c-0.5-2.46,0.71-5,3.11-6.08
	c1.07-0.48,0.94-1.13,0.83-1.96c-5.14,0.97-8.81,5.48-8.79,10.72C73.6,20.15,77.35,24.69,82.38,25.56z M86.37,4.24
	c-0.28,1.01-0.02,1.57,0.97,2.05c1.84,0.91,2.91,2.5,3.02,4.63c0.06,1.24-0.61,2.09-1.68,2.21c-1.04,0.12-1.9-0.59-2.13-1.79
	c-0.27-1.4-1.03-2.01-2.4-1.93c-1.12,0.07-1.93,0.81-1.94,1.76c-0.01,0.93,0.71,1.65,1.81,1.79c0.51,0.07,1.02,0.09,1.53,0.17
	c2.41,0.4,4.45,2.43,4.78,4.72c0.35,2.47-0.84,4.84-3.16,5.88c-0.98,0.44-0.96,1.01-0.81,1.81c4.93-0.81,8.72-5.35,8.79-10.48
	C95.21,9.79,91.55,5.23,86.37,4.24z M43.53,49.81c-3.2-3.24-6.51-6.59-9.82-9.94c-1.39-1.41-2.24-1.4-3.65,0.02
	c-6.67,6.74-13.34,13.48-20.01,20.22c-0.23,0.23-0.47,0.45-0.65,0.71c-0.53,0.75-0.45,1.76,0.15,2.42c0.64,0.71,1.65,0.85,2.45,0.31
	c0.32-0.21,0.58-0.5,0.85-0.78c6.08-6.14,12.17-12.28,18.24-18.43c0.25-0.25,0.42-0.57,0.63-0.86c0.13-0.03,0.27-0.06,0.4-0.08
	c0.19,0.31,0.32,0.66,0.56,0.91c3.05,3.11,6.12,6.2,9.18,9.29c1.44,1.46,2.28,1.45,3.73-0.01c6.85-6.92,13.71-13.85,20.56-20.77
	c0.24-0.24,0.49-0.46,0.73-0.69c0.08,0.07,0.12,0.09,0.12,0.11c0.01,0.78,0.02,1.55,0.03,2.33c0.02,1.34,0.77,2.19,1.93,2.19
	c1.15,0,1.91-0.85,1.92-2.19c0.01-2.37,0.01-4.73,0-7.1c-0.01-1.41-0.74-2.17-2.14-2.19c-2.37-0.03-4.75-0.03-7.12,0
	c-1.28,0.01-2.09,0.79-2.1,1.91c-0.01,1.18,0.79,1.93,2.14,1.96c0.79,0.02,1.58,0,2.31,0C57.14,36.05,50.36,42.91,43.53,49.81z
	 M6.02,65.08c-1.07-0.04-1.93,0.75-1.98,1.81c-0.05,1.1,0.8,2.03,1.87,2.06c1.01,0.02,1.92-0.86,1.96-1.89
	C7.9,66.03,7.06,65.12,6.02,65.08z M78.29,67.04c-1.07-0.05-1.98,0.81-2.01,1.89c-0.02,1.02,0.82,1.93,1.83,1.98
	c1.05,0.05,1.98-0.83,2-1.9C80.14,67.97,79.32,67.08,78.29,67.04z"/>
</svg>
