<?xml version="1.0" encoding="utf-8"?>
<!-- Generator: Adobe Illustrator 26.3.1, SVG Export Plug-In . SVG Version: 6.00 Build 0)  -->
<svg version="1.1" id="레이어_1" xmlns="http://www.w3.org/2000/svg" xmlns:xlink="http://www.w3.org/1999/xlink" x="0px"
	 y="0px" viewBox="0 0 100 100" style="enable-background:new 0 0 100 100;" xml:space="preserve">
<style type="text/css">
	.st0{fill:#3678FE;}
</style>
<path class="st0" d="M0.34,9.76C0.49,9.21,0.62,8.65,0.8,8.1c1.18-3.55,4.5-6.06,8.26-6.07C25,2,40.94,1.97,56.88,2.04
	c6.6,0.03,10.74,7.16,7.69,13.01c-0.13,0.25-0.27,0.5-0.49,0.9c0.46,0,0.79,0,1.13,0c4.81,0,9.62-0.03,14.42,0.01
	c3.77,0.03,7.02,2.39,8.28,5.91c1.26,3.53,0.22,7.38-2.67,9.81c-1.59,1.33-3.43,2.04-5.5,2.08c-1.68,0.03-3.35,0.01-5.11,0.01
	c0.34,0.95,0.73,1.58,1.78,1.95c12.76,4.43,20.59,13.28,22.66,26.64c2.68,17.33-8.85,33.62-26.01,36.96
	c-11.44,2.22-21.43-0.96-29.81-9.07c-0.53-0.52-1.04-0.72-1.77-0.72c-7.26,0.02-14.52,0.04-21.78,0c-5.17-0.03-9.16-4.29-8.87-9.44
	c0.15-2.57,1.3-4.69,3.33-6.41c-2.11-1.87-3.33-4.14-3.34-6.94c-0.01-2.81,1.16-5.11,3.33-7.01c-2.09-1.85-3.32-4.12-3.33-6.92
	c-0.01-2.82,1.16-5.11,3.49-7.15c-0.31-0.19-0.63-0.31-0.84-0.53c-2.61-2.77-3.35-5.97-2.03-9.55c1.23-3.34,4.49-5.59,8.06-5.66
	c1.68-0.03,3.35-0.01,5.2-0.01c-1.95-3.35-2.02-6.65,0-10.02c-0.43-0.02-0.76-0.05-1.09-0.05c-4.61,0-9.23,0-13.84,0
	c-4.81,0-8.12-2.62-9.24-7.3c-0.04-0.15-0.11-0.3-0.16-0.44C0.34,11.31,0.34,10.53,0.34,9.76z M66.57,38.03
	c-16.01-0.01-29.06,13.04-29.05,29.05c0.01,15.97,13.01,28.99,28.98,29.03c16.01,0.04,29.08-13,29.1-29.01
	C95.63,51.1,82.58,38.04,66.57,38.03z M33.01,5.89c-7.84,0-15.68,0-23.52,0c-2.46,0-4.41,1.39-5.06,3.58
	c-0.97,3.28,1.43,6.47,4.93,6.48c6.13,0.02,12.26,0.01,18.39,0.01c9.52,0,19.04-0.01,28.55,0.01c1.38,0,2.62-0.33,3.67-1.24
	c1.61-1.39,2.17-3.56,1.44-5.54c-0.74-2.01-2.56-3.3-4.77-3.3C48.75,5.88,40.88,5.89,33.01,5.89z M55.72,29.9
	c7.87,0,15.74,0.01,23.62,0c2.44,0,4.4-1.43,5.03-3.62c0.95-3.28-1.47-6.43-4.98-6.44c-9.1-0.02-18.2-0.01-27.29-0.01
	c-6.61,0-13.23-0.01-19.84,0c-2.43,0-4.38,1.46-4.99,3.67c-0.9,3.26,1.48,6.38,4.94,6.39C40.04,29.91,47.88,29.9,55.72,29.9z
	 M68.61,34.31c0-0.13,0.01-0.25,0.01-0.38c-0.69-0.05-1.37-0.15-2.06-0.15c-12.42-0.01-24.85-0.01-37.27-0.01
	c-3.19,0-6.39-0.02-9.58,0.01c-2.29,0.02-4.23,1.49-4.84,3.62c-0.94,3.29,1.47,6.43,4.98,6.44c7.45,0.02,14.91,0,22.36,0.02
	c0.72,0,1.25-0.19,1.79-0.7c5.54-5.17,12.06-8.19,19.63-8.83C65.28,34.19,66.95,34.31,68.61,34.31z M39.9,47.78
	c-0.25-0.04-0.34-0.06-0.43-0.06c-6.61,0-13.21-0.01-19.82,0.01c-0.54,0-1.09,0.11-1.6,0.29c-2.28,0.78-3.71,3.16-3.32,5.49
	c0.4,2.44,2.42,4.25,4.89,4.27c4.51,0.04,9.02,0.01,13.54,0.01c1.79,0,1.8,0,2.37-1.63C36.55,53.19,38.02,50.45,39.9,47.78z
	 M34.43,75.6c-4.85,0-9.91-0.05-14.97,0.02c-2.04,0.03-3.54,1.15-4.37,3.01c-1.46,3.31,0.95,6.99,4.62,7.01
	c6.39,0.04,12.77,0.01,19.16,0.01c0.11,0,0.23-0.02,0.17-0.02C37.53,82.34,36.02,79.05,34.43,75.6z M33.84,61.68
	c-0.02,0-0.15-0.02-0.27-0.02c-4.64,0-9.28-0.01-13.93,0.01c-0.54,0-1.09,0.12-1.6,0.29c-2.25,0.77-3.66,3.08-3.33,5.39
	c0.34,2.43,2.37,4.33,4.81,4.35c4.71,0.05,9.41,0.01,14.12,0.01c0.09,0,0.18-0.06,0.2-0.07C33.84,68.33,33.84,65.06,33.84,61.68z
	 M69.31,79.67c3.26-1.12,5.4-3.97,5.37-7.17c-0.03-3.21-2.29-6.14-5.59-7.09c-1.01-0.29-2.09-0.33-3.15-0.45
	c-1.67-0.19-3.08-1.27-3.52-2.76c-0.39-1.3,0.07-2.69,1.27-3.6c1.42-1.08,3.02-1.28,4.66-0.61c1.53,0.62,2.38,1.77,2.49,3.48
	c0.08,1.25,1.23,2.01,2.42,1.7c0.9-0.23,1.45-1.05,1.42-2.15c-0.07-2.97-2.21-5.72-5.35-6.78c-0.59-0.2-0.88-0.41-0.86-1.11
	c0.03-1.24-0.83-2.1-1.92-2.1c-1.09,0-1.92,0.86-1.91,2.11c0,0.61-0.16,0.87-0.78,1.07c-3.5,1.16-5.61,4.15-5.42,7.58
	c0.18,3.26,2.73,6.09,6.25,6.85c0.94,0.2,1.92,0.19,2.87,0.36c2.34,0.43,3.75,2.59,3.07,4.6c-0.61,1.79-2.58,2.85-4.8,2.58
	c-1.94-0.24-3.36-1.64-3.53-3.51c-0.12-1.28-0.91-2.07-2.01-2.03c-1.14,0.04-1.91,0.95-1.85,2.26c0.08,1.74,0.75,3.24,1.91,4.54
	c1.15,1.28,2.62,2.03,4.22,2.49c0.16,1.93,0.77,2.75,1.99,2.75c1.23,0,1.84-0.83,1.99-2.75C68.83,79.83,69.07,79.75,69.31,79.67z
	 M85.63,50.65c-2.25-2.63-4.94-4.7-8.06-6.21c-0.76-0.37-1.59-0.42-2.15,0.22c-0.4,0.46-0.76,1.24-0.64,1.77
	c0.12,0.59,0.73,1.16,1.26,1.55c1.62,1.21,3.48,2.14,4.94,3.51c7.08,6.58,8.79,16.35,4.55,25.23c-0.64,1.35-0.39,2.45,0.69,2.98
	c1.09,0.54,2.1,0.07,2.78-1.28c1.8-3.57,2.67-7.37,2.72-11.68C91.65,60.86,89.66,55.37,85.63,50.65z M44.11,55.7
	c-4.89,9.69-3.08,21.32,4.53,29.05c2.01,2.04,4.3,3.69,6.87,4.95c1.09,0.53,2.17,0.21,2.69-0.73c0.54-0.98,0.18-2.07-0.9-2.7
	c-0.33-0.2-0.68-0.36-1.02-0.55c-8.14-4.4-12.6-14.16-10.48-23.15c0.44-1.86,1.25-3.64,1.95-5.43c0.56-1.45-0.2-2.83-1.65-2.86
	C45.19,54.24,44.65,54.64,44.11,55.7z M69.55,41.9c-1.1-0.01-2,0.84-2.01,1.91c-0.01,1.07,0.86,1.95,1.96,1.96
	c1.11,0.01,2-0.83,2.02-1.91C71.53,42.79,70.65,41.92,69.55,41.9z M65.58,90.3c0-1.07-0.89-1.93-1.99-1.93
	c-1.11,0-1.99,0.86-1.99,1.93c0,1.07,0.89,1.93,1.99,1.93C64.7,92.24,65.59,91.38,65.58,90.3z"/>
</svg>
