<?xml version="1.0" encoding="utf-8"?>
<!-- Generator: Adobe Illustrator 26.3.1, SVG Export Plug-In . SVG Version: 6.00 Build 0)  -->
<svg version="1.1" id="레이어_1" xmlns="http://www.w3.org/2000/svg" xmlns:xlink="http://www.w3.org/1999/xlink" x="0px"
	 y="0px" viewBox="0 0 400 400" style="enable-background:new 0 0 400 400;" xml:space="preserve">
<style type="text/css">
	.st0{fill:#FFFFFF;}	g{padding:10px}
	#check{
		animation: check .5s infinite ease-out alternate;}
	@keyframes check{
		0%{opacity: 0;}
		100%{opacity: 1;}
	}
</style>
<path class="st0" d="M201.69,398.69c-6.32-1.76-12.71-3.29-18.94-5.3C119.54,373.04,75.6,332.02,51.35,270.17
	c-8.65-22.08-12.9-45.13-12.95-68.85c-0.1-44.9-0.04-89.79-0.03-134.69c0-5.37,1.58-7.49,6.77-9.12
	C96.94,41.26,148.72,24.99,200.55,8.89c2.59-0.81,5.87-0.81,8.47-0.01c51.57,16.02,103.09,32.2,154.61,48.38
	c6.2,1.95,7.49,3.78,7.49,10.14c0,43.75,0.04,87.51-0.01,131.26C371,290.92,309.93,370.82,220.92,395.2
	c-4.37,1.2-8.75,2.33-13.13,3.49C205.76,398.69,203.72,398.69,201.69,398.69z M355.88,140.71c0-21.88-0.08-43.76,0.08-65.63
	c0.02-3.26-1.01-4.52-4.06-5.47c-47.59-14.8-95.12-29.78-142.72-44.54c-2.68-0.83-6.06-0.81-8.74,0.02
	c-47.71,14.78-95.35,29.77-143.04,44.59c-2.93,0.91-3.88,2.09-3.87,5.22c0.13,40.83-0.24,81.66,0.27,122.48
	c0.16,13.26,1,26.85,4.06,39.69c18.03,75.53,64.87,123.71,139.74,144.48c3.21,0.89,6.89,1.57,10.03,0.89
	c7.78-1.69,15.54-3.8,23.04-6.5c75.81-27.28,125-97.44,125.22-178.37C355.92,178.61,355.88,159.66,355.88,140.71z"/>
<path class="st0" d="M328.36,152.83c0,16.66,0.23,33.33-0.05,49.98c-0.42,24.79-6.64,48.16-18.07,70.15
	c-2.45,4.73-6.6,6.31-10.68,4.27c-4.07-2.03-5.43-6.5-3.05-11.11c8.18-15.84,13.46-32.57,15.47-50.28
	c0.66-5.8,1.09-11.66,1.11-17.49c0.11-30.78,0.02-61.56,0.11-92.34c0.01-2.7-0.69-3.97-3.41-4.81
	c-34.16-10.59-68.26-21.35-102.41-31.95c-1.67-0.52-3.79-0.38-5.49,0.14c-33.78,10.48-67.51,21.12-101.31,31.54
	c-3.44,1.06-4.33,2.59-4.32,6.07c0.15,30.4-0.62,60.81,0.24,91.19c1.76,63.02,31.56,108.03,88.9,134.59
	c1.49,0.69,3.14,1.07,4.58,1.85c10.09,5.4,19.92,4.43,30.15-0.11c11.06-4.91,21.86-10.16,31.71-17.25c0.52-0.37,1.04-0.73,1.58-1.07
	c4.12-2.67,8.58-2.06,11.16,1.51c2.52,3.5,1.79,8.41-2.32,10.95c-9.27,5.73-18.51,11.64-28.28,16.4c-7.92,3.86-16.54,6.36-25,9
	c-2.6,0.81-5.86,0.77-8.5,0c-55.16-16.1-92.47-51.22-111.43-105.5c-5.52-15.8-7.97-32.24-7.94-49.03
	c0.05-33.7,0.01-67.41,0.02-101.11c0-5.87,1.49-7.83,7.15-9.6c37.15-11.65,74.27-23.37,111.48-34.83c3.05-0.94,6.89-0.98,9.93-0.05
	c37.07,11.41,74.06,23.08,111.06,34.71c6.41,2.01,7.64,3.77,7.64,10.41c0,17.93,0,35.87,0,53.8
	C328.37,152.83,328.36,152.83,328.36,152.83z"/>
<path class="st0" d="M288.84,298.85c-0.03,4.4-3.31,7.57-7.74,7.49c-4.13-0.07-7.46-3.37-7.53-7.46c-0.07-4.13,3.52-7.75,7.69-7.76
	C285.58,291.11,288.87,294.47,288.84,298.85z"/>
<path id="check" class="st0" d="M191.59,191.32c0.9-1.52,1.4-2.95,2.37-3.93c14.15-14.25,28.36-28.45,42.56-42.65
	c5.59-5.59,8.96-5.59,14.51-0.05c7.56,7.54,15.11,15.09,22.65,22.65c5.03,5.05,5.08,8.76,0.13,13.72
	c-25.34,25.36-50.69,50.71-76.05,76.05c-4.94,4.93-8.79,4.93-13.7,0.02c-16.1-16.08-32.19-32.17-48.27-48.27
	c-5.06-5.06-5.09-8.67-0.1-13.69c7.71-7.75,15.44-15.48,23.19-23.2c4.85-4.83,8.6-4.89,13.39-0.13
	C178.4,177.94,184.44,184.1,191.59,191.32z M190.19,241.13c22.64-22.63,45.14-45.12,66.98-66.95c-4.32-4.44-9.05-9.32-14.18-14.59
	c-0.71,0.85-1.53,1.99-2.51,2.97c-14.1,14.12-28.21,28.23-42.33,42.33c-5.49,5.48-9.03,5.49-14.5,0.02
	c-5.92-5.91-11.82-11.84-17.37-17.42c-5.15,5.15-10.05,10.05-14.84,14.84C164.37,215.28,177.56,228.49,190.19,241.13z"/>
</svg>
