<?xml version="1.0" encoding="utf-8"?>
<!-- Generator: Adobe Illustrator 26.3.1, SVG Export Plug-In . SVG Version: 6.00 Build 0)  -->
<svg version="1.1" id="레이어_1" xmlns="http://www.w3.org/2000/svg" xmlns:xlink="http://www.w3.org/1999/xlink" x="0px"
	 y="0px" viewBox="0 0 400 400" style="enable-background:new 0 0 400 400;" xml:space="preserve">
<style type="text/css">
	.st0{fill:#FFFFFF;}
	g{padding: 10px;}
	#plan{
		animation: plan .5s infinite ease-out alternate;
	}
	@keyframes plan{
		0%{transform: translateY(-5px);}
		100%{transform: translateY(20px);}
	}
</style>
<g>
	<path class="st0" d="M392.88,290.32c-0.1-0.19-0.21-0.37-0.31-0.55c-0.17-0.29-0.33-0.56-0.41-0.79
		c-3.21-9.37-9.88-14.99-19.3-16.23c-2.56-0.34-5.15-0.03-7.65,0.27c-0.66,0.08-1.33,0.16-2,0.23c-1.68-7.23-6.15-12.87-12.41-15.58
		c-6.64-2.88-14.54-2.06-21.14,2.2c-2.1,1.35-4.34,2.46-6.72,3.64c-0.53,0.26-1.06,0.52-1.59,0.79
		c-1.72-7.23-6.14-12.85-12.35-15.59c-6.66-2.94-14.37-2.09-21.15,2.33c-1.39,0.91-2.89,1.68-4.47,2.49
		c-0.18,0.09-0.35,0.18-0.53,0.27c-2.57-10.13-8.09-15.78-17.25-17.73c-6.33-1.34-11.8,0.99-15.37,2.87
		c-22.1,11.62-44.96,23.64-67.51,35.32c-1.4,0.72-3.45,0.98-4.67,0.59c-20.8-6.73-40.2-8.47-59.31-5.33
		c-6.19,1.02-12.32,2.77-18.25,4.47l-0.73,0.21c-3.8,1.08-5.89,4.77-4.86,8.57c1.07,3.95,4.38,5.94,8.64,5.18
		c0.87-0.16,1.69-0.42,2.48-0.68l0.58-0.19c17.72-5.59,35.19-6.31,51.95-2.16c14.81,3.67,30.12,7.46,46.37,6.02
		c2.38-0.21,4.86-0.15,7.26-0.09c1.15,0.03,2.3,0.05,3.45,0.05c3.77,0,7.53,0,11.3,0c9.29-0.01,18.91-0.01,28.36,0.04
		c4.59,0.02,7.93,2.82,8.33,6.95c0.46,4.76-2.12,8.14-6.9,9.04c-2.47,0.46-5.14,0.87-8.4,1.28c-14.74,1.84-29.48,3.68-44.22,5.52
		c-13.8,1.72-27.61,3.44-41.41,5.17c-4.53,0.57-7.49,3.42-7.55,7.26c-0.06,3.93,3.08,6.92,7.81,7.46c1.26,0.14,2.52,0.29,3.78,0.44
		c2.08,0.24,4.17,0.49,6.25,0.71c4.59,0.5,9.26,1.08,13.77,1.64c10.11,1.26,20.56,2.55,30.91,3.01
		c33.51,1.47,65.69-6.03,95.64-22.29c10.51-5.71,21.14-11.62,31.41-17.34c6.85-3.81,13.7-7.62,20.57-11.41
		c4.73-2.61,9.78-1.4,12.28,2.94c1.18,2.04,1.49,4.25,0.91,6.39c-0.64,2.37-2.37,4.45-4.85,5.86c-2.29,1.3-4.65,2.57-6.93,3.8
		c-1.18,0.63-2.36,1.27-3.54,1.91l-10.64,5.8c-10.56,5.76-21.12,11.51-31.66,17.3c-2.41,1.32-3.9,2.98-4.42,4.93
		c-0.46,1.71-0.13,3.59,0.98,5.42c1.09,1.82,2.87,3.58,5.65,3.58c1.33,0,2.89-0.4,4.71-1.39c5.2-2.82,10.39-5.67,15.57-8.52
		c10.56-5.8,21.49-11.81,32.35-17.45c6.87-3.57,14.29-8.56,17.29-18.47l0.06-0.21v-9.58L392.88,290.32z M306.98,269.4
		c-0.58,1.9-2.22,3.61-4.75,4.95c-6.51,3.45-13.03,6.88-19.31,10.19l-6.74,3.55l-9.57-9.14c0.04-0.02,0.08-0.04,0.12-0.07
		c9.82-5.34,19.64-10.67,29.48-15.97c2.48-1.33,4.79-1.73,6.68-1.16c1.48,0.45,2.66,1.48,3.51,3.06
		C307.24,266.39,307.43,267.93,306.98,269.4z M277.13,305.84c0.5-1.34,1.57-2.69,2.54-3.21c12.73-6.81,25.72-13.66,38.28-20.28
		c6.71-3.54,13.42-7.08,20.12-10.62c2.02-1.07,3.54-1.45,4.71-1.45c1.46,0,2.36,0.6,2.98,1.17c1.6,1.48,2.85,4.15,2.92,6.2
		c0.05,1.48-1.38,3.98-2.69,4.69c-5.53,3.02-11.08,6.21-16.45,9.3c-17.87,10.28-36.35,20.92-56.74,26.7
		c-14.73,4.17-29.5,6.44-44.08,6.78c10.17-1.29,20.62-2.64,30.88-4.15C267.95,319.74,273.85,314.65,277.13,305.84z M265.48,263.08
		c-6.29,3.56-12.77,7.04-19.04,10.41l-4.53,2.44c-0.45,0.25-1,0.4-1.42,0.4c-9.51,0.03-19.01,0.03-28.52,0.03l-2.04,0
		c2.49-1.32,4.98-2.64,7.48-3.95c3.18-1.66,6.35-3.34,9.52-5.01c9.86-5.2,20.07-10.57,30.19-15.65c1.97-0.99,4.86-1.37,7.19-0.95
		c2.35,0.42,3.97,2.47,4.34,5.49C269.02,259.3,267.9,261.71,265.48,263.08z"/>
	<path class="st0" d="M307.24,344.02c-2.17-1.07-5.63-1-7.86,0.16c-6.11,3.18-12.25,6.54-18.19,9.79
		c-5.77,3.16-11.74,6.42-17.67,9.51c-25.69,13.38-56.8,26.38-92.81,21.37c-14.62-2.04-29.58-3.18-44.06-4.3
		c-8.16-0.63-16.6-1.27-24.87-2.07l-3.32-0.32c-24.7-2.39-50.25-4.87-75.61-3.98c-0.55,0.02-1.13-0.03-1.75-0.09v-59.87
		c2.41,0,4.81,0.01,7.19,0.01c8.48,0.02,16.48,0.03,24.64-0.09c2.26-0.03,4.74-0.76,6.65-1.95c4.45-2.77,8.91-5.68,13.22-8.5
		c3.48-2.27,7.07-4.61,10.63-6.87c5.79-3.67,5.38-7.56,4.01-10.18c-0.99-1.9-2.46-3.17-4.24-3.67c-2.05-0.58-4.41-0.11-6.84,1.36
		c-3.85,2.32-7.7,4.77-11.43,7.13c-3.51,2.23-7.14,4.53-10.75,6.72c-1.7,1.03-3.53,1.64-5,1.66c-7.22,0.11-14.57,0.11-21.68,0.1
		c-4.24,0-8.49-0.01-12.73,0.01c-6.61,0.03-8.01,4.04-8.01,7.4c-0.04,23.21-0.05,47.33,0,73.73c0.01,4.49,2.61,7.22,7.13,7.47
		c2.32,0.13,4.67,0.12,6.94,0.11c1.32-0.01,2.65-0.02,3.97,0.01c3.8,0.06,7.6,0.08,11.4,0.1c8.64,0.04,17.57,0.09,26.3,0.66
		c13.26,0.87,26.72,2.15,39.74,3.38c5.36,0.51,10.72,1.02,16.09,1.5c5.08,0.46,10.15,0.9,15.23,1.35
		c12.71,1.11,25.84,2.27,38.74,3.6c5.93,0.61,11.6,0.92,17.06,0.92c10.55,0,20.29-1.15,29.47-3.47
		c28.05-7.07,53.26-21.16,77.64-34.78c3.53-1.97,7.06-3.94,10.59-5.89c1.67-0.92,3.49-3.39,3.42-5.46
		C310.42,348.48,309.36,345.07,307.24,344.02z"/>
</g>
<g id="plan">
	<path class="st0" d="M283.01,119.16c1.62,0.01,3.22,0.02,4.81,0.03c4.96,0.04,9.64,0.08,14.4-0.11c2.76-0.11,3.87,0.35,4.97,3.27
		c4.42,11.73,17.04,18.88,29.34,16.64c12.57-2.29,22.15-12.6,22.8-24.51c0.74-13.72-7.26-25.27-19.92-28.73
		c-12.71-3.47-26.34,2.58-31.04,13.79c-2.13,5.08-4.59,5.75-9.67,5.42c-3.19-0.21-6.43-0.17-9.55-0.12
		c-1.59,0.02-3.17,0.04-4.76,0.04c-0.47,0-0.95-0.05-1.5-0.12l0-16.96c0-17.32,0.01-34.63-0.02-51.95c0-0.87,0.18-1.12,0.24-1.17
		c0.08-0.08,0.4-0.3,1.48-0.26l2.86,0.04c4.98,0.07,10.12,0.14,15.19-0.1c2.65-0.13,3.48,0.42,4.42,2.93
		c4.21,11.27,16.51,18.77,28.02,17.08c12.9-1.9,22.84-11.6,24.18-23.59c1.44-12.96-5.67-24.65-17.7-29.09l-4.4-1.63h-10.31
		l-0.28,0.12c-0.25,0.11-0.5,0.22-0.75,0.33c-0.5,0.22-0.97,0.44-1.44,0.59c-8.89,2.96-14.88,8.73-17.81,17.15
		c-0.61,1.75-1.12,1.92-2.83,1.91c-6.85-0.09-14.18-0.15-21.4,0.05c-7.16,0.21-12.8,5.44-13.7,12.72c-0.21,1.71-0.23,3.42-0.23,5.04
		c-0.01,17.06-0.01,34.12-0.01,51.18l0,15.55h-30.4c-1.51-6.83-5.04-9.98-12.26-11.1c-0.54-0.08-1.09-0.16-1.63-0.24
		c-2.1-0.31-4.27-0.63-6.32-1.15c-0.5-0.13-1.23-0.77-1.45-1.28c-2.88-6.67-5.32-12.62-7.44-18.19c-0.28-0.73-0.21-2,0.14-2.57
		c0.88-1.46,1.91-2.83,3-4.27c0.87-1.16,1.78-2.35,2.6-3.6c3.57-5.45,3.12-11.1-1.26-15.9c-2.44-2.67-5.07-5.21-7.61-7.67l-0.1-0.1
		c-5.43-5.24-11.57-5.68-17.77-1.26c-2.07,1.47-4.14,3.01-5.97,4.37c-0.55,0.41-1.09,0.81-1.6,1.19c-1.61-0.68-3.19-1.37-4.74-2.05
		c-4.29-1.88-8.33-3.65-12.61-5c-3.56-1.13-4.58-2.33-4.53-5.34c0.04-2.44-0.57-4.83-1.16-7.13l-0.15-0.59
		c-1.42-5.64-5.24-8.98-10.75-9.4c-4.83-0.37-9.68-0.37-14.42,0.01c-5.5,0.45-9.39,3.91-10.68,9.5c-0.36,1.57-0.58,3.16-0.8,4.71
		c-0.23,1.68-0.45,3.27-0.84,4.82c-0.26,1.07-1.1,2.19-1.62,2.41c-5,2.12-10.04,4.06-15.37,6.12c-1.56,0.6-3.13,1.21-4.73,1.83
		c-0.53-0.39-1.08-0.8-1.66-1.23c-1.95-1.46-4.17-3.11-6.44-4.66c-5.59-3.83-11.63-3.37-16.55,1.24c-2.79,2.62-5.49,5.31-8.01,8.01
		c-4.67,4.99-5.1,10.87-1.23,16.53c0.73,1.07,1.52,2.1,2.28,3.1c1.13,1.49,2.21,2.9,3.11,4.42c0.33,0.56,0.38,1.82,0.08,2.55
		c-0.69,1.73-1.55,3.46-2.38,5.14c-0.74,1.5-1.51,3.05-2.18,4.63c-0.54,1.26-0.9,2.65-1.26,3.99C63.1,88.82,62.52,91,61.28,92
		c-1.33,1.08-3.81,1.23-6.2,1.38c-1.3,0.08-2.65,0.17-3.92,0.39c-6.5,1.16-10.61,6.01-10.74,12.67c-0.07,3.81-0.07,7.61,0,11.29
		c0.13,6.65,4.17,11.34,10.81,12.54c1.07,0.2,2.16,0.35,3.24,0.5c1.91,0.27,3.71,0.53,5.46,1c0.86,0.23,1.94,1.11,2.27,1.83
		c2.51,5.56,4.92,11.38,7.38,17.79c0.28,0.72,0.2,2-0.15,2.58c-0.89,1.47-1.93,2.85-3.02,4.3c-0.87,1.15-1.76,2.33-2.57,3.57
		c-3.54,5.38-3.08,11.17,1.27,15.88c2.73,2.95,5.57,5.71,7.99,8.02c4.94,4.71,11.24,5.24,16.86,1.41c2.39-1.63,4.78-3.4,7.3-5.41
		c0.88-0.7,1.35-0.81,2.72-0.17c6.24,2.91,12.01,5.31,17.65,7.36c1.58,0.57,1.92,1.11,2.09,2.35c0.1,0.73,0.2,1.46,0.3,2.2
		c0.31,2.34,0.63,4.77,1.16,7.14c1.43,6.37,5.99,10.15,12.52,10.38c4.13,0.15,7.84,0.14,11.35-0.01
		c6.34-0.28,10.79-4.01,12.23-10.23c0.65-2.8,1.11-5.71,1.38-8.67c0.19-2.1,0.81-2.87,2.64-3.3c3.27-0.77,6.4-2.02,9.04-3.14
		c1.3-0.55,2.57-1.31,3.79-2.04c2.15-1.28,4.17-2.48,5.85-2.34c1.74,0.16,3.57,1.75,5.5,3.43c1.05,0.91,2.13,1.85,3.27,2.62
		c5.35,3.59,11.58,3.12,16.26-1.23c2.93-2.73,5.72-5.51,8.29-8.27c4.52-4.85,4.96-10.61,1.25-16.21c-1.42-2.14-2.97-4.4-4.77-6.47
		c-1.56-1.79-1.66-2.83-0.48-4.8c2.25-3.76,4.52-7.8,5.29-12.04c0.96-5.22,3.26-7.05,9.47-7.54c8.42-0.66,11.87-3.38,14.09-11.42
		h30.26l0,21.68c0,15.25,0,30.49,0.01,45.74c0.01,11.86,5.59,17.4,17.57,17.42c1.48,0,2.95,0.01,4.43,0.02
		c4.33,0.03,8.8,0.05,13.21-0.07c1.82-0.04,2.41,0.21,3.11,2.12c4,10.92,14.37,17.95,25.45,17.95c1.87,0,3.75-0.2,5.63-0.61
		c13.14-2.89,21.79-14.1,21.53-27.87c-0.23-12.31-9.91-23.56-22.02-25.61c-13.48-2.27-26.06,4.9-30.61,17.46
		c-0.69,1.9-1.25,2.13-3.1,2.09c-5.64-0.15-11.68-0.25-17.7,0.02c-1.35,0.06-2.21-0.08-2.57-0.43c-0.37-0.35-0.55-1.24-0.54-2.64
		c0.12-15.53,0.11-31.32,0.09-46.58c0-6.06-0.01-12.12-0.01-18.17c0-0.84,0.05-1.71,0.11-2.63
		C283.01,119.19,283.01,119.17,283.01,119.16z M319.47,112.1c-0.02-7.1,5.5-12.75,12.56-12.87c0.07,0,0.14,0,0.21,0
		c3.38,0,6.58,1.32,9.04,3.73c2.48,2.44,3.86,5.66,3.87,9.07c0.01,3.34-1.42,6.68-3.92,9.15c-2.45,2.42-5.71,3.8-8.96,3.8
		c-0.05,0-0.1,0-0.15,0C325.15,124.89,319.48,119.11,319.47,112.1z M319.46,27.39c-0.03-3.54,1.31-6.85,3.78-9.34
		c2.4-2.41,5.58-3.74,8.96-3.74c0.01,0,0.02,0,0.03,0c3.35,0.01,6.69,1.45,9.15,3.95c2.44,2.49,3.81,5.81,3.76,9.13
		c-0.11,6.96-5.91,12.62-12.92,12.62C325.01,40.01,319.52,34.58,319.46,27.39z M203.59,124.78c-1.8,8.7-5.13,16.7-9.89,23.78
		c-2.07,3.08-1.97,6.32,0.29,9.35c2.02,2.7,4.01,5.43,6.05,8.22l1.91,2.61l-6.35,5.77c-0.71-0.52-1.43-1.04-2.16-1.56
		c-2.51-1.82-5.11-3.69-7.62-5.67c-3.52-2.77-7-2.93-10.62-0.49c-6.96,4.7-14.61,7.86-22.73,9.39c-4.27,0.8-6.68,3.47-7.17,7.94
		c-0.2,1.78-0.47,3.6-0.74,5.36c-0.28,1.87-0.58,3.81-0.78,5.74c-0.12,1.16-0.26,1.37-1.67,1.43l-0.19,0.01
		c-3.5,0.15-5.81,0.24-6.55-0.39c-0.74-0.63-1.01-2.9-1.42-6.4c-0.01-0.14-0.02-0.28-0.04-0.41c-0.24-1.37-0.42-2.55-0.57-3.58
		c-1.12-7.49-1.89-8.2-11.68-10.84c-5.97-1.61-11.74-4.72-17.31-7.72l-0.98-0.53c-1.96-1.05-3.71-1.58-5.36-1.58
		c-1.91,0-3.68,0.71-5.48,2.15c-2.4,1.91-4.87,3.7-7.49,5.6c-0.8,0.58-1.61,1.17-2.43,1.77l-5.65-6.61
		c0.43-0.59,0.87-1.19,1.32-1.82c1.7-2.34,3.62-4.99,5.61-7.52c2.83-3.62,2.97-7.21,0.42-10.97c-4.49-6.63-7.62-14.17-9.28-22.41
		c-0.89-4.4-3.37-6.68-7.8-7.17c-3.13-0.35-6.2-0.88-9.45-1.44c-0.99-0.17-1.99-0.34-3-0.51v-8.41l3.19-0.52
		c3.48-0.57,6.91-1.13,10.34-1.65c3.58-0.54,5.77-2.62,6.5-6.18c1.82-8.79,5.19-16.91,10.03-24.13c1.96-2.93,1.86-6.14-0.28-9.03
		c-2.02-2.73-4.02-5.46-6.08-8.27l-1.9-2.59l6.27-5.88c0.73,0.53,1.46,1.06,2.21,1.6c2.58,1.87,5.24,3.8,7.83,5.81
		c3.36,2.61,6.73,2.71,10.3,0.3c7.01-4.72,14.78-7.92,23.1-9.5c3.86-0.73,6.2-3.3,6.77-7.42c0.17-1.23,0.36-2.45,0.55-3.68
		c0.37-2.44,0.76-4.96,1.01-7.48c0.15-1.5,0.31-1.66,1.72-1.7l0.25-0.01c3.57-0.09,5.72-0.15,6.46,0.51
		c0.76,0.68,1.03,2.91,1.47,6.6c0.1,0.86,0.24,1.71,0.38,2.57c0.12,0.75,0.24,1.49,0.34,2.24c0.72,5.64,2.64,6.82,7.54,8.53
		c8.15,2.84,15.17,5.73,21.46,8.82l0.42,0.21c5.45,2.68,6.65,3.06,12.15-1.01c2.24-1.65,4.49-3.29,6.78-4.97l2.21-1.61l5.94,6.16
		c-0.57,0.78-1.14,1.57-1.72,2.36c-1.9,2.6-3.85,5.29-5.85,7.91c-2.48,3.26-2.59,6.62-0.33,9.99c4.66,6.95,7.89,14.72,9.6,23.09
		c0.83,4.08,3.19,6.32,7.2,6.86c3.23,0.44,6.4,0.95,9.76,1.49c1.05,0.17,2.11,0.34,3.18,0.51v8.5l-3.24,0.51
		c-3.41,0.54-6.74,1.06-10.08,1.55C206.62,118.9,204.36,121.06,203.59,124.78z M319.47,196.98c-0.02-3.56,1.28-6.83,3.65-9.21
		c2.36-2.37,5.6-3.67,9.13-3.67c0.01,0,0.03,0,0.04,0c7.02,0.02,12.78,5.71,12.85,12.67c0.03,3.38-1.3,6.6-3.75,9.06
		c-2.48,2.49-5.74,3.86-9.18,3.86c-0.02,0-0.03,0-0.05,0C325.08,209.67,319.51,204.08,319.47,196.98z"/>
	<path class="st0" d="M131.9,68.9c-21.99,3.53-38.37,23.94-36.52,45.48c2.03,23.58,19.87,40.85,42.61,41.46l0.38,1.38l1.45-0.4
		c1.77-0.49,3.56-0.95,5.34-1.41c4.15-1.07,8.44-2.17,12.53-3.69c2.41-0.9,4.03-2.8,4.44-5.22c0.42-2.49-0.58-5.08-2.62-6.77
		c-3.01-2.5-6.02-1.62-8.84-0.51c-9.92,3.9-20.32,2.77-28.55-3.12c-8.25-5.9-12.7-15.42-12.22-26.11
		c0.7-15.21,13.82-27.53,29.29-27.53c0.05,0,0.1,0,0.15,0c15.44,0.08,28.57,12.53,29.26,27.75c0.26,5.7-0.89,11-3.51,16.19
		c-1.88,3.72-0.64,7.69,3.01,9.66c3.5,1.88,7.37,0.68,9.63-3c0.64-1.04,1.21-2.21,1.76-3.57c6.59-16.38,4.55-31.42-6.07-44.73
		C162.85,71.52,148.88,66.18,131.9,68.9z"/>
</g>
</svg>
