<?xml version="1.0" encoding="utf-8"?>
<!-- Generator: Adobe Illustrator 26.3.1, SVG Export Plug-In . SVG Version: 6.00 Build 0)  -->
<svg version="1.1" id="레이어_1" xmlns="http://www.w3.org/2000/svg" xmlns:xlink="http://www.w3.org/1999/xlink" x="0px"
	 y="0px" viewBox="0 0 342.24 30.42" style="enable-background:new 0 0 342.24 30.42;" xml:space="preserve">
<style type="text/css">
	.st0{fill:#FFFFFF;}
</style>
<g>
	<path class="st0" d="M6.32,2.44C5.62,1.23,6.6,0,7.73,0L27,0.01c1.59,0,2.02,1.5,1.37,2.52l-3.47,6c-0.56,1.12-1.95,1.07-2.56,0.04
		l-3.35-5.84c-0.93-1.56-2.22-1.6-3.18,0l-3.29,5.68c-0.46,0.86,0.26,2.13,1.42,2.13H33.2c1.33,0,1.98,1.48,1.44,2.43L25.1,29.5
		c-0.62,1.24-2.4,1.17-3.09,0.02l-3.38-5.76c-0.69-1.23,0.25-2.65,1.38-2.65h7.18c1.08,0,1.71-1.12,1.1-2.21l-3.15-5.54
		c-0.83-1.41-2.15-1.48-3.02-0.06l-9.4,16.17c-0.6,1.23-2.07,1.26-2.77,0.08L0.26,13.04c-0.76-1.35,0.3-2.51,1.49-2.51h6.67
		c1.65,0,2.1,1.46,1.45,2.52l-3.45,5.99c-0.51,0.91,0.3,2.09,1.42,2.09h6.96c1.06,0,1.76-0.97,1.15-2.07L6.32,2.44L6.32,2.44z"/>
	<g>
		<path class="st0" d="M58.62,2.28h8.35L56.66,14.55L67.9,28.19h-8.73l-8.69-11.24H50.4v11.24h-6.74V2.28h6.74v10.68h0.07
			L58.62,2.28z"/>
		<path class="st0" d="M82.28,7.95c4.02,0,7.32,3.27,7.32,6.84c0,4.47-3.3,7.74-7.32,7.74s-7.32-3.27-7.32-7.74
			C74.96,11.22,78.26,7.95,82.28,7.95z M82.28,1.42c-7.46,0-14.33,5.5-14.33,13.33c0,8.38,6.02,14.29,14.33,14.29
			c8.32,0,14.33-5.91,14.33-14.29C96.61,6.92,89.73,1.42,82.28,1.42z"/>
		<path class="st0" d="M109.3,22.49h8.07v5.71h-14.81V2.28h6.74V22.49z"/>
		<path class="st0" d="M134.41,7.95c4.02,0,7.32,3.27,7.32,6.84c0,4.47-3.3,7.74-7.32,7.74s-7.32-3.27-7.32-7.74
			C127.09,11.22,130.39,7.95,134.41,7.95z M134.41,1.42c-7.45,0-14.33,5.5-14.33,13.33c0,8.38,6.02,14.29,14.33,14.29
			c8.32,0,14.33-5.91,14.33-14.29C148.74,6.92,141.87,1.42,134.41,1.42z"/>
		<path class="st0" d="M154.73,2.28h6.73l12.34,15.84h0.07V2.28h6.73v25.91h-6.73l-12.34-15.87h-0.07v15.87h-6.73V2.28z"/>
	</g>
	<g>
		<g>
			<path class="st0" d="M211.08,18.63v-5.4h13.85c0.01,0.18,0.02,0.37,0.03,0.59c0.01,0.21,0.01,0.52,0.01,0.93
				c0,4.46-1.18,7.91-3.52,10.37c-2.35,2.46-5.65,3.69-9.92,3.69c-2.09,0-3.96-0.32-5.59-0.95c-1.63-0.63-3.09-1.59-4.37-2.89
				c-1.22-1.24-2.18-2.7-2.85-4.39c-0.67-1.69-1.01-3.46-1.01-5.31c0-1.93,0.33-3.71,0.99-5.33s1.64-3.08,2.95-4.37
				c1.3-1.26,2.78-2.21,4.46-2.86c1.68-0.65,3.49-0.97,5.43-0.97c2.53,0,4.77,0.5,6.72,1.51s3.59,2.5,4.92,4.49l-6.1,2.92
				c-0.73-0.99-1.55-1.74-2.47-2.22c-0.91-0.49-1.93-0.73-3.06-0.73c-2.11,0-3.77,0.7-4.99,2.11c-1.21,1.4-1.82,3.32-1.82,5.75
				c0,2.46,0.6,4.39,1.82,5.8c1.21,1.41,2.88,2.11,4.99,2.11c1.79,0,3.28-0.44,4.48-1.32s1.9-2.05,2.1-3.52h-7.05V18.63z"/>
			<path class="st0" d="M227.62,28.18V2.3h7.04v19.85h8.8v6.03H227.62z"/>
			<path class="st0" d="M272.75,15.3c0,1.86-0.34,3.6-1.02,5.23c-0.68,1.63-1.68,3.08-2.99,4.36c-1.32,1.27-2.82,2.25-4.52,2.94
				c-1.7,0.69-3.45,1.03-5.28,1.03c-1.85,0-3.62-0.35-5.31-1.03c-1.69-0.69-3.18-1.67-4.46-2.94c-1.33-1.28-2.34-2.74-3.03-4.38
				s-1.03-3.38-1.03-5.21c0-1.85,0.34-3.59,1.03-5.22s1.7-3.09,3.03-4.37c1.28-1.27,2.77-2.25,4.46-2.94s3.46-1.03,5.31-1.03
				c1.84,0,3.6,0.35,5.31,1.03c1.7,0.69,3.2,1.67,4.49,2.94c1.3,1.27,2.29,2.73,2.98,4.37C272.4,11.71,272.75,13.45,272.75,15.3z
				 M258.96,22.9c1.95,0,3.56-0.72,4.84-2.16c1.27-1.44,1.91-3.25,1.91-5.45c0-2.17-0.65-3.98-1.94-5.43
				c-1.3-1.45-2.9-2.18-4.81-2.18c-1.95,0-3.56,0.72-4.84,2.17c-1.28,1.44-1.91,3.26-1.91,5.44c0,2.22,0.63,4.04,1.88,5.46
				C255.35,22.19,256.97,22.9,258.96,22.9z"/>
		</g>
		<path class="st0" d="M297.19,28.06l8.95-25.88h8.82l8.93,25.88h-7.01l-1.31-4.65h-10.01l-1.34,4.65H297.19z M307.09,18.39h7.01
			l-2.63-8.54c-0.08-0.26-0.19-0.68-0.33-1.25c-0.14-0.58-0.32-1.32-0.55-2.23c-0.15,0.64-0.3,1.24-0.45,1.82
			c-0.15,0.58-0.3,1.13-0.45,1.66L307.09,18.39z"/>
		<path class="st0" d="M326.4,28.06V2.18h7.04v19.85h8.79v6.03C342.23,28.06,326.4,28.06,326.4,28.06z"/>
		<g>
			<path class="st0" d="M276.19,28.07V2.2h9.61c4.6,0,7.69,1.78,7.69,6.73c0,2.33-0.76,4.22-2.85,5.28v0.07
				c3.7,0.48,5.28,2.99,5.28,6.59c0,5.42-4.63,7.21-9.37,7.21h-10.36V28.07z M282.91,12.36h0.75c1.78,0,3.64-0.31,3.64-2.51
				c0-2.37-2.09-2.5-3.91-2.5h-0.48V12.36z M282.91,22.92h0.86c1.99,0,5.35,0.1,5.35-2.74c0-3.12-3.33-2.81-5.53-2.81h-0.69v5.55
				H282.91z"/>
		</g>
	</g>
</g>
</svg>
