<?xml version="1.0" encoding="utf-8"?>
<!-- Generator: Adobe Illustrator 26.3.1, SVG Export Plug-In . SVG Version: 6.00 Build 0)  -->
<svg version="1.1" id="레이어_1" xmlns="http://www.w3.org/2000/svg" xmlns:xlink="http://www.w3.org/1999/xlink" x="0px"
	 y="0px" viewBox="0 0 275.3 24.47" style="enable-background:new 0 0 275.3 24.47;" xml:space="preserve">
<style type="text/css">
	.st0{fill:#333333;}
</style>
<g>
	<path class="st0" d="M5.09,1.96C4.53,0.99,5.32,0,6.22,0l15.5,0.01c1.28,0,1.62,1.21,1.1,2.03l-2.79,4.83
		c-0.45,0.9-1.57,0.86-2.06,0.03l-2.69-4.7c-0.75-1.25-1.79-1.29-2.56,0l-2.65,4.57c-0.37,0.69,0.21,1.71,1.14,1.71H26.7
		c1.07,0,1.59,1.19,1.16,1.95l-7.67,13.3c-0.5,1-1.93,0.94-2.49,0.02l-2.72-4.63c-0.56-0.99,0.2-2.13,1.11-2.13h5.78
		c0.87,0,1.38-0.9,0.88-1.78l-2.53-4.46c-0.67-1.13-1.73-1.19-2.43-0.05l-7.56,13.01C9.75,24.7,8.56,24.72,8,23.77L0.21,10.49
		C-0.4,9.4,0.45,8.47,1.41,8.47h5.37c1.33,0,1.69,1.17,1.17,2.03l-2.78,4.82C4.76,16.05,5.41,17,6.31,17h5.6
		c0.85,0,1.42-0.78,0.93-1.67L5.09,1.96L5.09,1.96z"/>
	<g>
		<path class="st0" d="M47.16,1.83h6.72l-8.29,9.87l9.04,10.97h-7.02l-6.99-9.04h-0.06v9.04h-5.42V1.83h5.42v8.59h0.06L47.16,1.83z"
			/>
		<path class="st0" d="M66.2,6.39c3.23,0,5.89,2.63,5.89,5.5c0,3.6-2.65,6.23-5.89,6.23c-3.23,0-5.89-2.63-5.89-6.23
			C60.31,9.02,62.96,6.39,66.2,6.39z M66.2,1.14c-6,0-11.53,4.42-11.53,10.72c0,6.74,4.84,11.5,11.53,11.5
			c6.69,0,11.53-4.75,11.53-11.5C77.72,5.56,72.19,1.14,66.2,1.14z"/>
		<path class="st0" d="M87.93,18.09h6.49v4.59H82.51V1.83h5.42V18.09z"/>
		<path class="st0" d="M108.13,6.39c3.23,0,5.89,2.63,5.89,5.5c0,3.6-2.65,6.23-5.89,6.23c-3.24,0-5.89-2.63-5.89-6.23
			C102.24,9.02,104.9,6.39,108.13,6.39z M108.13,1.14c-5.99,0-11.53,4.42-11.53,10.72c0,6.74,4.84,11.5,11.53,11.5
			c6.69,0,11.53-4.75,11.53-11.5C119.66,5.56,114.13,1.14,108.13,1.14z"/>
		<path class="st0" d="M124.48,1.83h5.41l9.93,12.74h0.06V1.83h5.41v20.84h-5.41L129.95,9.9h-0.06v12.77h-5.41V1.83z"/>
	</g>
	<g>
		<g>
			<path class="st0" d="M169.8,14.98v-4.34h11.14c0.01,0.14,0.02,0.3,0.02,0.47c0.01,0.17,0.01,0.42,0.01,0.75
				c0,3.59-0.95,6.36-2.83,8.34c-1.89,1.98-4.54,2.97-7.98,2.97c-1.68,0-3.19-0.26-4.5-0.76c-1.31-0.51-2.49-1.28-3.52-2.32
				c-0.98-1-1.75-2.17-2.29-3.53c-0.54-1.36-0.81-2.78-0.81-4.27c0-1.55,0.27-2.98,0.8-4.29c0.53-1.3,1.32-2.48,2.37-3.52
				c1.05-1.01,2.24-1.78,3.59-2.3c1.35-0.52,2.81-0.78,4.37-0.78c2.04,0,3.84,0.4,5.41,1.21c1.57,0.81,2.89,2.01,3.96,3.61
				l-4.91,2.35c-0.59-0.8-1.25-1.4-1.99-1.79c-0.73-0.39-1.55-0.59-2.46-0.59c-1.7,0-3.03,0.56-4.01,1.7
				c-0.97,1.13-1.46,2.67-1.46,4.63c0,1.98,0.48,3.53,1.46,4.67c0.97,1.13,2.32,1.7,4.01,1.7c1.44,0,2.64-0.35,3.6-1.06
				c0.97-0.71,1.53-1.65,1.69-2.83L169.8,14.98L169.8,14.98z"/>
			<path class="st0" d="M183.11,22.66V1.85h5.66v15.97h7.08v4.85L183.11,22.66L183.11,22.66z"/>
			<path class="st0" d="M219.41,12.3c0,1.5-0.27,2.9-0.82,4.21s-1.35,2.48-2.41,3.51c-1.06,1.02-2.27,1.81-3.64,2.37
				c-1.37,0.56-2.78,0.83-4.25,0.83c-1.49,0-2.91-0.28-4.27-0.83c-1.36-0.56-2.56-1.34-3.59-2.37c-1.07-1.03-1.88-2.2-2.44-3.52
				c-0.56-1.32-0.83-2.72-0.83-4.19c0-1.49,0.27-2.89,0.83-4.2c0.56-1.31,1.37-2.49,2.44-3.52c1.03-1.02,2.23-1.81,3.59-2.37
				c1.36-0.56,2.78-0.83,4.27-0.83c1.48,0,2.9,0.28,4.27,0.83c1.37,0.56,2.57,1.34,3.61,2.37c1.05,1.02,1.84,2.2,2.4,3.52
				C219.13,9.42,219.41,10.82,219.41,12.3z M208.32,18.42c1.57,0,2.86-0.58,3.89-1.74c1.02-1.16,1.54-2.61,1.54-4.38
				c0-1.75-0.52-3.2-1.56-4.37c-1.05-1.17-2.33-1.75-3.87-1.75c-1.57,0-2.86,0.58-3.89,1.75c-1.03,1.16-1.54,2.62-1.54,4.38
				c0,1.79,0.51,3.25,1.51,4.39C205.42,17.85,206.72,18.42,208.32,18.42z"/>
		</g>
		<path class="st0" d="M239.07,22.57l7.2-20.82h7.1l7.18,20.82h-5.64l-1.05-3.74h-8.05l-1.08,3.74H239.07z M247.04,14.79h5.64
			l-2.12-6.87c-0.06-0.21-0.15-0.55-0.27-1.01c-0.11-0.47-0.26-1.06-0.44-1.79c-0.12,0.51-0.24,1-0.36,1.46
			c-0.12,0.47-0.24,0.91-0.36,1.34L247.04,14.79z"/>
		<path class="st0" d="M262.57,22.57V1.75h5.66v15.97h7.07v4.85C275.3,22.57,262.57,22.57,262.57,22.57z"/>
		<g>
			<path class="st0" d="M222.18,22.58V1.77h7.73c3.7,0,6.19,1.43,6.19,5.41c0,1.87-0.61,3.39-2.29,4.25v0.06
				c2.98,0.39,4.25,2.41,4.25,5.3c0,4.36-3.72,5.8-7.54,5.8L222.18,22.58L222.18,22.58z M227.59,9.94h0.6
				c1.43,0,2.93-0.25,2.93-2.02c0-1.91-1.68-2.01-3.15-2.01h-0.39L227.59,9.94L227.59,9.94z M227.59,18.43h0.69
				c1.6,0,4.3,0.08,4.3-2.2c0-2.51-2.68-2.26-4.45-2.26h-0.56L227.59,18.43C227.58,18.43,227.59,18.43,227.59,18.43z"/>
		</g>
	</g>
</g>
</svg>
