<?xml version="1.0" encoding="utf-8"?>
<!-- Generator: Adobe Illustrator 26.3.1, SVG Export Plug-In . SVG Version: 6.00 Build 0)  -->
<svg version="1.1" id="레이어_1" xmlns="http://www.w3.org/2000/svg" xmlns:xlink="http://www.w3.org/1999/xlink" x="0px"
	 y="0px" viewBox="0 0 107.88 231.57" style="enable-background:new 0 0 107.88 231.57;" xml:space="preserve">
<style type="text/css">
	.st0{fill:#FFFFFF;}
</style>
<path class="st0" d="M107.86,77.71c0,12.45,0.06,24.9-0.01,37.34c-0.11,20.08-13.32,35.8-33.06,39.42
	c-1.44,0.26-2.92,0.47-4.38,0.47c-11.67-0.03-23.38,0.44-35-0.31c-19.3-1.25-35.15-18.4-35.3-37.75
	c-0.2-25.44-0.08-50.87-0.06-76.31C0.07,18.77,15.39,1.78,37.17,0.46c12-0.73,24.14-0.57,36.15,0.28
	c18.19,1.28,33.83,17.93,34.37,36.15c0.4,13.6,0.08,27.21,0.08,40.82C107.79,77.71,107.83,77.71,107.86,77.71z M100.05,77.72
	c0-12.45,0-24.89,0-37.34c0-0.15,0-0.31,0-0.46C99.71,21.74,86.12,8.2,68.02,8.08c-9.43-0.06-18.86-0.07-28.29,0
	C21.68,8.23,7.94,22.02,7.9,40.08c-0.06,25.05-0.06,50.09,0,75.14c0.05,18.13,13.95,31.92,32.1,31.98
	c9.35,0.03,18.71,0.04,28.06-0.02c2.15-0.02,4.34-0.2,6.44-0.64c15.28-3.17,25.39-15.61,25.52-31.48
	C100.12,102.62,100.05,90.17,100.05,77.72z"/>
<path class="st0" d="M50.05,218.82c0-1.46,0-2.29,0-3.11c0-13.06,0-26.12,0-39.18c0-0.85-0.03-1.71,0.08-2.55
	c0.26-1.97,1.89-3.46,3.79-3.37c1.97,0.1,3.38,1.09,3.76,3.13c0.17,0.9,0.15,1.85,0.15,2.77c0.01,13.06,0.01,26.12,0.01,39.18
	c0,0.83,0,1.66,0,3.1c1.02-0.86,1.64-1.36,2.24-1.89c4.65-4.07,9.29-8.15,13.96-12.21c2.47-2.15,4.61-2.25,6.29-0.36
	c1.65,1.84,1.26,4.16-1.07,6.22c-7.47,6.6-14.94,13.19-22.43,19.77c-1.89,1.66-3.93,1.64-5.82-0.02
	c-7.54-6.64-15.07-13.29-22.59-19.94c-2.19-1.94-2.5-4.25-0.87-6.05c1.6-1.77,3.77-1.79,5.95,0.08c4.45,3.83,8.84,7.73,13.26,11.59
	C47.69,216.8,48.62,217.59,50.05,218.82z"/>
<path class="st0" d="M57.84,51.56c0,3.01,0.04,6.03-0.01,9.04c-0.05,3.02-1.5,4.66-3.98,4.62c-2.39-0.04-3.77-1.64-3.79-4.55
	c-0.04-6.1-0.03-12.2,0-18.31c0.02-2.82,1.52-4.54,3.83-4.56c2.31-0.03,3.87,1.69,3.93,4.49C57.88,45.38,57.84,48.48,57.84,51.56z"
	/>
</svg>
